<ttFont>
    <TTGlyph name="A" xMin="10" yMin="-35" xMax="452" yMax="774">
      <contour>
        <pt x="450" y="267" on="1"/>
        <pt x="452" y="264" on="0"/>
        <pt x="447" y="230" on="0"/>
        <pt x="438" y="190" on="0"/>
        <pt x="429" y="155" on="0"/>
        <pt x="426" y="152" on="1"/>
        <pt x="416" y="152" on="1"/>
        <pt x="413" y="152" on="0"/>
        <pt x="410" y="153" on="1"/>
        <pt x="415" y="105" on="0"/>
        <pt x="421" y="47" on="0"/>
        <pt x="421" y="44" on="1"/>
        <pt x="421" y="37" on="0"/>
        <pt x="408" y="11" on="0"/>
        <pt x="392" y="-11" on="0"/>
        <pt x="375" y="-24" on="0"/>
        <pt x="372" y="-18" on="1"/>
        <pt x="367" y="-9" on="0"/>
        <pt x="335" y="81" on="0"/>
        <pt x="315" y="159" on="1"/>
        <pt x="295" y="161" on="0"/>
        <pt x="252" y="165" on="0"/>
        <pt x="230" y="167" on="1"/>
        <pt x="208" y="169" on="0"/>
        <pt x="165" y="176" on="0"/>
        <pt x="145" y="179" on="1"/>
        <pt x="135" y="135" on="0"/>
        <pt x="116" y="57" on="0"/>
        <pt x="99" y="-1" on="0"/>
        <pt x="87" y="-35" on="0"/>
        <pt x="84" y="-35" on="1"/>
        <pt x="76" y="-35" on="0"/>
        <pt x="60" y="-15" on="0"/>
        <pt x="47" y="13" on="0"/>
        <pt x="39" y="43" on="0"/>
        <pt x="39" y="53" on="1"/>
        <pt x="41" y="76" on="0"/>
        <pt x="48" y="126" on="0"/>
        <pt x="50" y="147" on="1"/>
        <pt x="53" y="172" on="0"/>
        <pt x="56" y="196" on="1"/>
        <pt x="52" y="196" on="1"/>
        <pt x="48" y="198" on="0"/>
        <pt x="34" y="212" on="0"/>
        <pt x="20" y="227" on="0"/>
        <pt x="10" y="242" on="0"/>
        <pt x="10" y="246" on="1"/>
        <pt x="10" y="248" on="0"/>
        <pt x="39" y="252" on="0"/>
        <pt x="63" y="254" on="1"/>
        <pt x="71" y="314" on="0"/>
        <pt x="89" y="444" on="0"/>
        <pt x="107" y="558" on="0"/>
        <pt x="124" y="643" on="0"/>
        <pt x="130" y="659" on="1"/>
        <pt x="140" y="686" on="0"/>
        <pt x="190" y="729" on="0"/>
        <pt x="245" y="758" on="0"/>
        <pt x="295" y="774" on="0"/>
        <pt x="307" y="774" on="1"/>
        <pt x="312" y="774" on="0"/>
        <pt x="325" y="729" on="0"/>
        <pt x="340" y="653" on="0"/>
        <pt x="357" y="552" on="0"/>
        <pt x="373" y="440" on="0"/>
        <pt x="388" y="323" on="0"/>
        <pt x="395" y="270" on="1"/>
        <pt x="445" y="270" on="0"/>
      </contour>
      <contour>
        <pt x="164" y="261" on="1"/>
        <pt x="196" y="263" on="0"/>
        <pt x="260" y="265" on="0"/>
        <pt x="291" y="267" on="1"/>
        <pt x="283" y="306" on="0"/>
        <pt x="273" y="354" on="1"/>
        <pt x="265" y="395" on="0"/>
        <pt x="243" y="505" on="0"/>
        <pt x="232" y="571" on="1"/>
        <pt x="220" y="512" on="0"/>
        <pt x="196" y="401" on="0"/>
        <pt x="186" y="357" on="1"/>
        <pt x="175" y="306" on="0"/>
      </contour>
    </TTGlyph>
    <TTGlyph name="AE" xMin="-26" yMin="-35" xMax="639" yMax="774">
      <contour>
        <pt x="620" y="573" on="1"/>
        <pt x="615" y="568" on="0"/>
        <pt x="526" y="576" on="0"/>
        <pt x="429" y="585" on="1"/>
        <pt x="429" y="552" on="0"/>
        <pt x="430" y="456" on="0"/>
        <pt x="429" y="401" on="1"/>
        <pt x="504" y="394" on="0"/>
        <pt x="588" y="382" on="0"/>
        <pt x="590" y="380" on="1"/>
        <pt x="594" y="376" on="0"/>
        <pt x="592" y="351" on="0"/>
        <pt x="583" y="321" on="0"/>
        <pt x="571" y="294" on="0"/>
        <pt x="565" y="290" on="1"/>
        <pt x="561" y="288" on="0"/>
        <pt x="492" y="281" on="0"/>
        <pt x="429" y="278" on="1"/>
        <pt x="429" y="260" on="0"/>
        <pt x="430" y="236" on="1"/>
        <pt x="431" y="216" on="0"/>
        <pt x="432" y="155" on="0"/>
        <pt x="434" y="116" on="1"/>
        <pt x="500" y="114" on="0"/>
        <pt x="574" y="111" on="0"/>
        <pt x="591" y="109" on="1"/>
        <pt x="611" y="107" on="0"/>
        <pt x="616" y="106" on="1"/>
        <pt x="621" y="101" on="0"/>
        <pt x="614" y="73" on="0"/>
        <pt x="599" y="42" on="0"/>
        <pt x="582" y="12" on="0"/>
        <pt x="577" y="6" on="1"/>
        <pt x="574" y="4" on="0"/>
        <pt x="530" y="6" on="0"/>
        <pt x="476" y="10" on="0"/>
        <pt x="426" y="14" on="0"/>
        <pt x="419" y="16" on="1"/>
        <pt x="394" y="21" on="0"/>
        <pt x="364" y="42" on="0"/>
        <pt x="345" y="76" on="0"/>
        <pt x="335" y="123" on="0"/>
        <pt x="329" y="155" on="1"/>
        <pt x="300" y="157" on="0"/>
        <pt x="230" y="162" on="0"/>
        <pt x="195" y="167" on="1"/>
        <pt x="185" y="168" on="0"/>
        <pt x="167" y="170" on="0"/>
        <pt x="157" y="172" on="1"/>
        <pt x="140" y="129" on="0"/>
        <pt x="109" y="54" on="0"/>
        <pt x="84" y="-2" on="0"/>
        <pt x="66" y="-35" on="0"/>
        <pt x="63" y="-35" on="1"/>
        <pt x="55" y="-35" on="0"/>
        <pt x="42" y="-15" on="0"/>
        <pt x="34" y="13" on="0"/>
        <pt x="31" y="43" on="0"/>
        <pt x="33" y="53" on="1"/>
        <pt x="38" y="74" on="0"/>
        <pt x="51" y="120" on="0"/>
        <pt x="57" y="140" on="1"/>
        <pt x="64" y="163" on="0"/>
        <pt x="71" y="185" on="1"/>
        <pt x="62" y="187" on="0"/>
        <pt x="52" y="189" on="1"/>
        <pt x="44" y="191" on="0"/>
        <pt x="24" y="194" on="0"/>
        <pt x="16" y="196" on="1"/>
        <pt x="12" y="198" on="0"/>
        <pt x="-2" y="212" on="0"/>
        <pt x="-16" y="227" on="0"/>
        <pt x="-26" y="242" on="0"/>
        <pt x="-26" y="246" on="1"/>
        <pt x="-26" y="249" on="0"/>
        <pt x="42" y="256" on="0"/>
        <pt x="92" y="259" on="1"/>
        <pt x="110" y="319" on="0"/>
        <pt x="149" y="447" on="0"/>
        <pt x="185" y="559" on="0"/>
        <pt x="215" y="644" on="0"/>
        <pt x="224" y="659" on="1"/>
        <pt x="239" y="686" on="0"/>
        <pt x="294" y="729" on="0"/>
        <pt x="352" y="758" on="0"/>
        <pt x="402" y="774" on="0"/>
        <pt x="414" y="774" on="1"/>
        <pt x="418" y="774" on="0"/>
        <pt x="422" y="744" on="0"/>
        <pt x="424" y="718" on="1"/>
        <pt x="458" y="718" on="0"/>
        <pt x="530" y="716" on="0"/>
        <pt x="591" y="711" on="0"/>
        <pt x="631" y="705" on="0"/>
        <pt x="634" y="702" on="1"/>
        <pt x="638" y="697" on="0"/>
        <pt x="639" y="661" on="0"/>
        <pt x="634" y="618" on="0"/>
        <pt x="625" y="579" on="0"/>
      </contour>
      <contour>
        <pt x="195" y="264" on="1"/>
        <pt x="228" y="266" on="0"/>
        <pt x="292" y="268" on="0"/>
        <pt x="319" y="269" on="1"/>
        <pt x="317" y="308" on="0"/>
        <pt x="316" y="356" on="1"/>
        <pt x="314" y="397" on="0"/>
        <pt x="313" y="507" on="0"/>
        <pt x="312" y="571" on="1"/>
        <pt x="290" y="513" on="0"/>
        <pt x="249" y="404" on="0"/>
        <pt x="232" y="360" on="1"/>
        <pt x="213" y="309" on="0"/>
      </contour>
    </TTGlyph>
    <TTGlyph name="Aacute" xMin="10" yMin="-35" xMax="452" yMax="978">
      <component glyphName="A" x="0" y="0" flags="0x4"/>
      <component glyphName="acute" x="61" y="205" flags="0x4"/>
    </TTGlyph>
    <TTGlyph name="Acircumflex" xMin="10" yMin="-35" xMax="452" yMax="956">
      <component glyphName="A" x="0" y="0" flags="0x4"/>
      <component glyphName="circumflex" x="61" y="195" flags="0x4"/>
    </TTGlyph>
    <TTGlyph name="Adieresis" xMin="10" yMin="-35" xMax="452" yMax="957">
      <component glyphName="A" x="0" y="0" flags="0x4"/>
      <component glyphName="dieresis" x="45" y="202" flags="0x4"/>
    </TTGlyph>
    <TTGlyph name="Agrave" xMin="10" yMin="-35" xMax="452" yMax="988">
      <component glyphName="A" x="0" y="0" flags="0x4"/>
      <component glyphName="grave" x="20" y="215" flags="0x4"/>
    </TTGlyph>
    <TTGlyph name="Aring" xMin="10" yMin="-35" xMax="452" yMax="916">
      <contour>
        <pt x="164" y="261" on="1"/>
        <pt x="195" y="263" on="0"/>
        <pt x="260" y="265" on="0"/>
        <pt x="291" y="267" on="1"/>
        <pt x="283" y="306" on="0"/>
        <pt x="273" y="354" on="1"/>
        <pt x="265" y="395" on="0"/>
        <pt x="243" y="505" on="0"/>
        <pt x="232" y="571" on="1"/>
        <pt x="220" y="512" on="0"/>
        <pt x="196" y="401" on="0"/>
        <pt x="186" y="357" on="1"/>
        <pt x="175" y="306" on="0"/>
      </contour>
      <contour>
        <pt x="127" y="890" on="1"/>
        <pt x="132" y="893" on="0"/>
        <pt x="175" y="906" on="0"/>
        <pt x="229" y="915" on="0"/>
        <pt x="283" y="916" on="0"/>
        <pt x="301" y="907" on="1"/>
        <pt x="313" y="901" on="0"/>
        <pt x="335" y="848" on="0"/>
        <pt x="346" y="787" on="0"/>
        <pt x="343" y="734" on="0"/>
        <pt x="331" y="727" on="1"/>
        <pt x="330" y="727" on="0"/>
        <pt x="326" y="725" on="1"/>
        <pt x="333" y="691" on="0"/>
        <pt x="351" y="585" on="0"/>
        <pt x="370" y="462" on="0"/>
        <pt x="387" y="330" on="0"/>
        <pt x="395" y="270" on="1"/>
        <pt x="445" y="270" on="0"/>
        <pt x="450" y="267" on="1"/>
        <pt x="452" y="264" on="0"/>
        <pt x="447" y="230" on="0"/>
        <pt x="438" y="190" on="0"/>
        <pt x="429" y="155" on="0"/>
        <pt x="426" y="152" on="1"/>
        <pt x="416" y="152" on="1"/>
        <pt x="413" y="152" on="0"/>
        <pt x="410" y="153" on="1"/>
        <pt x="415" y="105" on="0"/>
        <pt x="422" y="47" on="0"/>
        <pt x="422" y="44" on="1"/>
        <pt x="422" y="37" on="0"/>
        <pt x="409" y="11" on="0"/>
        <pt x="392" y="-11" on="0"/>
        <pt x="375" y="-24" on="0"/>
        <pt x="372" y="-18" on="1"/>
        <pt x="367" y="-9" on="0"/>
        <pt x="335" y="81" on="0"/>
        <pt x="315" y="159" on="1"/>
        <pt x="295" y="161" on="0"/>
        <pt x="252" y="164" on="0"/>
        <pt x="230" y="167" on="1"/>
        <pt x="208" y="169" on="0"/>
        <pt x="165" y="176" on="0"/>
        <pt x="145" y="179" on="1"/>
        <pt x="135" y="135" on="0"/>
        <pt x="116" y="57" on="0"/>
        <pt x="99" y="-1" on="0"/>
        <pt x="87" y="-35" on="0"/>
        <pt x="84" y="-35" on="1"/>
        <pt x="76" y="-35" on="0"/>
        <pt x="60" y="-15" on="0"/>
        <pt x="47" y="13" on="0"/>
        <pt x="39" y="43" on="0"/>
        <pt x="39" y="53" on="1"/>
        <pt x="41" y="76" on="0"/>
        <pt x="48" y="126" on="0"/>
        <pt x="50" y="147" on="1"/>
        <pt x="53" y="172" on="0"/>
        <pt x="56" y="196" on="1"/>
        <pt x="52" y="196" on="1"/>
        <pt x="48" y="198" on="0"/>
        <pt x="34" y="212" on="0"/>
        <pt x="20" y="228" on="0"/>
        <pt x="10" y="243" on="0"/>
        <pt x="10" y="247" on="1"/>
        <pt x="10" y="249" on="0"/>
        <pt x="39" y="252" on="0"/>
        <pt x="63" y="254" on="1"/>
        <pt x="71" y="314" on="0"/>
        <pt x="89" y="444" on="0"/>
        <pt x="107" y="558" on="0"/>
        <pt x="124" y="644" on="0"/>
        <pt x="130" y="660" on="1"/>
        <pt x="138" y="680" on="0"/>
        <pt x="168" y="712" on="0"/>
        <pt x="187" y="725" on="1"/>
        <pt x="156" y="733" on="0"/>
        <pt x="141" y="745" on="1"/>
        <pt x="129" y="757" on="0"/>
        <pt x="118" y="802" on="0"/>
        <pt x="116" y="849" on="0"/>
        <pt x="122" y="887" on="0"/>
      </contour>
      <contour>
        <pt x="266" y="769" on="1"/>
        <pt x="272" y="770" on="0"/>
        <pt x="276" y="782" on="0"/>
        <pt x="276" y="797" on="0"/>
        <pt x="275" y="814" on="0"/>
        <pt x="275" y="821" on="1"/>
        <pt x="275" y="840" on="0"/>
        <pt x="265" y="861" on="0"/>
        <pt x="259" y="866" on="1"/>
        <pt x="252" y="872" on="0"/>
        <pt x="244" y="873" on="1"/>
        <pt x="222" y="872" on="0"/>
        <pt x="211" y="868" on="1"/>
        <pt x="205" y="866" on="0"/>
        <pt x="202" y="864" on="1"/>
        <pt x="198" y="861" on="0"/>
        <pt x="190" y="841" on="0"/>
        <pt x="184" y="815" on="0"/>
        <pt x="181" y="789" on="0"/>
        <pt x="183" y="782" on="1"/>
        <pt x="184" y="775" on="0"/>
        <pt x="207" y="768" on="0"/>
        <pt x="235" y="766" on="0"/>
        <pt x="261" y="768" on="0"/>
      </contour>
    </TTGlyph>
    <TTGlyph name="Atilde" xMin="10" yMin="-35" xMax="452" yMax="945">
      <component glyphName="A" x="0" y="0" flags="0x4"/>
      <component glyphName="tilde" x="61" y="174" flags="0x4"/>
    </TTGlyph>
    <TTGlyph name="B" xMin="-31" yMin="18" xMax="410" yMax="757">
      <contour>
        <pt x="249" y="392" on="1"/>
        <pt x="272" y="380" on="0"/>
        <pt x="319" y="352" on="0"/>
        <pt x="359" y="327" on="0"/>
        <pt x="386" y="306" on="0"/>
        <pt x="390" y="300" on="1"/>
        <pt x="395" y="292" on="0"/>
        <pt x="395" y="259" on="0"/>
        <pt x="390" y="220" on="0"/>
        <pt x="380" y="183" on="0"/>
        <pt x="374" y="172" on="1"/>
        <pt x="367" y="158" on="0"/>
        <pt x="318" y="114" on="0"/>
        <pt x="258" y="70" on="0"/>
        <pt x="201" y="36" on="0"/>
        <pt x="186" y="32" on="1"/>
        <pt x="175" y="29" on="0"/>
        <pt x="132" y="23" on="0"/>
        <pt x="86" y="19" on="0"/>
        <pt x="49" y="18" on="0"/>
        <pt x="45" y="20" on="1"/>
        <pt x="37" y="25" on="0"/>
        <pt x="26" y="45" on="0"/>
        <pt x="26" y="61" on="1"/>
        <pt x="28" y="96" on="0"/>
        <pt x="34" y="109" on="1"/>
        <pt x="36" y="112" on="0"/>
        <pt x="42" y="113" on="0"/>
        <pt x="56" y="113" on="0"/>
        <pt x="78" y="113" on="0"/>
        <pt x="96" y="114" on="1"/>
        <pt x="91" y="165" on="0"/>
        <pt x="83" y="257" on="0"/>
        <pt x="80" y="292" on="1"/>
        <pt x="76" y="333" on="0"/>
        <pt x="74" y="369" on="1"/>
        <pt x="72" y="404" on="0"/>
        <pt x="68" y="447" on="1"/>
        <pt x="65" y="484" on="0"/>
        <pt x="57" y="582" on="0"/>
        <pt x="52" y="639" on="1"/>
        <pt x="43" y="639" on="0"/>
        <pt x="19" y="639" on="0"/>
        <pt x="-4" y="640" on="0"/>
        <pt x="-21" y="643" on="0"/>
        <pt x="-23" y="646" on="1"/>
        <pt x="-27" y="652" on="0"/>
        <pt x="-31" y="685" on="0"/>
        <pt x="-31" y="701" on="1"/>
        <pt x="-31" y="718" on="0"/>
        <pt x="-19" y="751" on="0"/>
        <pt x="-11" y="756" on="1"/>
        <pt x="-9" y="757" on="0"/>
        <pt x="19" y="756" on="0"/>
        <pt x="59" y="751" on="0"/>
        <pt x="106" y="744" on="0"/>
        <pt x="148" y="737" on="0"/>
        <pt x="180" y="731" on="0"/>
        <pt x="186" y="730" on="1"/>
        <pt x="196" y="728" on="0"/>
        <pt x="253" y="711" on="0"/>
        <pt x="319" y="689" on="0"/>
        <pt x="379" y="662" on="0"/>
        <pt x="391" y="649" on="1"/>
        <pt x="396" y="644" on="0"/>
        <pt x="405" y="598" on="0"/>
        <pt x="410" y="542" on="0"/>
        <pt x="409" y="493" on="0"/>
        <pt x="404" y="485" on="1"/>
        <pt x="400" y="479" on="0"/>
        <pt x="352" y="449" on="0"/>
        <pt x="323" y="433" on="1"/>
        <pt x="290" y="415" on="0"/>
      </contour>
      <contour>
        <pt x="173" y="412" on="1"/>
        <pt x="186" y="418" on="0"/>
        <pt x="231" y="454" on="0"/>
        <pt x="276" y="499" on="0"/>
        <pt x="309" y="546" on="0"/>
        <pt x="309" y="563" on="1"/>
        <pt x="309" y="568" on="0"/>
        <pt x="288" y="584" on="0"/>
        <pt x="252" y="600" on="0"/>
        <pt x="203" y="617" on="0"/>
        <pt x="175" y="624" on="1"/>
      </contour>
      <contour>
        <pt x="172" y="125" on="1"/>
        <pt x="200" y="131" on="0"/>
        <pt x="250" y="157" on="0"/>
        <pt x="288" y="188" on="0"/>
        <pt x="310" y="220" on="0"/>
        <pt x="310" y="233" on="1"/>
        <pt x="310" y="246" on="0"/>
        <pt x="277" y="278" on="0"/>
        <pt x="232" y="310" on="0"/>
        <pt x="186" y="336" on="0"/>
        <pt x="173" y="342" on="1"/>
      </contour>
    </TTGlyph>
    <TTGlyph name="C" xMin="20" yMin="-20" xMax="359" yMax="771">
      <contour>
        <pt x="227" y="657" on="1"/>
        <pt x="225" y="660" on="0"/>
        <pt x="216" y="666" on="0"/>
        <pt x="204" y="670" on="0"/>
        <pt x="193" y="669" on="0"/>
        <pt x="190" y="665" on="1"/>
        <pt x="187" y="660" on="0"/>
        <pt x="172" y="595" on="0"/>
        <pt x="156" y="499" on="0"/>
        <pt x="144" y="381" on="0"/>
        <pt x="144" y="323" on="1"/>
        <pt x="144" y="281" on="0"/>
        <pt x="150" y="190" on="0"/>
        <pt x="159" y="114" on="0"/>
        <pt x="172" y="65" on="0"/>
        <pt x="179" y="65" on="1"/>
        <pt x="186" y="64" on="0"/>
        <pt x="210" y="96" on="0"/>
        <pt x="232" y="137" on="0"/>
        <pt x="251" y="176" on="0"/>
        <pt x="254" y="183" on="1"/>
        <pt x="258" y="194" on="0"/>
        <pt x="272" y="221" on="0"/>
        <pt x="286" y="244" on="0"/>
        <pt x="300" y="259" on="0"/>
        <pt x="305" y="259" on="1"/>
        <pt x="311" y="259" on="0"/>
        <pt x="320" y="235" on="0"/>
        <pt x="325" y="202" on="0"/>
        <pt x="327" y="167" on="0"/>
        <pt x="327" y="156" on="1"/>
        <pt x="327" y="136" on="0"/>
        <pt x="312" y="76" on="0"/>
        <pt x="289" y="20" on="0"/>
        <pt x="262" y="-20" on="0"/>
        <pt x="250" y="-19" on="1"/>
        <pt x="238" y="-18" on="0"/>
        <pt x="185" y="8" on="0"/>
        <pt x="129" y="42" on="0"/>
        <pt x="83" y="76" on="0"/>
        <pt x="79" y="86" on="1"/>
        <pt x="74" y="95" on="0"/>
        <pt x="55" y="164" on="0"/>
        <pt x="35" y="262" on="0"/>
        <pt x="20" y="380" on="0"/>
        <pt x="20" y="440" on="1"/>
        <pt x="20" y="500" on="0"/>
        <pt x="22" y="617" on="0"/>
        <pt x="29" y="709" on="0"/>
        <pt x="45" y="766" on="0"/>
        <pt x="59" y="768" on="1"/>
        <pt x="87" y="771" on="0"/>
        <pt x="153" y="758" on="0"/>
        <pt x="219" y="732" on="0"/>
        <pt x="280" y="699" on="0"/>
        <pt x="328" y="664" on="0"/>
        <pt x="357" y="632" on="0"/>
        <pt x="358" y="621" on="1"/>
        <pt x="359" y="604" on="0"/>
        <pt x="349" y="562" on="0"/>
        <pt x="335" y="523" on="0"/>
        <pt x="320" y="492" on="0"/>
        <pt x="316" y="486" on="1"/>
        <pt x="311" y="479" on="0"/>
        <pt x="297" y="463" on="0"/>
        <pt x="282" y="451" on="0"/>
        <pt x="267" y="446" on="0"/>
        <pt x="261" y="451" on="1"/>
        <pt x="257" y="454" on="0"/>
        <pt x="250" y="486" on="0"/>
        <pt x="243" y="530" on="0"/>
        <pt x="237" y="581" on="0"/>
        <pt x="232" y="625" on="0"/>
        <pt x="228" y="655" on="0"/>
      </contour>
    </TTGlyph>
    <TTGlyph name="Ccedilla" xMin="41" yMin="-257" xMax="380" yMax="771">
      <contour>
        <pt x="295" y="-95" on="1"/>
        <pt x="302" y="-109" on="0"/>
        <pt x="305" y="-157" on="0"/>
        <pt x="298" y="-206" on="0"/>
        <pt x="283" y="-246" on="0"/>
        <pt x="272" y="-252" on="1"/>
        <pt x="261" y="-257" on="0"/>
        <pt x="208" y="-249" on="0"/>
        <pt x="150" y="-232" on="0"/>
        <pt x="102" y="-212" on="0"/>
        <pt x="96" y="-206" on="1"/>
        <pt x="90" y="-199" on="0"/>
        <pt x="79" y="-173" on="0"/>
        <pt x="71" y="-147" on="0"/>
        <pt x="70" y="-126" on="0"/>
        <pt x="74" y="-124" on="1"/>
        <pt x="78" y="-122" on="0"/>
        <pt x="121" y="-141" on="0"/>
        <pt x="172" y="-165" on="0"/>
        <pt x="218" y="-183" on="0"/>
        <pt x="224" y="-180" on="1"/>
        <pt x="227" y="-179" on="0"/>
        <pt x="231" y="-167" on="0"/>
        <pt x="232" y="-154" on="0"/>
        <pt x="230" y="-140" on="0"/>
        <pt x="228" y="-136" on="1"/>
        <pt x="226" y="-132" on="0"/>
        <pt x="209" y="-123" on="0"/>
        <pt x="183" y="-113" on="0"/>
        <pt x="153" y="-103" on="0"/>
        <pt x="139" y="-98" on="1"/>
        <pt x="136" y="-97" on="0"/>
        <pt x="128" y="-86" on="0"/>
        <pt x="122" y="-72" on="0"/>
        <pt x="119" y="-56" on="0"/>
        <pt x="121" y="-50" on="1"/>
        <pt x="123" y="-45" on="0"/>
        <pt x="136" y="-26" on="0"/>
        <pt x="153" y="-3" on="0"/>
        <pt x="170" y="18" on="0"/>
        <pt x="176" y="26" on="1"/>
        <pt x="148" y="43" on="0"/>
        <pt x="103" y="77" on="0"/>
        <pt x="99" y="86" on="1"/>
        <pt x="94" y="95" on="0"/>
        <pt x="75" y="164" on="0"/>
        <pt x="56" y="262" on="0"/>
        <pt x="41" y="381" on="0"/>
        <pt x="41" y="441" on="1"/>
        <pt x="41" y="501" on="0"/>
        <pt x="42" y="617" on="0"/>
        <pt x="50" y="709" on="0"/>
        <pt x="66" y="766" on="0"/>
        <pt x="80" y="768" on="1"/>
        <pt x="108" y="771" on="0"/>
        <pt x="174" y="758" on="0"/>
        <pt x="240" y="732" on="0"/>
        <pt x="301" y="699" on="0"/>
        <pt x="349" y="664" on="0"/>
        <pt x="378" y="632" on="0"/>
        <pt x="379" y="621" on="1"/>
        <pt x="380" y="604" on="0"/>
        <pt x="370" y="561" on="0"/>
        <pt x="356" y="522" on="0"/>
        <pt x="341" y="492" on="0"/>
        <pt x="337" y="486" on="1"/>
        <pt x="332" y="479" on="0"/>
        <pt x="318" y="463" on="0"/>
        <pt x="303" y="451" on="0"/>
        <pt x="288" y="446" on="0"/>
        <pt x="282" y="451" on="1"/>
        <pt x="278" y="454" on="0"/>
        <pt x="270" y="486" on="0"/>
        <pt x="264" y="530" on="0"/>
        <pt x="257" y="581" on="0"/>
        <pt x="253" y="625" on="0"/>
        <pt x="249" y="655" on="0"/>
        <pt x="248" y="657" on="1"/>
        <pt x="246" y="660" on="0"/>
        <pt x="237" y="666" on="0"/>
        <pt x="225" y="670" on="0"/>
        <pt x="214" y="669" on="0"/>
        <pt x="211" y="665" on="1"/>
        <pt x="208" y="660" on="0"/>
        <pt x="193" y="595" on="0"/>
        <pt x="177" y="499" on="0"/>
        <pt x="165" y="381" on="0"/>
        <pt x="165" y="323" on="1"/>
        <pt x="165" y="281" on="0"/>
        <pt x="170" y="190" on="0"/>
        <pt x="180" y="114" on="0"/>
        <pt x="192" y="65" on="0"/>
        <pt x="200" y="65" on="1"/>
        <pt x="207" y="64" on="0"/>
        <pt x="230" y="96" on="0"/>
        <pt x="252" y="137" on="0"/>
        <pt x="271" y="176" on="0"/>
        <pt x="274" y="183" on="1"/>
        <pt x="279" y="194" on="0"/>
        <pt x="292" y="221" on="0"/>
        <pt x="306" y="244" on="0"/>
        <pt x="320" y="259" on="0"/>
        <pt x="326" y="259" on="1"/>
        <pt x="332" y="259" on="0"/>
        <pt x="340" y="235" on="0"/>
        <pt x="345" y="202" on="0"/>
        <pt x="347" y="167" on="0"/>
        <pt x="347" y="156" on="1"/>
        <pt x="347" y="136" on="0"/>
        <pt x="332" y="76" on="0"/>
        <pt x="309" y="20" on="0"/>
        <pt x="282" y="-20" on="0"/>
        <pt x="270" y="-19" on="1"/>
        <pt x="263" y="-18" on="0"/>
        <pt x="241" y="-10" on="0"/>
        <pt x="227" y="-3" on="1"/>
        <pt x="225" y="-8" on="0"/>
        <pt x="215" y="-24" on="0"/>
        <pt x="207" y="-38" on="1"/>
        <pt x="238" y="-52" on="0"/>
        <pt x="287" y="-81" on="0"/>
      </contour>
    </TTGlyph>
    <TTGlyph name="D" xMin="25" yMin="-5" xMax="385" yMax="745">
      <contour>
        <pt x="161" y="743" on="1"/>
        <pt x="181" y="739" on="0"/>
        <pt x="251" y="700" on="0"/>
        <pt x="322" y="651" on="0"/>
        <pt x="376" y="604" on="0"/>
        <pt x="381" y="594" on="1"/>
        <pt x="385" y="584" on="0"/>
        <pt x="383" y="530" on="0"/>
        <pt x="373" y="453" on="0"/>
        <pt x="357" y="361" on="0"/>
        <pt x="337" y="268" on="0"/>
        <pt x="314" y="181" on="0"/>
        <pt x="302" y="148" on="1"/>
        <pt x="297" y="132" on="0"/>
        <pt x="263" y="94" on="0"/>
        <pt x="217" y="57" on="0"/>
        <pt x="166" y="25" on="0"/>
        <pt x="121" y="3" on="0"/>
        <pt x="86" y="-5" on="0"/>
        <pt x="80" y="1" on="1"/>
        <pt x="74" y="7" on="0"/>
        <pt x="61" y="72" on="0"/>
        <pt x="49" y="171" on="0"/>
        <pt x="39" y="294" on="0"/>
        <pt x="31" y="422" on="0"/>
        <pt x="26" y="545" on="0"/>
        <pt x="25" y="644" on="0"/>
        <pt x="29" y="711" on="0"/>
        <pt x="34" y="718" on="1"/>
        <pt x="38" y="723" on="0"/>
        <pt x="71" y="733" on="0"/>
        <pt x="112" y="741" on="0"/>
        <pt x="152" y="745" on="0"/>
      </contour>
      <contour>
        <pt x="155" y="616" on="1"/>
        <pt x="148" y="611" on="0"/>
        <pt x="142" y="560" on="0"/>
        <pt x="139" y="489" on="0"/>
        <pt x="139" y="409" on="0"/>
        <pt x="138" y="376" on="1"/>
        <pt x="136" y="290" on="0"/>
        <pt x="137" y="191" on="0"/>
        <pt x="140" y="142" on="0"/>
        <pt x="146" y="129" on="0"/>
        <pt x="151" y="129" on="1"/>
        <pt x="155" y="129" on="0"/>
        <pt x="174" y="141" on="0"/>
        <pt x="196" y="159" on="0"/>
        <pt x="216" y="180" on="0"/>
        <pt x="220" y="188" on="1"/>
        <pt x="224" y="196" on="0"/>
        <pt x="236" y="243" on="0"/>
        <pt x="248" y="306" on="0"/>
        <pt x="260" y="377" on="0"/>
        <pt x="269" y="442" on="0"/>
        <pt x="274" y="493" on="0"/>
        <pt x="274" y="504" on="1"/>
        <pt x="273" y="525" on="0"/>
        <pt x="241" y="569" on="0"/>
        <pt x="200" y="603" on="0"/>
        <pt x="161" y="621" on="0"/>
      </contour>
    </TTGlyph>
    <TTGlyph name="E" xMin="21" yMin="4" xMax="354" yMax="719">
      <contour>
        <pt x="335" y="573" on="1"/>
        <pt x="331" y="568" on="0"/>
        <pt x="241" y="576" on="0"/>
        <pt x="144" y="585" on="1"/>
        <pt x="144" y="552" on="0"/>
        <pt x="145" y="456" on="0"/>
        <pt x="144" y="401" on="1"/>
        <pt x="219" y="394" on="0"/>
        <pt x="303" y="382" on="0"/>
        <pt x="305" y="380" on="1"/>
        <pt x="309" y="376" on="0"/>
        <pt x="307" y="351" on="0"/>
        <pt x="299" y="321" on="0"/>
        <pt x="287" y="294" on="0"/>
        <pt x="281" y="290" on="1"/>
        <pt x="276" y="288" on="0"/>
        <pt x="207" y="281" on="0"/>
        <pt x="144" y="278" on="1"/>
        <pt x="144" y="235" on="0"/>
        <pt x="143" y="151" on="0"/>
        <pt x="142" y="116" on="1"/>
        <pt x="239" y="115" on="0"/>
        <pt x="328" y="110" on="0"/>
        <pt x="332" y="106" on="1"/>
        <pt x="336" y="101" on="0"/>
        <pt x="329" y="73" on="0"/>
        <pt x="314" y="42" on="0"/>
        <pt x="297" y="12" on="0"/>
        <pt x="292" y="6" on="1"/>
        <pt x="290" y="4" on="0"/>
        <pt x="246" y="5" on="0"/>
        <pt x="192" y="9" on="0"/>
        <pt x="142" y="14" on="0"/>
        <pt x="134" y="16" on="1"/>
        <pt x="119" y="21" on="0"/>
        <pt x="85" y="44" on="0"/>
        <pt x="75" y="62" on="1"/>
        <pt x="73" y="67" on="0"/>
        <pt x="64" y="124" on="0"/>
        <pt x="54" y="212" on="0"/>
        <pt x="44" y="322" on="0"/>
        <pt x="34" y="436" on="0"/>
        <pt x="26" y="546" on="0"/>
        <pt x="21" y="635" on="0"/>
        <pt x="21" y="694" on="0"/>
        <pt x="24" y="700" on="1"/>
        <pt x="27" y="708" on="0"/>
        <pt x="77" y="716" on="0"/>
        <pt x="147" y="719" on="0"/>
        <pt x="228" y="717" on="0"/>
        <pt x="298" y="712" on="0"/>
        <pt x="346" y="705" on="0"/>
        <pt x="349" y="702" on="1"/>
        <pt x="353" y="697" on="0"/>
        <pt x="354" y="661" on="0"/>
        <pt x="349" y="618" on="0"/>
        <pt x="340" y="579" on="0"/>
      </contour>
    </TTGlyph>
    <TTGlyph name="Eacute" xMin="21" yMin="4" xMax="354" yMax="947">
      <component glyphName="E" x="0" y="0" flags="0x204"/>
      <component glyphName="acute" x="31" y="174" flags="0x4"/>
    </TTGlyph>
    <TTGlyph name="Ecircumflex" xMin="21" yMin="4" xMax="354" yMax="945">
      <component glyphName="E" x="0" y="0" flags="0x204"/>
      <component glyphName="circumflex" x="-9" y="184" flags="0x4"/>
    </TTGlyph>
    <TTGlyph name="Edieresis" xMin="21" yMin="4" xMax="354" yMax="916">
      <component glyphName="E" x="0" y="0" flags="0x204"/>
      <component glyphName="dieresis" x="-5" y="161" flags="0x4"/>
    </TTGlyph>
    <TTGlyph name="Egrave" xMin="21" yMin="4" xMax="354" yMax="937">
      <component glyphName="E" x="0" y="0" flags="0x204"/>
      <component glyphName="grave" x="-19" y="164" flags="0x4"/>
    </TTGlyph>
    <TTGlyph name="Eth" xMin="-30" yMin="-5" xMax="390" yMax="745">
      <contour>
        <pt x="36" y="427" on="1"/>
        <pt x="33" y="481" on="0"/>
        <pt x="31" y="581" on="0"/>
        <pt x="31" y="660" on="0"/>
        <pt x="35" y="712" on="0"/>
        <pt x="40" y="718" on="1"/>
        <pt x="43" y="723" on="0"/>
        <pt x="77" y="733" on="0"/>
        <pt x="117" y="741" on="0"/>
        <pt x="157" y="745" on="0"/>
        <pt x="166" y="743" on="1"/>
        <pt x="186" y="739" on="0"/>
        <pt x="256" y="700" on="0"/>
        <pt x="327" y="651" on="0"/>
        <pt x="381" y="604" on="0"/>
        <pt x="386" y="594" on="1"/>
        <pt x="390" y="584" on="0"/>
        <pt x="388" y="530" on="0"/>
        <pt x="378" y="453" on="0"/>
        <pt x="362" y="361" on="0"/>
        <pt x="342" y="268" on="0"/>
        <pt x="319" y="182" on="0"/>
        <pt x="307" y="148" on="1"/>
        <pt x="301" y="132" on="0"/>
        <pt x="268" y="94" on="0"/>
        <pt x="223" y="57" on="0"/>
        <pt x="172" y="25" on="0"/>
        <pt x="126" y="3" on="0"/>
        <pt x="91" y="-5" on="0"/>
        <pt x="85" y="1" on="1"/>
        <pt x="79" y="7" on="0"/>
        <pt x="67" y="71" on="0"/>
        <pt x="55" y="169" on="0"/>
        <pt x="44" y="291" on="0"/>
        <pt x="40" y="355" on="1"/>
        <pt x="16" y="357" on="0"/>
        <pt x="-17" y="361" on="0"/>
        <pt x="-22" y="365" on="1"/>
        <pt x="-30" y="373" on="0"/>
        <pt x="-29" y="402" on="0"/>
        <pt x="-27" y="410" on="1"/>
        <pt x="-26" y="414" on="0"/>
        <pt x="10" y="423" on="0"/>
      </contour>
      <contour>
        <pt x="198" y="355" on="1"/>
        <pt x="194" y="353" on="0"/>
        <pt x="164" y="351" on="0"/>
        <pt x="143" y="351" on="1"/>
        <pt x="141" y="274" on="0"/>
        <pt x="142" y="185" on="0"/>
        <pt x="146" y="140" on="0"/>
        <pt x="152" y="129" on="0"/>
        <pt x="156" y="129" on="1"/>
        <pt x="160" y="129" on="0"/>
        <pt x="179" y="141" on="0"/>
        <pt x="201" y="159" on="0"/>
        <pt x="221" y="180" on="0"/>
        <pt x="226" y="188" on="1"/>
        <pt x="230" y="196" on="0"/>
        <pt x="241" y="243" on="0"/>
        <pt x="253" y="306" on="0"/>
        <pt x="265" y="377" on="0"/>
        <pt x="275" y="442" on="0"/>
        <pt x="280" y="493" on="0"/>
        <pt x="280" y="504" on="1"/>
        <pt x="279" y="525" on="0"/>
        <pt x="246" y="569" on="0"/>
        <pt x="205" y="603" on="0"/>
        <pt x="166" y="621" on="0"/>
        <pt x="160" y="616" on="1"/>
        <pt x="155" y="612" on="0"/>
        <pt x="149" y="578" on="0"/>
        <pt x="146" y="529" on="0"/>
        <pt x="144" y="469" on="0"/>
        <pt x="144" y="439" on="1"/>
        <pt x="179" y="442" on="0"/>
        <pt x="187" y="439" on="1"/>
        <pt x="195" y="437" on="0"/>
        <pt x="206" y="413" on="0"/>
        <pt x="209" y="384" on="0"/>
        <pt x="204" y="359" on="0"/>
      </contour>
    </TTGlyph>
    <TTGlyph name="Euro" xMin="-5" yMin="58" xMax="329" yMax="710">
      <contour>
        <pt x="284" y="288" on="1"/>
        <pt x="289" y="288" on="0"/>
        <pt x="296" y="268" on="0"/>
        <pt x="300" y="241" on="0"/>
        <pt x="302" y="212" on="0"/>
        <pt x="302" y="203" on="1"/>
        <pt x="302" y="187" on="0"/>
        <pt x="289" y="138" on="0"/>
        <pt x="270" y="91" on="0"/>
        <pt x="247" y="58" on="0"/>
        <pt x="238" y="59" on="1"/>
        <pt x="229" y="59" on="0"/>
        <pt x="185" y="81" on="0"/>
        <pt x="139" y="109" on="0"/>
        <pt x="101" y="137" on="0"/>
        <pt x="97" y="145" on="1"/>
        <pt x="93" y="153" on="0"/>
        <pt x="76" y="218" on="0"/>
        <pt x="68" y="263" on="1"/>
        <pt x="43" y="265" on="0"/>
        <pt x="7" y="269" on="0"/>
        <pt x="3" y="271" on="1"/>
        <pt x="-5" y="278" on="0"/>
        <pt x="-5" y="302" on="0"/>
        <pt x="-3" y="308" on="1"/>
        <pt x="-1" y="311" on="0"/>
        <pt x="33" y="318" on="0"/>
        <pt x="57" y="322" on="1"/>
        <pt x="56" y="331" on="0"/>
        <pt x="54" y="349" on="0"/>
        <pt x="53" y="359" on="1"/>
        <pt x="34" y="360" on="0"/>
        <pt x="7" y="363" on="0"/>
        <pt x="4" y="366" on="1"/>
        <pt x="-5" y="372" on="0"/>
        <pt x="-4" y="396" on="0"/>
        <pt x="-2" y="402" on="1"/>
        <pt x="-1" y="405" on="0"/>
        <pt x="27" y="411" on="0"/>
        <pt x="50" y="414" on="1"/>
        <pt x="49" y="420" on="0"/>
        <pt x="49" y="432" on="0"/>
        <pt x="49" y="437" on="1"/>
        <pt x="49" y="486" on="0"/>
        <pt x="50" y="583" on="0"/>
        <pt x="57" y="659" on="0"/>
        <pt x="70" y="707" on="0"/>
        <pt x="82" y="708" on="1"/>
        <pt x="105" y="710" on="0"/>
        <pt x="159" y="700" on="0"/>
        <pt x="213" y="679" on="0"/>
        <pt x="264" y="651" on="0"/>
        <pt x="303" y="622" on="0"/>
        <pt x="327" y="595" on="0"/>
        <pt x="328" y="586" on="1"/>
        <pt x="329" y="572" on="0"/>
        <pt x="321" y="540" on="0"/>
        <pt x="309" y="510" on="0"/>
        <pt x="296" y="487" on="0"/>
        <pt x="293" y="482" on="1"/>
        <pt x="289" y="476" on="0"/>
        <pt x="278" y="463" on="0"/>
        <pt x="265" y="453" on="0"/>
        <pt x="252" y="449" on="0"/>
        <pt x="248" y="453" on="1"/>
        <pt x="244" y="455" on="0"/>
        <pt x="238" y="480" on="0"/>
        <pt x="232" y="515" on="0"/>
        <pt x="227" y="556" on="0"/>
        <pt x="224" y="590" on="0"/>
        <pt x="221" y="614" on="0"/>
        <pt x="220" y="615" on="1"/>
        <pt x="217" y="620" on="0"/>
        <pt x="194" y="630" on="0"/>
        <pt x="189" y="622" on="1"/>
        <pt x="187" y="619" on="0"/>
        <pt x="179" y="584" on="0"/>
        <pt x="169" y="531" on="0"/>
        <pt x="159" y="463" on="0"/>
        <pt x="156" y="426" on="1"/>
        <pt x="185" y="428" on="0"/>
        <pt x="229" y="430" on="0"/>
        <pt x="236" y="428" on="1"/>
        <pt x="244" y="426" on="0"/>
        <pt x="250" y="407" on="0"/>
        <pt x="247" y="384" on="0"/>
        <pt x="236" y="363" on="0"/>
        <pt x="228" y="360" on="1"/>
        <pt x="223" y="358" on="0"/>
        <pt x="180" y="356" on="0"/>
        <pt x="152" y="356" on="1"/>
        <pt x="152" y="340" on="1"/>
        <pt x="152" y="331" on="1"/>
        <pt x="175" y="333" on="0"/>
        <pt x="210" y="334" on="0"/>
        <pt x="215" y="332" on="1"/>
        <pt x="223" y="330" on="0"/>
        <pt x="228" y="310" on="0"/>
        <pt x="225" y="287" on="0"/>
        <pt x="215" y="267" on="0"/>
        <pt x="208" y="264" on="1"/>
        <pt x="203" y="262" on="0"/>
        <pt x="175" y="261" on="0"/>
        <pt x="155" y="261" on="1"/>
        <pt x="156" y="235" on="0"/>
        <pt x="162" y="187" on="0"/>
        <pt x="168" y="150" on="0"/>
        <pt x="176" y="128" on="0"/>
        <pt x="180" y="128" on="1"/>
        <pt x="186" y="128" on="0"/>
        <pt x="205" y="153" on="0"/>
        <pt x="224" y="187" on="0"/>
        <pt x="239" y="219" on="0"/>
        <pt x="242" y="225" on="1"/>
        <pt x="246" y="234" on="0"/>
        <pt x="256" y="256" on="0"/>
        <pt x="268" y="275" on="0"/>
        <pt x="279" y="288" on="0"/>
      </contour>
    </TTGlyph>
    <TTGlyph name="F" xMin="25" yMin="-3" xMax="354" yMax="720">
      <contour>
        <pt x="139" y="312" on="1"/>
        <pt x="139" y="299" on="0"/>
        <pt x="138" y="243" on="0"/>
        <pt x="136" y="173" on="0"/>
        <pt x="133" y="98" on="0"/>
        <pt x="127" y="37" on="0"/>
        <pt x="120" y="-3" on="0"/>
        <pt x="115" y="-3" on="1"/>
        <pt x="100" y="-3" on="0"/>
        <pt x="73" y="40" on="0"/>
        <pt x="59" y="65" on="1"/>
        <pt x="56" y="71" on="0"/>
        <pt x="49" y="130" on="0"/>
        <pt x="42" y="220" on="0"/>
        <pt x="36" y="330" on="0"/>
        <pt x="30" y="444" on="0"/>
        <pt x="27" y="554" on="0"/>
        <pt x="25" y="642" on="0"/>
        <pt x="27" y="701" on="0"/>
        <pt x="30" y="706" on="1"/>
        <pt x="34" y="713" on="0"/>
        <pt x="82" y="720" on="0"/>
        <pt x="151" y="720" on="0"/>
        <pt x="231" y="716" on="0"/>
        <pt x="300" y="709" on="0"/>
        <pt x="347" y="701" on="0"/>
        <pt x="350" y="698" on="1"/>
        <pt x="354" y="694" on="0"/>
        <pt x="349" y="659" on="0"/>
        <pt x="338" y="618" on="0"/>
        <pt x="323" y="582" on="0"/>
        <pt x="318" y="577" on="1"/>
        <pt x="313" y="572" on="0"/>
        <pt x="230" y="584" on="0"/>
        <pt x="139" y="592" on="1"/>
        <pt x="139" y="425" on="1"/>
        <pt x="209" y="419" on="0"/>
        <pt x="288" y="409" on="0"/>
        <pt x="290" y="407" on="1"/>
        <pt x="294" y="403" on="0"/>
        <pt x="292" y="379" on="0"/>
        <pt x="284" y="352" on="0"/>
        <pt x="272" y="329" on="0"/>
        <pt x="266" y="325" on="1"/>
        <pt x="263" y="323" on="0"/>
        <pt x="198" y="315" on="0"/>
      </contour>
    </TTGlyph>
    <TTGlyph name="G" xMin="36" yMin="-35" xMax="382" yMax="758">
      <contour>
        <pt x="370" y="310" on="1"/>
        <pt x="376" y="305" on="0"/>
        <pt x="382" y="273" on="0"/>
        <pt x="382" y="235" on="0"/>
        <pt x="376" y="203" on="0"/>
        <pt x="370" y="200" on="1"/>
        <pt x="367" y="198" on="0"/>
        <pt x="344" y="200" on="0"/>
        <pt x="329" y="203" on="1"/>
        <pt x="331" y="186" on="0"/>
        <pt x="333" y="152" on="0"/>
        <pt x="333" y="141" on="1"/>
        <pt x="333" y="122" on="0"/>
        <pt x="318" y="62" on="0"/>
        <pt x="294" y="5" on="0"/>
        <pt x="267" y="-35" on="0"/>
        <pt x="255" y="-34" on="1"/>
        <pt x="247" y="-34" on="0"/>
        <pt x="218" y="-21" on="0"/>
        <pt x="182" y="-2" on="0"/>
        <pt x="143" y="22" on="0"/>
        <pt x="111" y="45" on="0"/>
        <pt x="88" y="65" on="0"/>
        <pt x="85" y="71" on="1"/>
        <pt x="80" y="80" on="0"/>
        <pt x="64" y="148" on="0"/>
        <pt x="48" y="247" on="0"/>
        <pt x="36" y="366" on="0"/>
        <pt x="36" y="426" on="1"/>
        <pt x="36" y="486" on="0"/>
        <pt x="40" y="602" on="0"/>
        <pt x="51" y="695" on="0"/>
        <pt x="70" y="752" on="0"/>
        <pt x="84" y="754" on="1"/>
        <pt x="126" y="758" on="0"/>
        <pt x="223" y="726" on="0"/>
        <pt x="307" y="676" on="0"/>
        <pt x="363" y="622" on="0"/>
        <pt x="365" y="605" on="1"/>
        <pt x="366" y="588" on="0"/>
        <pt x="356" y="547" on="0"/>
        <pt x="342" y="508" on="0"/>
        <pt x="327" y="477" on="0"/>
        <pt x="323" y="471" on="1"/>
        <pt x="318" y="464" on="0"/>
        <pt x="303" y="448" on="0"/>
        <pt x="288" y="436" on="0"/>
        <pt x="273" y="431" on="0"/>
        <pt x="267" y="435" on="1"/>
        <pt x="263" y="438" on="0"/>
        <pt x="256" y="470" on="0"/>
        <pt x="249" y="515" on="0"/>
        <pt x="243" y="566" on="0"/>
        <pt x="238" y="610" on="0"/>
        <pt x="234" y="640" on="0"/>
        <pt x="233" y="642" on="1"/>
        <pt x="231" y="645" on="0"/>
        <pt x="222" y="651" on="0"/>
        <pt x="210" y="655" on="0"/>
        <pt x="200" y="654" on="0"/>
        <pt x="197" y="649" on="1"/>
        <pt x="194" y="644" on="0"/>
        <pt x="178" y="580" on="0"/>
        <pt x="163" y="484" on="0"/>
        <pt x="151" y="367" on="0"/>
        <pt x="151" y="308" on="1"/>
        <pt x="151" y="266" on="0"/>
        <pt x="156" y="175" on="0"/>
        <pt x="165" y="100" on="0"/>
        <pt x="178" y="50" on="0"/>
        <pt x="185" y="50" on="1"/>
        <pt x="192" y="49" on="0"/>
        <pt x="216" y="80" on="0"/>
        <pt x="238" y="121" on="0"/>
        <pt x="257" y="160" on="0"/>
        <pt x="260" y="168" on="1"/>
        <pt x="265" y="179" on="0"/>
        <pt x="276" y="202" on="0"/>
        <pt x="283" y="213" on="1"/>
        <pt x="267" y="217" on="0"/>
        <pt x="236" y="227" on="0"/>
        <pt x="210" y="236" on="0"/>
        <pt x="193" y="245" on="0"/>
        <pt x="191" y="248" on="1"/>
        <pt x="188" y="253" on="0"/>
        <pt x="186" y="270" on="0"/>
        <pt x="187" y="287" on="0"/>
        <pt x="190" y="302" on="0"/>
        <pt x="191" y="307" on="1"/>
        <pt x="193" y="314" on="0"/>
        <pt x="244" y="320" on="0"/>
        <pt x="307" y="320" on="0"/>
        <pt x="363" y="315" on="0"/>
      </contour>
    </TTGlyph>
    <TTGlyph name="H" xMin="-5" yMin="-36" xMax="433" yMax="751">
      <contour>
        <pt x="431" y="279" on="1"/>
        <pt x="433" y="275" on="0"/>
        <pt x="429" y="240" on="0"/>
        <pt x="420" y="200" on="0"/>
        <pt x="411" y="165" on="0"/>
        <pt x="409" y="162" on="1"/>
        <pt x="404" y="162" on="0"/>
        <pt x="393" y="163" on="0"/>
        <pt x="388" y="163" on="1"/>
        <pt x="383" y="163" on="0"/>
        <pt x="377" y="164" on="1"/>
        <pt x="374" y="122" on="0"/>
        <pt x="366" y="49" on="0"/>
        <pt x="358" y="-3" on="0"/>
        <pt x="352" y="-34" on="0"/>
        <pt x="349" y="-34" on="1"/>
        <pt x="341" y="-36" on="0"/>
        <pt x="322" y="-19" on="0"/>
        <pt x="304" y="5" on="0"/>
        <pt x="290" y="32" on="0"/>
        <pt x="289" y="42" on="1"/>
        <pt x="288" y="62" on="0"/>
        <pt x="287" y="107" on="0"/>
        <pt x="286" y="126" on="1"/>
        <pt x="285" y="148" on="0"/>
        <pt x="285" y="170" on="1"/>
        <pt x="266" y="172" on="0"/>
        <pt x="230" y="175" on="0"/>
        <pt x="212" y="177" on="1"/>
        <pt x="203" y="179" on="0"/>
        <pt x="185" y="180" on="0"/>
        <pt x="177" y="182" on="1"/>
        <pt x="175" y="136" on="0"/>
        <pt x="171" y="58" on="0"/>
        <pt x="166" y="0" on="0"/>
        <pt x="161" y="-33" on="0"/>
        <pt x="158" y="-34" on="1"/>
        <pt x="150" y="-35" on="0"/>
        <pt x="128" y="-19" on="0"/>
        <pt x="109" y="5" on="0"/>
        <pt x="94" y="31" on="0"/>
        <pt x="93" y="41" on="1"/>
        <pt x="91" y="67" on="0"/>
        <pt x="87" y="122" on="0"/>
        <pt x="85" y="145" on="1"/>
        <pt x="83" y="172" on="0"/>
        <pt x="81" y="198" on="1"/>
        <pt x="73" y="199" on="0"/>
        <pt x="65" y="201" on="1"/>
        <pt x="58" y="203" on="0"/>
        <pt x="43" y="205" on="0"/>
        <pt x="37" y="207" on="1"/>
        <pt x="33" y="209" on="0"/>
        <pt x="19" y="222" on="0"/>
        <pt x="5" y="238" on="0"/>
        <pt x="-5" y="253" on="0"/>
        <pt x="-5" y="257" on="1"/>
        <pt x="-5" y="259" on="0"/>
        <pt x="40" y="265" on="0"/>
        <pt x="77" y="267" on="1"/>
        <pt x="73" y="325" on="0"/>
        <pt x="66" y="446" on="0"/>
        <pt x="62" y="551" on="0"/>
        <pt x="62" y="630" on="0"/>
        <pt x="65" y="645" on="1"/>
        <pt x="69" y="666" on="0"/>
        <pt x="100" y="705" on="0"/>
        <pt x="136" y="735" on="0"/>
        <pt x="168" y="751" on="0"/>
        <pt x="173" y="748" on="1"/>
        <pt x="176" y="745" on="0"/>
        <pt x="181" y="703" on="0"/>
        <pt x="184" y="633" on="0"/>
        <pt x="184" y="541" on="0"/>
        <pt x="184" y="438" on="0"/>
        <pt x="181" y="327" on="0"/>
        <pt x="180" y="273" on="1"/>
        <pt x="206" y="275" on="0"/>
        <pt x="257" y="277" on="0"/>
        <pt x="282" y="279" on="1"/>
        <pt x="281" y="336" on="0"/>
        <pt x="280" y="454" on="0"/>
        <pt x="280" y="556" on="0"/>
        <pt x="284" y="632" on="0"/>
        <pt x="287" y="647" on="1"/>
        <pt x="292" y="668" on="0"/>
        <pt x="325" y="706" on="0"/>
        <pt x="362" y="735" on="0"/>
        <pt x="395" y="749" on="0"/>
        <pt x="400" y="745" on="1"/>
        <pt x="405" y="742" on="0"/>
        <pt x="407" y="655" on="0"/>
        <pt x="402" y="523" on="0"/>
        <pt x="393" y="360" on="0"/>
        <pt x="387" y="281" on="1"/>
        <pt x="427" y="281" on="0"/>
      </contour>
    </TTGlyph>
    <TTGlyph name="I" xMin="-41" yMin="-30" xMax="310" yMax="736">
      <contour>
        <pt x="284" y="622" on="1"/>
        <pt x="267" y="621" on="0"/>
        <pt x="234" y="622" on="0"/>
        <pt x="220" y="622" on="1"/>
        <pt x="204" y="622" on="0"/>
        <pt x="190" y="623" on="1"/>
        <pt x="192" y="570" on="0"/>
        <pt x="191" y="429" on="0"/>
        <pt x="188" y="281" on="0"/>
        <pt x="183" y="140" on="0"/>
        <pt x="180" y="86" on="1"/>
        <pt x="218" y="87" on="0"/>
        <pt x="276" y="85" on="0"/>
        <pt x="278" y="83" on="1"/>
        <pt x="280" y="80" on="0"/>
        <pt x="276" y="47" on="0"/>
        <pt x="268" y="8" on="0"/>
        <pt x="260" y="-25" on="0"/>
        <pt x="258" y="-29" on="1"/>
        <pt x="230" y="-30" on="0"/>
        <pt x="183" y="-29" on="0"/>
        <pt x="166" y="-27" on="1"/>
        <pt x="146" y="-26" on="0"/>
        <pt x="130" y="-24" on="1"/>
        <pt x="114" y="-21" on="0"/>
        <pt x="96" y="-17" on="1"/>
        <pt x="81" y="-13" on="0"/>
        <pt x="42" y="-1" on="0"/>
        <pt x="22" y="8" on="1"/>
        <pt x="18" y="10" on="0"/>
        <pt x="7" y="28" on="0"/>
        <pt x="-4" y="49" on="0"/>
        <pt x="-11" y="69" on="0"/>
        <pt x="-11" y="73" on="1"/>
        <pt x="-11" y="74" on="0"/>
        <pt x="7" y="77" on="0"/>
        <pt x="39" y="80" on="0"/>
        <pt x="79" y="83" on="0"/>
        <pt x="102" y="84" on="1"/>
        <pt x="100" y="113" on="0"/>
        <pt x="93" y="208" on="0"/>
        <pt x="86" y="319" on="0"/>
        <pt x="79" y="436" on="0"/>
        <pt x="75" y="537" on="0"/>
        <pt x="75" y="613" on="0"/>
        <pt x="78" y="628" on="1"/>
        <pt x="79" y="630" on="0"/>
        <pt x="79" y="633" on="0"/>
        <pt x="80" y="635" on="1"/>
        <pt x="52" y="642" on="1"/>
        <pt x="40" y="645" on="0"/>
        <pt x="12" y="653" on="0"/>
        <pt x="-2" y="658" on="1"/>
        <pt x="-6" y="660" on="0"/>
        <pt x="-19" y="678" on="0"/>
        <pt x="-32" y="700" on="0"/>
        <pt x="-41" y="719" on="0"/>
        <pt x="-41" y="723" on="1"/>
        <pt x="-41" y="725" on="0"/>
        <pt x="10" y="730" on="0"/>
        <pt x="86" y="734" on="0"/>
        <pt x="175" y="736" on="0"/>
        <pt x="252" y="736" on="0"/>
        <pt x="305" y="735" on="0"/>
        <pt x="307" y="733" on="1"/>
        <pt x="310" y="730" on="0"/>
        <pt x="305" y="697" on="0"/>
        <pt x="296" y="658" on="0"/>
        <pt x="287" y="625" on="0"/>
      </contour>
    </TTGlyph>
    <TTGlyph name="Iacute" xMin="-41" yMin="-30" xMax="310" yMax="957">
      <component glyphName="I" x="0" y="0" flags="0x204"/>
      <component glyphName="acute" x="-9" y="184" flags="0x4"/>
    </TTGlyph>
    <TTGlyph name="Icircumflex" xMin="-41" yMin="-30" xMax="310" yMax="956">
      <component glyphName="I" x="0" y="0" flags="0x204"/>
      <component glyphName="circumflex" x="-60" y="195" flags="0x4"/>
    </TTGlyph>
    <TTGlyph name="Idieresis" xMin="-41" yMin="-30" xMax="310" yMax="936">
      <component glyphName="I" x="0" y="0" flags="0x204"/>
      <component glyphName="dieresis" x="-56" y="181" flags="0x4"/>
    </TTGlyph>
    <TTGlyph name="Igrave" xMin="-41" yMin="-30" xMax="310" yMax="957">
      <component glyphName="I" x="0" y="0" flags="0x204"/>
      <component glyphName="grave" x="-71" y="184" flags="0x4"/>
    </TTGlyph>
    <TTGlyph name="J" xMin="-20" yMin="-17" xMax="302" yMax="757">
      <contour>
        <pt x="-20" y="203" on="1"/>
        <pt x="-20" y="211" on="0"/>
        <pt x="-9" y="243" on="0"/>
        <pt x="6" y="275" on="0"/>
        <pt x="21" y="297" on="0"/>
        <pt x="25" y="294" on="1"/>
        <pt x="28" y="292" on="0"/>
        <pt x="48" y="262" on="0"/>
        <pt x="75" y="221" on="0"/>
        <pt x="107" y="174" on="0"/>
        <pt x="136" y="136" on="0"/>
        <pt x="158" y="113" on="0"/>
        <pt x="163" y="116" on="1"/>
        <pt x="170" y="120" on="0"/>
        <pt x="183" y="194" on="0"/>
        <pt x="193" y="302" on="0"/>
        <pt x="201" y="427" on="0"/>
        <pt x="207" y="538" on="0"/>
        <pt x="210" y="619" on="0"/>
        <pt x="211" y="629" on="1"/>
        <pt x="211" y="638" on="0"/>
        <pt x="232" y="683" on="0"/>
        <pt x="260" y="727" on="0"/>
        <pt x="287" y="757" on="0"/>
        <pt x="294" y="752" on="1"/>
        <pt x="297" y="749" on="0"/>
        <pt x="300" y="686" on="0"/>
        <pt x="302" y="586" on="0"/>
        <pt x="300" y="459" on="0"/>
        <pt x="297" y="327" on="0"/>
        <pt x="291" y="198" on="0"/>
        <pt x="284" y="95" on="0"/>
        <pt x="274" y="26" on="0"/>
        <pt x="268" y="19" on="1"/>
        <pt x="264" y="14" on="0"/>
        <pt x="224" y="0" on="0"/>
        <pt x="177" y="-11" on="0"/>
        <pt x="133" y="-17" on="0"/>
        <pt x="124" y="-14" on="1"/>
        <pt x="104" y="-8" on="0"/>
        <pt x="55" y="55" on="0"/>
        <pt x="10" y="129" on="0"/>
        <pt x="-20" y="194" on="0"/>
      </contour>
    </TTGlyph>
    <TTGlyph name="K" xMin="30" yMin="-38" xMax="419" yMax="753">
      <contour>
        <pt x="244" y="367" on="1"/>
        <pt x="253" y="349" on="0"/>
        <pt x="287" y="277" on="0"/>
        <pt x="328" y="190" on="0"/>
        <pt x="369" y="99" on="0"/>
        <pt x="401" y="22" on="0"/>
        <pt x="419" y="-30" on="0"/>
        <pt x="416" y="-33" on="1"/>
        <pt x="410" y="-38" on="0"/>
        <pt x="387" y="-38" on="0"/>
        <pt x="364" y="-32" on="0"/>
        <pt x="343" y="-22" on="0"/>
        <pt x="339" y="-16" on="1"/>
        <pt x="299" y="44" on="0"/>
        <pt x="237" y="144" on="0"/>
        <pt x="214" y="181" on="1"/>
        <pt x="188" y="223" on="0"/>
        <pt x="168" y="258" on="1"/>
        <pt x="161" y="247" on="0"/>
        <pt x="146" y="226" on="0"/>
        <pt x="139" y="217" on="1"/>
        <pt x="136" y="166" on="0"/>
        <pt x="130" y="76" on="0"/>
        <pt x="124" y="8" on="0"/>
        <pt x="117" y="-31" on="0"/>
        <pt x="114" y="-31" on="1"/>
        <pt x="106" y="-33" on="0"/>
        <pt x="85" y="-17" on="0"/>
        <pt x="66" y="7" on="0"/>
        <pt x="52" y="34" on="0"/>
        <pt x="50" y="44" on="1"/>
        <pt x="44" y="144" on="0"/>
        <pt x="36" y="302" on="0"/>
        <pt x="32" y="424" on="0"/>
        <pt x="30" y="514" on="0"/>
        <pt x="30" y="546" on="1"/>
        <pt x="30" y="621" on="0"/>
        <pt x="35" y="649" on="1"/>
        <pt x="39" y="670" on="0"/>
        <pt x="71" y="709" on="0"/>
        <pt x="108" y="738" on="0"/>
        <pt x="140" y="753" on="0"/>
        <pt x="145" y="750" on="1"/>
        <pt x="149" y="747" on="0"/>
        <pt x="153" y="678" on="0"/>
        <pt x="151" y="572" on="0"/>
        <pt x="147" y="441" on="0"/>
        <pt x="144" y="375" on="1"/>
        <pt x="179" y="443" on="0"/>
        <pt x="252" y="575" on="0"/>
        <pt x="314" y="679" on="0"/>
        <pt x="358" y="744" on="0"/>
        <pt x="364" y="744" on="1"/>
        <pt x="370" y="744" on="0"/>
        <pt x="388" y="719" on="0"/>
        <pt x="403" y="679" on="0"/>
        <pt x="409" y="633" on="0"/>
        <pt x="402" y="612" on="1"/>
        <pt x="398" y="600" on="0"/>
        <pt x="368" y="549" on="0"/>
        <pt x="324" y="483" on="0"/>
        <pt x="271" y="406" on="0"/>
      </contour>
    </TTGlyph>
    <TTGlyph name="L" xMin="41" yMin="-37" xMax="360" yMax="730">
      <contour>
        <pt x="43" y="-31" on="1"/>
        <pt x="41" y="-26" on="0"/>
        <pt x="41" y="36" on="0"/>
        <pt x="42" y="130" on="0"/>
        <pt x="45" y="247" on="0"/>
        <pt x="48" y="368" on="0"/>
        <pt x="52" y="483" on="0"/>
        <pt x="55" y="573" on="0"/>
        <pt x="57" y="630" on="0"/>
        <pt x="58" y="632" on="1"/>
        <pt x="59" y="636" on="0"/>
        <pt x="75" y="668" on="0"/>
        <pt x="96" y="703" on="0"/>
        <pt x="118" y="730" on="0"/>
        <pt x="126" y="729" on="1"/>
        <pt x="129" y="728" on="0"/>
        <pt x="134" y="651" on="0"/>
        <pt x="139" y="531" on="0"/>
        <pt x="142" y="386" on="0"/>
        <pt x="145" y="249" on="0"/>
        <pt x="147" y="138" on="0"/>
        <pt x="148" y="112" on="1"/>
        <pt x="180" y="109" on="0"/>
        <pt x="245" y="105" on="0"/>
        <pt x="297" y="100" on="0"/>
        <pt x="330" y="96" on="0"/>
        <pt x="331" y="95" on="1"/>
        <pt x="334" y="91" on="0"/>
        <pt x="345" y="62" on="0"/>
        <pt x="355" y="29" on="0"/>
        <pt x="360" y="1" on="0"/>
        <pt x="356" y="-2" on="1"/>
        <pt x="241" y="-23" on="0"/>
        <pt x="115" y="-37" on="0"/>
        <pt x="85" y="-37" on="1"/>
        <pt x="50" y="-37" on="0"/>
      </contour>
    </TTGlyph>
    <TTGlyph name="Lslash" xMin="-29" yMin="-37" xMax="360" yMax="730">
      <contour>
        <pt x="217" y="370" on="1"/>
        <pt x="214" y="366" on="0"/>
        <pt x="172" y="343" on="0"/>
        <pt x="143" y="329" on="1"/>
        <pt x="144" y="293" on="0"/>
        <pt x="145" y="226" on="0"/>
        <pt x="147" y="169" on="0"/>
        <pt x="148" y="125" on="0"/>
        <pt x="148" y="112" on="1"/>
        <pt x="180" y="109" on="0"/>
        <pt x="245" y="105" on="0"/>
        <pt x="297" y="100" on="0"/>
        <pt x="330" y="96" on="0"/>
        <pt x="331" y="95" on="1"/>
        <pt x="334" y="91" on="0"/>
        <pt x="345" y="62" on="0"/>
        <pt x="355" y="29" on="0"/>
        <pt x="360" y="0" on="0"/>
        <pt x="356" y="-3" on="1"/>
        <pt x="241" y="-23" on="0"/>
        <pt x="115" y="-37" on="0"/>
        <pt x="85" y="-37" on="1"/>
        <pt x="50" y="-37" on="0"/>
        <pt x="43" y="-31" on="1"/>
        <pt x="41" y="-26" on="0"/>
        <pt x="41" y="31" on="0"/>
        <pt x="42" y="117" on="0"/>
        <pt x="44" y="226" on="0"/>
        <pt x="45" y="283" on="1"/>
        <pt x="26" y="275" on="0"/>
        <pt x="1" y="265" on="0"/>
        <pt x="-3" y="266" on="1"/>
        <pt x="-14" y="268" on="0"/>
        <pt x="-27" y="293" on="0"/>
        <pt x="-28" y="300" on="1"/>
        <pt x="-29" y="305" on="0"/>
        <pt x="16" y="339" on="0"/>
        <pt x="48" y="359" on="1"/>
        <pt x="49" y="412" on="0"/>
        <pt x="52" y="510" on="0"/>
        <pt x="55" y="585" on="0"/>
        <pt x="57" y="630" on="0"/>
        <pt x="58" y="632" on="1"/>
        <pt x="59" y="636" on="0"/>
        <pt x="75" y="668" on="0"/>
        <pt x="96" y="703" on="0"/>
        <pt x="118" y="730" on="0"/>
        <pt x="126" y="729" on="1"/>
        <pt x="129" y="729" on="0"/>
        <pt x="133" y="675" on="0"/>
        <pt x="137" y="588" on="0"/>
        <pt x="140" y="477" on="0"/>
        <pt x="141" y="419" on="1"/>
        <pt x="167" y="432" on="0"/>
        <pt x="172" y="433" on="1"/>
        <pt x="181" y="435" on="0"/>
        <pt x="201" y="420" on="0"/>
        <pt x="216" y="399" on="0"/>
        <pt x="222" y="376" on="0"/>
      </contour>
    </TTGlyph>
    <TTGlyph name="M" xMin="20" yMin="-25" xMax="516" yMax="763">
      <contour>
        <pt x="513" y="690" on="1"/>
        <pt x="515" y="686" on="0"/>
        <pt x="516" y="638" on="0"/>
        <pt x="515" y="570" on="0"/>
        <pt x="511" y="493" on="0"/>
        <pt x="508" y="459" on="1"/>
        <pt x="506" y="440" on="0"/>
        <pt x="497" y="364" on="0"/>
        <pt x="485" y="272" on="0"/>
        <pt x="472" y="175" on="0"/>
        <pt x="460" y="94" on="0"/>
        <pt x="451" y="40" on="0"/>
        <pt x="449" y="38" on="1"/>
        <pt x="445" y="35" on="0"/>
        <pt x="427" y="12" on="0"/>
        <pt x="406" y="-11" on="0"/>
        <pt x="388" y="-25" on="0"/>
        <pt x="385" y="-20" on="1"/>
        <pt x="383" y="-10" on="0"/>
        <pt x="383" y="42" on="1"/>
        <pt x="383" y="64" on="0"/>
        <pt x="384" y="131" on="0"/>
        <pt x="387" y="227" on="0"/>
        <pt x="393" y="355" on="0"/>
        <pt x="397" y="439" on="1"/>
        <pt x="377" y="371" on="0"/>
        <pt x="346" y="267" on="0"/>
        <pt x="323" y="190" on="0"/>
        <pt x="307" y="137" on="0"/>
        <pt x="301" y="120" on="1"/>
        <pt x="288" y="80" on="0"/>
        <pt x="284" y="73" on="1"/>
        <pt x="280" y="72" on="0"/>
        <pt x="263" y="86" on="0"/>
        <pt x="242" y="113" on="0"/>
        <pt x="221" y="151" on="0"/>
        <pt x="214" y="174" on="1"/>
        <pt x="207" y="195" on="0"/>
        <pt x="196" y="230" on="1"/>
        <pt x="186" y="260" on="0"/>
        <pt x="154" y="357" on="0"/>
        <pt x="131" y="430" on="1"/>
        <pt x="137" y="348" on="0"/>
        <pt x="145" y="224" on="0"/>
        <pt x="150" y="132" on="0"/>
        <pt x="153" y="69" on="0"/>
        <pt x="153" y="48" on="1"/>
        <pt x="154" y="0" on="0"/>
        <pt x="150" y="-7" on="1"/>
        <pt x="140" y="-7" on="0"/>
        <pt x="117" y="12" on="0"/>
        <pt x="96" y="39" on="0"/>
        <pt x="81" y="65" on="0"/>
        <pt x="80" y="71" on="1"/>
        <pt x="79" y="75" on="0"/>
        <pt x="69" y="141" on="0"/>
        <pt x="56" y="244" on="0"/>
        <pt x="41" y="373" on="0"/>
        <pt x="28" y="507" on="0"/>
        <pt x="20" y="634" on="0"/>
        <pt x="20" y="684" on="1"/>
        <pt x="20" y="692" on="0"/>
        <pt x="60" y="719" on="0"/>
        <pt x="111" y="744" on="0"/>
        <pt x="155" y="763" on="0"/>
        <pt x="160" y="763" on="1"/>
        <pt x="164" y="763" on="0"/>
        <pt x="173" y="717" on="0"/>
        <pt x="185" y="647" on="0"/>
        <pt x="199" y="561" on="0"/>
        <pt x="208" y="522" on="1"/>
        <pt x="215" y="482" on="0"/>
        <pt x="225" y="439" on="1"/>
        <pt x="233" y="402" on="0"/>
        <pt x="254" y="313" on="0"/>
        <pt x="267" y="271" on="1"/>
        <pt x="281" y="332" on="0"/>
        <pt x="304" y="431" on="0"/>
        <pt x="313" y="466" on="1"/>
        <pt x="324" y="507" on="0"/>
        <pt x="332" y="539" on="1"/>
        <pt x="350" y="617" on="0"/>
        <pt x="385" y="707" on="0"/>
        <pt x="390" y="715" on="1"/>
        <pt x="393" y="719" on="0"/>
        <pt x="430" y="715" on="0"/>
        <pt x="474" y="706" on="0"/>
        <pt x="511" y="694" on="0"/>
      </contour>
    </TTGlyph>
    <TTGlyph name="N" xMin="15" yMin="-9" xMax="407" yMax="763">
      <contour>
        <pt x="404" y="701" on="1"/>
        <pt x="406" y="697" on="0"/>
        <pt x="407" y="649" on="0"/>
        <pt x="406" y="581" on="0"/>
        <pt x="402" y="504" on="0"/>
        <pt x="399" y="470" on="1"/>
        <pt x="393" y="394" on="0"/>
        <pt x="377" y="246" on="0"/>
        <pt x="362" y="128" on="0"/>
        <pt x="349" y="53" on="0"/>
        <pt x="348" y="49" on="1"/>
        <pt x="346" y="44" on="0"/>
        <pt x="332" y="24" on="0"/>
        <pt x="316" y="5" on="0"/>
        <pt x="301" y="-9" on="0"/>
        <pt x="297" y="-9" on="1"/>
        <pt x="289" y="-2" on="0"/>
        <pt x="268" y="46" on="1"/>
        <pt x="259" y="67" on="0"/>
        <pt x="233" y="130" on="0"/>
        <pt x="199" y="222" on="0"/>
        <pt x="154" y="347" on="0"/>
        <pt x="126" y="430" on="1"/>
        <pt x="132" y="348" on="0"/>
        <pt x="140" y="224" on="0"/>
        <pt x="145" y="132" on="0"/>
        <pt x="147" y="69" on="0"/>
        <pt x="147" y="48" on="1"/>
        <pt x="147" y="0" on="0"/>
        <pt x="144" y="-7" on="1"/>
        <pt x="134" y="-7" on="0"/>
        <pt x="111" y="12" on="0"/>
        <pt x="91" y="39" on="0"/>
        <pt x="76" y="65" on="0"/>
        <pt x="75" y="71" on="1"/>
        <pt x="74" y="75" on="0"/>
        <pt x="64" y="141" on="0"/>
        <pt x="51" y="244" on="0"/>
        <pt x="36" y="373" on="0"/>
        <pt x="23" y="507" on="0"/>
        <pt x="15" y="634" on="0"/>
        <pt x="15" y="684" on="1"/>
        <pt x="15" y="692" on="0"/>
        <pt x="55" y="719" on="0"/>
        <pt x="106" y="744" on="0"/>
        <pt x="150" y="763" on="0"/>
        <pt x="155" y="763" on="1"/>
        <pt x="159" y="763" on="0"/>
        <pt x="168" y="717" on="0"/>
        <pt x="179" y="647" on="0"/>
        <pt x="194" y="561" on="0"/>
        <pt x="203" y="522" on="1"/>
        <pt x="211" y="480" on="0"/>
        <pt x="223" y="427" on="1"/>
        <pt x="233" y="382" on="0"/>
        <pt x="264" y="256" on="0"/>
        <pt x="285" y="179" on="1"/>
        <pt x="285" y="233" on="0"/>
        <pt x="286" y="355" on="0"/>
        <pt x="288" y="475" on="0"/>
        <pt x="291" y="586" on="0"/>
        <pt x="294" y="672" on="0"/>
        <pt x="297" y="724" on="0"/>
        <pt x="298" y="726" on="1"/>
        <pt x="301" y="730" on="0"/>
        <pt x="333" y="727" on="0"/>
        <pt x="371" y="718" on="0"/>
        <pt x="402" y="705" on="0"/>
      </contour>
    </TTGlyph>
    <TTGlyph name="Ntilde" xMin="15" yMin="-9" xMax="407" yMax="955">
      <component glyphName="N" x="0" y="0" flags="0x204"/>
      <component glyphName="tilde" x="31" y="184" flags="0x4"/>
    </TTGlyph>
    <TTGlyph name="O" xMin="36" yMin="-21" xMax="365" yMax="746">
      <contour>
        <pt x="51" y="644" on="1"/>
        <pt x="56" y="653" on="0"/>
        <pt x="88" y="682" on="0"/>
        <pt x="133" y="712" on="0"/>
        <pt x="185" y="737" on="0"/>
        <pt x="238" y="746" on="0"/>
        <pt x="285" y="733" on="0"/>
        <pt x="302" y="711" on="1"/>
        <pt x="311" y="700" on="0"/>
        <pt x="327" y="634" on="0"/>
        <pt x="342" y="541" on="0"/>
        <pt x="354" y="428" on="0"/>
        <pt x="362" y="311" on="0"/>
        <pt x="365" y="198" on="0"/>
        <pt x="362" y="103" on="0"/>
        <pt x="353" y="36" on="0"/>
        <pt x="344" y="23" on="1"/>
        <pt x="326" y="-3" on="0"/>
        <pt x="250" y="-21" on="0"/>
        <pt x="166" y="-4" on="0"/>
        <pt x="90" y="48" on="0"/>
        <pt x="72" y="92" on="1"/>
        <pt x="60" y="121" on="0"/>
        <pt x="45" y="221" on="0"/>
        <pt x="37" y="338" on="0"/>
        <pt x="36" y="460" on="0"/>
        <pt x="39" y="563" on="0"/>
        <pt x="46" y="635" on="0"/>
      </contour>
      <contour>
        <pt x="247" y="137" on="1"/>
        <pt x="253" y="143" on="0"/>
        <pt x="258" y="196" on="0"/>
        <pt x="259" y="269" on="0"/>
        <pt x="258" y="351" on="0"/>
        <pt x="258" y="386" on="1"/>
        <pt x="258" y="475" on="0"/>
        <pt x="246" y="573" on="0"/>
        <pt x="238" y="597" on="1"/>
        <pt x="229" y="625" on="0"/>
        <pt x="218" y="632" on="1"/>
        <pt x="203" y="629" on="0"/>
        <pt x="183" y="616" on="0"/>
        <pt x="177" y="608" on="1"/>
        <pt x="170" y="599" on="0"/>
        <pt x="166" y="589" on="1"/>
        <pt x="163" y="580" on="0"/>
        <pt x="156" y="528" on="0"/>
        <pt x="150" y="457" on="0"/>
        <pt x="145" y="374" on="0"/>
        <pt x="142" y="294" on="0"/>
        <pt x="141" y="223" on="0"/>
        <pt x="142" y="200" on="1"/>
        <pt x="144" y="165" on="0"/>
        <pt x="173" y="133" on="0"/>
        <pt x="207" y="124" on="0"/>
        <pt x="240" y="132" on="0"/>
      </contour>
    </TTGlyph>
    <TTGlyph name="OE" xMin="36" yMin="-21" xMax="582" yMax="746">
      <contour>
        <pt x="562" y="573" on="1"/>
        <pt x="558" y="568" on="0"/>
        <pt x="468" y="576" on="0"/>
        <pt x="372" y="585" on="1"/>
        <pt x="372" y="401" on="1"/>
        <pt x="447" y="394" on="0"/>
        <pt x="529" y="382" on="0"/>
        <pt x="532" y="380" on="1"/>
        <pt x="536" y="376" on="0"/>
        <pt x="534" y="351" on="0"/>
        <pt x="526" y="321" on="0"/>
        <pt x="513" y="294" on="0"/>
        <pt x="507" y="290" on="1"/>
        <pt x="503" y="288" on="0"/>
        <pt x="435" y="281" on="0"/>
        <pt x="372" y="278" on="1"/>
        <pt x="371" y="235" on="0"/>
        <pt x="371" y="151" on="0"/>
        <pt x="370" y="116" on="1"/>
        <pt x="467" y="115" on="0"/>
        <pt x="555" y="110" on="0"/>
        <pt x="558" y="106" on="1"/>
        <pt x="562" y="101" on="0"/>
        <pt x="556" y="73" on="0"/>
        <pt x="541" y="42" on="0"/>
        <pt x="524" y="12" on="0"/>
        <pt x="518" y="6" on="1"/>
        <pt x="516" y="4" on="0"/>
        <pt x="472" y="5" on="0"/>
        <pt x="418" y="9" on="0"/>
        <pt x="369" y="14" on="0"/>
        <pt x="361" y="16" on="1"/>
        <pt x="357" y="18" on="0"/>
        <pt x="349" y="21" on="0"/>
        <pt x="345" y="23" on="1"/>
        <pt x="344" y="23" on="1"/>
        <pt x="326" y="-3" on="0"/>
        <pt x="250" y="-21" on="0"/>
        <pt x="166" y="-4" on="0"/>
        <pt x="90" y="48" on="0"/>
        <pt x="72" y="92" on="1"/>
        <pt x="60" y="121" on="0"/>
        <pt x="45" y="221" on="0"/>
        <pt x="37" y="338" on="0"/>
        <pt x="36" y="460" on="0"/>
        <pt x="39" y="563" on="0"/>
        <pt x="46" y="635" on="0"/>
        <pt x="51" y="644" on="1"/>
        <pt x="56" y="653" on="0"/>
        <pt x="87" y="681" on="0"/>
        <pt x="131" y="710" on="0"/>
        <pt x="182" y="736" on="0"/>
        <pt x="234" y="746" on="0"/>
        <pt x="281" y="735" on="0"/>
        <pt x="299" y="715" on="1"/>
        <pt x="321" y="717" on="0"/>
        <pt x="378" y="718" on="0"/>
        <pt x="438" y="717" on="0"/>
        <pt x="497" y="714" on="0"/>
        <pt x="544" y="710" on="0"/>
        <pt x="574" y="704" on="0"/>
        <pt x="577" y="702" on="1"/>
        <pt x="581" y="697" on="0"/>
        <pt x="582" y="661" on="0"/>
        <pt x="577" y="618" on="0"/>
        <pt x="568" y="579" on="0"/>
      </contour>
      <contour>
        <pt x="249" y="155" on="1"/>
        <pt x="255" y="160" on="0"/>
        <pt x="260" y="210" on="0"/>
        <pt x="261" y="279" on="0"/>
        <pt x="260" y="357" on="0"/>
        <pt x="260" y="390" on="1"/>
        <pt x="260" y="410" on="0"/>
        <pt x="260" y="445" on="0"/>
        <pt x="259" y="461" on="1"/>
        <pt x="258" y="475" on="0"/>
        <pt x="257" y="501" on="0"/>
        <pt x="255" y="514" on="1"/>
        <pt x="251" y="552" on="0"/>
        <pt x="239" y="597" on="0"/>
        <pt x="234" y="608" on="1"/>
        <pt x="227" y="621" on="0"/>
        <pt x="220" y="624" on="1"/>
        <pt x="205" y="621" on="0"/>
        <pt x="186" y="607" on="0"/>
        <pt x="180" y="600" on="1"/>
        <pt x="173" y="592" on="0"/>
        <pt x="169" y="583" on="1"/>
        <pt x="166" y="575" on="0"/>
        <pt x="159" y="525" on="0"/>
        <pt x="153" y="458" on="0"/>
        <pt x="148" y="379" on="0"/>
        <pt x="145" y="302" on="0"/>
        <pt x="144" y="235" on="0"/>
        <pt x="145" y="213" on="1"/>
        <pt x="148" y="180" on="0"/>
        <pt x="176" y="150" on="0"/>
        <pt x="210" y="142" on="0"/>
        <pt x="242" y="149" on="0"/>
      </contour>
    </TTGlyph>
    <TTGlyph name="Oacute" xMin="36" yMin="-21" xMax="365" yMax="947">
      <component glyphName="O" x="0" y="0" flags="0x204"/>
      <component glyphName="acute" x="10" y="174" flags="0x4"/>
    </TTGlyph>
    <TTGlyph name="Ocircumflex" xMin="36" yMin="-21" xMax="365" yMax="935">
      <component glyphName="O" x="0" y="0" flags="0x204"/>
      <component glyphName="circumflex" x="10" y="174" flags="0x4"/>
    </TTGlyph>
    <TTGlyph name="Odieresis" xMin="36" yMin="-21" xMax="365" yMax="926">
      <component glyphName="O" x="0" y="0" flags="0x204"/>
      <component glyphName="dieresis" x="14" y="171" flags="0x4"/>
    </TTGlyph>
    <TTGlyph name="Ograve" xMin="36" yMin="-21" xMax="365" yMax="947">
      <component glyphName="O" x="0" y="0" flags="0x204"/>
      <component glyphName="grave" x="-9" y="174" flags="0x4"/>
    </TTGlyph>
    <TTGlyph name="Oslash" xMin="36" yMin="-39" xMax="396" yMax="789">
      <contour>
        <pt x="396" y="775" on="1"/>
        <pt x="396" y="772" on="0"/>
        <pt x="387" y="742" on="0"/>
        <pt x="371" y="693" on="0"/>
        <pt x="348" y="627" on="0"/>
        <pt x="335" y="589" on="1"/>
        <pt x="342" y="542" on="0"/>
        <pt x="354" y="430" on="0"/>
        <pt x="362" y="312" on="0"/>
        <pt x="366" y="198" on="0"/>
        <pt x="363" y="104" on="0"/>
        <pt x="353" y="36" on="0"/>
        <pt x="344" y="23" on="1"/>
        <pt x="330" y="3" on="0"/>
        <pt x="278" y="-17" on="0"/>
        <pt x="216" y="-16" on="0"/>
        <pt x="150" y="5" on="0"/>
        <pt x="123" y="26" on="1"/>
        <pt x="115" y="8" on="0"/>
        <pt x="105" y="-13" on="0"/>
        <pt x="103" y="-15" on="1"/>
        <pt x="87" y="-33" on="0"/>
        <pt x="55" y="-39" on="0"/>
        <pt x="47" y="-37" on="1"/>
        <pt x="44" y="-36" on="0"/>
        <pt x="61" y="27" on="0"/>
        <pt x="78" y="81" on="1"/>
        <pt x="74" y="86" on="0"/>
        <pt x="73" y="92" on="1"/>
        <pt x="61" y="121" on="0"/>
        <pt x="46" y="221" on="0"/>
        <pt x="38" y="338" on="0"/>
        <pt x="36" y="460" on="0"/>
        <pt x="39" y="563" on="0"/>
        <pt x="46" y="635" on="0"/>
        <pt x="51" y="644" on="1"/>
        <pt x="56" y="652" on="0"/>
        <pt x="86" y="681" on="0"/>
        <pt x="129" y="709" on="0"/>
        <pt x="179" y="734" on="0"/>
        <pt x="230" y="746" on="0"/>
        <pt x="277" y="737" on="0"/>
        <pt x="295" y="719" on="1"/>
        <pt x="298" y="726" on="0"/>
        <pt x="301" y="735" on="0"/>
        <pt x="303" y="737" on="1"/>
        <pt x="312" y="752" on="0"/>
        <pt x="343" y="777" on="0"/>
        <pt x="373" y="789" on="0"/>
        <pt x="396" y="786" on="0"/>
      </contour>
      <contour>
        <pt x="258" y="386" on="1"/>
        <pt x="258" y="475" on="0"/>
        <pt x="246" y="573" on="0"/>
        <pt x="238" y="597" on="1"/>
        <pt x="229" y="625" on="0"/>
        <pt x="218" y="632" on="1"/>
        <pt x="203" y="629" on="0"/>
        <pt x="183" y="616" on="0"/>
        <pt x="177" y="608" on="1"/>
        <pt x="170" y="599" on="0"/>
        <pt x="166" y="589" on="1"/>
        <pt x="163" y="580" on="0"/>
        <pt x="156" y="528" on="0"/>
        <pt x="150" y="457" on="0"/>
        <pt x="145" y="374" on="0"/>
        <pt x="142" y="294" on="0"/>
        <pt x="141" y="223" on="0"/>
        <pt x="142" y="200" on="1"/>
        <pt x="144" y="165" on="0"/>
        <pt x="173" y="133" on="0"/>
        <pt x="207" y="124" on="0"/>
        <pt x="240" y="132" on="0"/>
        <pt x="247" y="137" on="1"/>
        <pt x="253" y="143" on="0"/>
        <pt x="258" y="196" on="0"/>
        <pt x="259" y="269" on="0"/>
        <pt x="258" y="351" on="0"/>
      </contour>
    </TTGlyph>
    <TTGlyph name="Otilde" xMin="36" yMin="-21" xMax="374" yMax="945">
      <component glyphName="O" x="0" y="0" flags="0x204"/>
      <component glyphName="tilde" x="10" y="174" flags="0x4"/>
    </TTGlyph>
    <TTGlyph name="P" xMin="0" yMin="5" xMax="402" yMax="763">
      <contour>
        <pt x="270" y="334" on="1"/>
        <pt x="252" y="323" on="0"/>
        <pt x="234" y="313" on="1"/>
        <pt x="219" y="305" on="0"/>
        <pt x="186" y="287" on="0"/>
        <pt x="175" y="282" on="1"/>
        <pt x="173" y="178" on="0"/>
        <pt x="168" y="66" on="0"/>
        <pt x="167" y="40" on="1"/>
        <pt x="165" y="9" on="0"/>
        <pt x="163" y="5" on="1"/>
        <pt x="161" y="5" on="0"/>
        <pt x="141" y="22" on="0"/>
        <pt x="118" y="46" on="0"/>
        <pt x="99" y="70" on="0"/>
        <pt x="97" y="76" on="1"/>
        <pt x="96" y="89" on="0"/>
        <pt x="92" y="151" on="1"/>
        <pt x="90" y="178" on="0"/>
        <pt x="86" y="258" on="0"/>
        <pt x="80" y="372" on="0"/>
        <pt x="73" y="526" on="0"/>
        <pt x="69" y="626" on="1"/>
        <pt x="51" y="627" on="0"/>
        <pt x="28" y="627" on="0"/>
        <pt x="16" y="626" on="0"/>
        <pt x="10" y="627" on="0"/>
        <pt x="8" y="631" on="1"/>
        <pt x="4" y="639" on="0"/>
        <pt x="0" y="678" on="0"/>
        <pt x="0" y="696" on="1"/>
        <pt x="0" y="716" on="0"/>
        <pt x="11" y="756" on="0"/>
        <pt x="19" y="761" on="1"/>
        <pt x="22" y="763" on="0"/>
        <pt x="47" y="761" on="0"/>
        <pt x="81" y="755" on="0"/>
        <pt x="121" y="747" on="0"/>
        <pt x="157" y="739" on="0"/>
        <pt x="184" y="732" on="0"/>
        <pt x="190" y="731" on="1"/>
        <pt x="200" y="729" on="0"/>
        <pt x="254" y="710" on="0"/>
        <pt x="315" y="683" on="0"/>
        <pt x="370" y="652" on="0"/>
        <pt x="383" y="637" on="1"/>
        <pt x="388" y="631" on="0"/>
        <pt x="397" y="575" on="0"/>
        <pt x="402" y="510" on="0"/>
        <pt x="401" y="451" on="0"/>
        <pt x="396" y="442" on="1"/>
        <pt x="392" y="436" on="0"/>
        <pt x="370" y="410" on="0"/>
        <pt x="337" y="379" on="0"/>
        <pt x="295" y="347" on="0"/>
      </contour>
      <contour>
        <pt x="178" y="355" on="1"/>
        <pt x="187" y="360" on="0"/>
        <pt x="214" y="389" on="0"/>
        <pt x="244" y="426" on="0"/>
        <pt x="274" y="467" on="0"/>
        <pt x="299" y="503" on="0"/>
        <pt x="314" y="530" on="0"/>
        <pt x="314" y="534" on="1"/>
        <pt x="314" y="540" on="0"/>
        <pt x="296" y="559" on="0"/>
        <pt x="263" y="579" on="0"/>
        <pt x="216" y="598" on="0"/>
        <pt x="188" y="605" on="1"/>
      </contour>
    </TTGlyph>
    <TTGlyph name="Q" xMin="30" yMin="-134" xMax="375" yMax="742">
      <contour>
        <pt x="373" y="398" on="1"/>
        <pt x="365" y="276" on="0"/>
        <pt x="328" y="91" on="0"/>
        <pt x="308" y="39" on="1"/>
        <pt x="319" y="26" on="0"/>
        <pt x="342" y="-5" on="0"/>
        <pt x="361" y="-34" on="0"/>
        <pt x="374" y="-56" on="0"/>
        <pt x="374" y="-61" on="1"/>
        <pt x="374" y="-69" on="0"/>
        <pt x="353" y="-95" on="0"/>
        <pt x="325" y="-119" on="0"/>
        <pt x="299" y="-134" on="0"/>
        <pt x="293" y="-132" on="1"/>
        <pt x="290" y="-131" on="0"/>
        <pt x="275" y="-107" on="0"/>
        <pt x="259" y="-71" on="0"/>
        <pt x="242" y="-30" on="0"/>
        <pt x="236" y="-12" on="1"/>
        <pt x="217" y="-8" on="0"/>
        <pt x="172" y="8" on="0"/>
        <pt x="132" y="25" on="0"/>
        <pt x="103" y="43" on="0"/>
        <pt x="99" y="49" on="1"/>
        <pt x="94" y="57" on="0"/>
        <pt x="74" y="121" on="0"/>
        <pt x="52" y="216" on="0"/>
        <pt x="34" y="332" on="0"/>
        <pt x="33" y="392" on="1"/>
        <pt x="31" y="452" on="0"/>
        <pt x="30" y="570" on="0"/>
        <pt x="35" y="664" on="0"/>
        <pt x="49" y="726" on="0"/>
        <pt x="63" y="731" on="1"/>
        <pt x="91" y="740" on="0"/>
        <pt x="157" y="742" on="0"/>
        <pt x="223" y="732" on="0"/>
        <pt x="285" y="712" on="0"/>
        <pt x="333" y="688" on="0"/>
        <pt x="363" y="662" on="0"/>
        <pt x="365" y="651" on="1"/>
        <pt x="368" y="649" on="0"/>
        <pt x="372" y="599" on="0"/>
        <pt x="375" y="526" on="0"/>
        <pt x="375" y="438" on="0"/>
      </contour>
      <contour>
        <pt x="200" y="51" on="1"/>
        <pt x="204" y="52" on="0"/>
        <pt x="224" y="72" on="0"/>
        <pt x="245" y="132" on="0"/>
        <pt x="264" y="242" on="0"/>
        <pt x="268" y="334" on="1"/>
        <pt x="272" y="425" on="0"/>
        <pt x="264" y="548" on="0"/>
        <pt x="249" y="623" on="0"/>
        <pt x="235" y="656" on="0"/>
        <pt x="233" y="658" on="1"/>
        <pt x="231" y="660" on="0"/>
        <pt x="222" y="665" on="0"/>
        <pt x="210" y="666" on="0"/>
        <pt x="200" y="662" on="0"/>
        <pt x="197" y="656" on="1"/>
        <pt x="194" y="650" on="0"/>
        <pt x="180" y="583" on="0"/>
        <pt x="167" y="482" on="0"/>
        <pt x="158" y="361" on="0"/>
        <pt x="159" y="302" on="1"/>
        <pt x="160" y="260" on="0"/>
        <pt x="168" y="170" on="0"/>
        <pt x="179" y="96" on="0"/>
        <pt x="192" y="50" on="0"/>
      </contour>
    </TTGlyph>
    <TTGlyph name="R" xMin="-10" yMin="-2" xMax="413" yMax="760">
      <contour>
        <pt x="393" y="635" on="1"/>
        <pt x="398" y="629" on="0"/>
        <pt x="408" y="573" on="0"/>
        <pt x="413" y="507" on="0"/>
        <pt x="412" y="449" on="0"/>
        <pt x="407" y="440" on="1"/>
        <pt x="403" y="434" on="0"/>
        <pt x="371" y="403" on="0"/>
        <pt x="329" y="365" on="0"/>
        <pt x="284" y="328" on="0"/>
        <pt x="267" y="315" on="1"/>
        <pt x="275" y="299" on="0"/>
        <pt x="299" y="248" on="0"/>
        <pt x="327" y="191" on="0"/>
        <pt x="354" y="131" on="0"/>
        <pt x="376" y="82" on="0"/>
        <pt x="390" y="49" on="0"/>
        <pt x="390" y="46" on="1"/>
        <pt x="390" y="41" on="0"/>
        <pt x="381" y="23" on="0"/>
        <pt x="367" y="8" on="0"/>
        <pt x="351" y="-2" on="0"/>
        <pt x="344" y="1" on="1"/>
        <pt x="340" y="2" on="0"/>
        <pt x="318" y="33" on="0"/>
        <pt x="287" y="80" on="0"/>
        <pt x="250" y="140" on="0"/>
        <pt x="212" y="201" on="0"/>
        <pt x="178" y="258" on="0"/>
        <pt x="165" y="280" on="1"/>
        <pt x="163" y="176" on="0"/>
        <pt x="158" y="64" on="0"/>
        <pt x="157" y="38" on="1"/>
        <pt x="155" y="7" on="0"/>
        <pt x="153" y="3" on="1"/>
        <pt x="150" y="3" on="0"/>
        <pt x="130" y="20" on="0"/>
        <pt x="108" y="44" on="0"/>
        <pt x="89" y="68" on="0"/>
        <pt x="87" y="74" on="1"/>
        <pt x="85" y="87" on="0"/>
        <pt x="81" y="149" on="1"/>
        <pt x="79" y="176" on="0"/>
        <pt x="75" y="256" on="0"/>
        <pt x="70" y="370" on="0"/>
        <pt x="62" y="524" on="0"/>
        <pt x="58" y="624" on="1"/>
        <pt x="40" y="625" on="0"/>
        <pt x="18" y="624" on="0"/>
        <pt x="6" y="622" on="0"/>
        <pt x="0" y="623" on="0"/>
        <pt x="-2" y="627" on="1"/>
        <pt x="-6" y="635" on="0"/>
        <pt x="-10" y="674" on="0"/>
        <pt x="-10" y="692" on="1"/>
        <pt x="-10" y="712" on="0"/>
        <pt x="1" y="752" on="0"/>
        <pt x="9" y="757" on="1"/>
        <pt x="13" y="760" on="0"/>
        <pt x="61" y="753" on="0"/>
        <pt x="119" y="743" on="0"/>
        <pt x="172" y="731" on="0"/>
        <pt x="180" y="729" on="1"/>
        <pt x="187" y="727" on="0"/>
        <pt x="219" y="718" on="0"/>
        <pt x="261" y="703" on="0"/>
        <pt x="308" y="685" on="0"/>
        <pt x="350" y="665" on="0"/>
        <pt x="384" y="645" on="0"/>
      </contour>
      <contour>
        <pt x="168" y="353" on="1"/>
        <pt x="177" y="358" on="0"/>
        <pt x="207" y="387" on="0"/>
        <pt x="242" y="424" on="0"/>
        <pt x="278" y="465" on="0"/>
        <pt x="307" y="501" on="0"/>
        <pt x="325" y="527" on="0"/>
        <pt x="325" y="531" on="1"/>
        <pt x="325" y="538" on="0"/>
        <pt x="300" y="557" on="0"/>
        <pt x="260" y="577" on="0"/>
        <pt x="206" y="596" on="0"/>
        <pt x="178" y="603" on="1"/>
      </contour>
    </TTGlyph>
    <TTGlyph name="S" xMin="9" yMin="-19" xMax="382" yMax="757">
      <contour>
        <pt x="381" y="605" on="1"/>
        <pt x="382" y="590" on="0"/>
        <pt x="373" y="530" on="0"/>
        <pt x="353" y="470" on="0"/>
        <pt x="322" y="425" on="0"/>
        <pt x="302" y="425" on="1"/>
        <pt x="292" y="425" on="0"/>
        <pt x="278" y="449" on="0"/>
        <pt x="268" y="487" on="0"/>
        <pt x="262" y="534" on="0"/>
        <pt x="257" y="578" on="0"/>
        <pt x="254" y="615" on="0"/>
        <pt x="253" y="624" on="1"/>
        <pt x="249" y="630" on="0"/>
        <pt x="228" y="643" on="0"/>
        <pt x="220" y="643" on="1"/>
        <pt x="211" y="643" on="0"/>
        <pt x="186" y="609" on="0"/>
        <pt x="164" y="563" on="0"/>
        <pt x="150" y="518" on="0"/>
        <pt x="151" y="506" on="1"/>
        <pt x="151" y="498" on="0"/>
        <pt x="182" y="458" on="0"/>
        <pt x="228" y="404" on="0"/>
        <pt x="282" y="341" on="0"/>
        <pt x="328" y="279" on="0"/>
        <pt x="360" y="223" on="0"/>
        <pt x="361" y="203" on="1"/>
        <pt x="363" y="179" on="0"/>
        <pt x="338" y="104" on="0"/>
        <pt x="300" y="34" on="0"/>
        <pt x="257" y="-17" on="0"/>
        <pt x="240" y="-18" on="1"/>
        <pt x="229" y="-19" on="0"/>
        <pt x="193" y="2" on="0"/>
        <pt x="151" y="36" on="0"/>
        <pt x="108" y="77" on="0"/>
        <pt x="71" y="117" on="0"/>
        <pt x="46" y="150" on="0"/>
        <pt x="44" y="158" on="1"/>
        <pt x="40" y="170" on="0"/>
        <pt x="39" y="211" on="0"/>
        <pt x="44" y="250" on="0"/>
        <pt x="53" y="279" on="0"/>
        <pt x="60" y="279" on="1"/>
        <pt x="65" y="279" on="0"/>
        <pt x="88" y="253" on="0"/>
        <pt x="118" y="213" on="0"/>
        <pt x="153" y="166" on="0"/>
        <pt x="185" y="126" on="0"/>
        <pt x="211" y="99" on="0"/>
        <pt x="219" y="100" on="1"/>
        <pt x="225" y="100" on="0"/>
        <pt x="239" y="119" on="0"/>
        <pt x="251" y="146" on="0"/>
        <pt x="259" y="174" on="0"/>
        <pt x="259" y="182" on="1"/>
        <pt x="258" y="194" on="0"/>
        <pt x="221" y="239" on="0"/>
        <pt x="166" y="296" on="0"/>
        <pt x="103" y="358" on="0"/>
        <pt x="48" y="415" on="0"/>
        <pt x="11" y="461" on="0"/>
        <pt x="10" y="473" on="1"/>
        <pt x="9" y="485" on="0"/>
        <pt x="25" y="536" on="0"/>
        <pt x="52" y="600" on="0"/>
        <pt x="86" y="666" on="0"/>
        <pt x="122" y="722" on="0"/>
        <pt x="156" y="757" on="0"/>
        <pt x="169" y="757" on="1"/>
        <pt x="186" y="757" on="0"/>
        <pt x="230" y="742" on="0"/>
        <pt x="277" y="717" on="0"/>
        <pt x="322" y="685" on="0"/>
        <pt x="358" y="652" on="0"/>
        <pt x="380" y="619" on="0"/>
      </contour>
    </TTGlyph>
    <TTGlyph name="Scaron" xMin="9" yMin="-19" xMax="382" yMax="957">
      <component glyphName="S" x="0" y="0" flags="0x204"/>
      <component glyphName="caron" x="10" y="195" flags="0x4"/>
    </TTGlyph>
    <TTGlyph name="T" xMin="-72" yMin="-15" xMax="356" yMax="744">
      <contour>
        <pt x="352" y="738" on="1"/>
        <pt x="355" y="733" on="0"/>
        <pt x="356" y="697" on="0"/>
        <pt x="352" y="655" on="0"/>
        <pt x="345" y="616" on="0"/>
        <pt x="341" y="610" on="1"/>
        <pt x="338" y="605" on="0"/>
        <pt x="271" y="608" on="0"/>
        <pt x="209" y="616" on="1"/>
        <pt x="209" y="577" on="0"/>
        <pt x="207" y="455" on="0"/>
        <pt x="202" y="316" on="0"/>
        <pt x="197" y="176" on="0"/>
        <pt x="191" y="62" on="0"/>
        <pt x="185" y="-10" on="0"/>
        <pt x="183" y="-12" on="1"/>
        <pt x="179" y="-15" on="0"/>
        <pt x="160" y="-4" on="0"/>
        <pt x="140" y="16" on="0"/>
        <pt x="123" y="37" on="0"/>
        <pt x="120" y="45" on="1"/>
        <pt x="119" y="49" on="0"/>
        <pt x="114" y="119" on="0"/>
        <pt x="108" y="225" on="0"/>
        <pt x="100" y="355" on="0"/>
        <pt x="92" y="483" on="0"/>
        <pt x="83" y="595" on="0"/>
        <pt x="80" y="632" on="1"/>
        <pt x="12" y="639" on="0"/>
        <pt x="-48" y="653" on="0"/>
        <pt x="-52" y="657" on="1"/>
        <pt x="-56" y="661" on="0"/>
        <pt x="-65" y="684" on="0"/>
        <pt x="-71" y="708" on="0"/>
        <pt x="-72" y="729" on="0"/>
        <pt x="-69" y="732" on="1"/>
        <pt x="-67" y="734" on="0"/>
        <pt x="-4" y="738" on="0"/>
        <pt x="88" y="742" on="0"/>
        <pt x="195" y="744" on="0"/>
        <pt x="287" y="744" on="0"/>
        <pt x="350" y="741" on="0"/>
      </contour>
    </TTGlyph>
    <TTGlyph name="Thorn" xMin="0" yMin="-15" xMax="410" yMax="755">
      <contour>
        <pt x="390" y="489" on="1"/>
        <pt x="395" y="483" on="0"/>
        <pt x="404" y="427" on="0"/>
        <pt x="410" y="362" on="0"/>
        <pt x="409" y="304" on="0"/>
        <pt x="403" y="295" on="1"/>
        <pt x="399" y="289" on="0"/>
        <pt x="377" y="263" on="0"/>
        <pt x="344" y="233" on="0"/>
        <pt x="302" y="200" on="0"/>
        <pt x="278" y="186" on="1"/>
        <pt x="245" y="168" on="0"/>
        <pt x="190" y="134" on="0"/>
        <pt x="173" y="123" on="1"/>
        <pt x="170" y="63" on="0"/>
        <pt x="163" y="-13" on="0"/>
        <pt x="159" y="-14" on="1"/>
        <pt x="151" y="-15" on="0"/>
        <pt x="131" y="0" on="0"/>
        <pt x="112" y="24" on="0"/>
        <pt x="98" y="50" on="0"/>
        <pt x="96" y="59" on="1"/>
        <pt x="88" y="150" on="0"/>
        <pt x="78" y="302" on="0"/>
        <pt x="75" y="359" on="1"/>
        <pt x="71" y="424" on="0"/>
        <pt x="69" y="478" on="1"/>
        <pt x="39" y="480" on="0"/>
        <pt x="10" y="480" on="0"/>
        <pt x="8" y="484" on="1"/>
        <pt x="4" y="492" on="0"/>
        <pt x="0" y="531" on="0"/>
        <pt x="0" y="551" on="1"/>
        <pt x="0" y="569" on="0"/>
        <pt x="11" y="609" on="0"/>
        <pt x="19" y="614" on="1"/>
        <pt x="23" y="616" on="0"/>
        <pt x="43" y="613" on="0"/>
        <pt x="65" y="610" on="1"/>
        <pt x="65" y="639" on="0"/>
        <pt x="68" y="651" on="1"/>
        <pt x="72" y="672" on="0"/>
        <pt x="101" y="711" on="0"/>
        <pt x="135" y="740" on="0"/>
        <pt x="165" y="755" on="0"/>
        <pt x="170" y="752" on="1"/>
        <pt x="175" y="749" on="0"/>
        <pt x="180" y="657" on="0"/>
        <pt x="181" y="588" on="1"/>
        <pt x="187" y="587" on="0"/>
        <pt x="196" y="585" on="0"/>
        <pt x="199" y="585" on="1"/>
        <pt x="209" y="582" on="0"/>
        <pt x="261" y="563" on="0"/>
        <pt x="322" y="535" on="0"/>
        <pt x="377" y="504" on="0"/>
      </contour>
      <contour>
        <pt x="176" y="201" on="1"/>
        <pt x="194" y="218" on="0"/>
        <pt x="244" y="276" on="0"/>
        <pt x="290" y="335" on="0"/>
        <pt x="322" y="381" on="0"/>
        <pt x="322" y="387" on="1"/>
        <pt x="322" y="399" on="0"/>
        <pt x="264" y="438" on="0"/>
        <pt x="197" y="459" on="1"/>
        <pt x="187" y="461" on="0"/>
        <pt x="181" y="463" on="1"/>
        <pt x="181" y="397" on="0"/>
        <pt x="178" y="262" on="0"/>
      </contour>
    </TTGlyph>
    <TTGlyph name="U" xMin="41" yMin="-14" xMax="420" yMax="777">
      <contour>
        <pt x="328" y="770" on="1"/>
        <pt x="331" y="766" on="0"/>
        <pt x="340" y="693" on="0"/>
        <pt x="351" y="585" on="0"/>
        <pt x="363" y="458" on="0"/>
        <pt x="373" y="341" on="0"/>
        <pt x="381" y="250" on="0"/>
        <pt x="383" y="232" on="1"/>
        <pt x="386" y="205" on="0"/>
        <pt x="399" y="127" on="0"/>
        <pt x="412" y="52" on="0"/>
        <pt x="420" y="-4" on="0"/>
        <pt x="417" y="-9" on="1"/>
        <pt x="414" y="-14" on="0"/>
        <pt x="380" y="-2" on="0"/>
        <pt x="340" y="20" on="0"/>
        <pt x="305" y="46" on="0"/>
        <pt x="300" y="55" on="1"/>
        <pt x="295" y="65" on="0"/>
        <pt x="283" y="112" on="0"/>
        <pt x="276" y="151" on="1"/>
        <pt x="263" y="127" on="0"/>
        <pt x="231" y="77" on="0"/>
        <pt x="201" y="35" on="0"/>
        <pt x="176" y="8" on="0"/>
        <pt x="170" y="9" on="1"/>
        <pt x="160" y="10" on="0"/>
        <pt x="119" y="61" on="0"/>
        <pt x="77" y="126" on="0"/>
        <pt x="44" y="185" on="0"/>
        <pt x="42" y="195" on="1"/>
        <pt x="41" y="201" on="0"/>
        <pt x="41" y="244" on="0"/>
        <pt x="42" y="304" on="0"/>
        <pt x="45" y="375" on="0"/>
        <pt x="48" y="444" on="0"/>
        <pt x="51" y="506" on="0"/>
        <pt x="53" y="526" on="1"/>
        <pt x="55" y="557" on="0"/>
        <pt x="62" y="624" on="0"/>
        <pt x="69" y="682" on="0"/>
        <pt x="76" y="723" on="0"/>
        <pt x="79" y="728" on="1"/>
        <pt x="81" y="732" on="0"/>
        <pt x="102" y="734" on="0"/>
        <pt x="128" y="729" on="0"/>
        <pt x="150" y="718" on="0"/>
        <pt x="154" y="710" on="1"/>
        <pt x="156" y="705" on="0"/>
        <pt x="157" y="636" on="0"/>
        <pt x="157" y="540" on="0"/>
        <pt x="156" y="429" on="0"/>
        <pt x="154" y="331" on="0"/>
        <pt x="153" y="262" on="0"/>
        <pt x="153" y="256" on="1"/>
        <pt x="153" y="245" on="0"/>
        <pt x="184" y="198" on="0"/>
        <pt x="197" y="165" on="1"/>
        <pt x="260" y="236" on="1"/>
        <pt x="259" y="264" on="0"/>
        <pt x="258" y="352" on="0"/>
        <pt x="256" y="451" on="0"/>
        <pt x="255" y="552" on="0"/>
        <pt x="255" y="636" on="0"/>
        <pt x="256" y="691" on="0"/>
        <pt x="257" y="695" on="1"/>
        <pt x="260" y="703" on="0"/>
        <pt x="279" y="734" on="0"/>
        <pt x="301" y="761" on="0"/>
        <pt x="323" y="777" on="0"/>
      </contour>
    </TTGlyph>
    <TTGlyph name="Uacute" xMin="41" yMin="-14" xMax="420" yMax="957">
      <component glyphName="U" x="0" y="0" flags="0x204"/>
      <component glyphName="acute" x="61" y="184" flags="0x4"/>
    </TTGlyph>
    <TTGlyph name="Ucircumflex" xMin="41" yMin="-14" xMax="420" yMax="956">
      <component glyphName="U" x="0" y="0" flags="0x204"/>
      <component glyphName="circumflex" x="20" y="195" flags="0x4"/>
    </TTGlyph>
    <TTGlyph name="Udieresis" xMin="41" yMin="-14" xMax="420" yMax="936">
      <component glyphName="U" x="0" y="0" flags="0x204"/>
      <component glyphName="dieresis" x="14" y="181" flags="0x4"/>
    </TTGlyph>
    <TTGlyph name="Ugrave" xMin="41" yMin="-14" xMax="420" yMax="957">
      <component glyphName="U" x="0" y="0" flags="0x204"/>
      <component glyphName="grave" x="-19" y="184" flags="0x4"/>
    </TTGlyph>
    <TTGlyph name="V" xMin="-5" yMin="-34" xMax="388" yMax="759">
      <contour>
        <pt x="133" y="96" on="1"/>
        <pt x="114" y="161" on="0"/>
        <pt x="92" y="249" on="1"/>
        <pt x="73" y="324" on="0"/>
        <pt x="23" y="540" on="0"/>
        <pt x="-5" y="680" on="1"/>
        <pt x="-5" y="690" on="0"/>
        <pt x="17" y="717" on="0"/>
        <pt x="48" y="741" on="0"/>
        <pt x="82" y="759" on="0"/>
        <pt x="94" y="759" on="1"/>
        <pt x="101" y="751" on="0"/>
        <pt x="113" y="691" on="1"/>
        <pt x="118" y="665" on="0"/>
        <pt x="133" y="587" on="0"/>
        <pt x="151" y="472" on="0"/>
        <pt x="173" y="318" on="0"/>
        <pt x="187" y="216" on="1"/>
        <pt x="197" y="285" on="0"/>
        <pt x="217" y="408" on="0"/>
        <pt x="225" y="456" on="1"/>
        <pt x="235" y="511" on="0"/>
        <pt x="243" y="558" on="1"/>
        <pt x="247" y="587" on="0"/>
        <pt x="258" y="652" on="0"/>
        <pt x="270" y="706" on="0"/>
        <pt x="283" y="742" on="0"/>
        <pt x="291" y="742" on="1"/>
        <pt x="298" y="743" on="0"/>
        <pt x="331" y="737" on="0"/>
        <pt x="363" y="726" on="0"/>
        <pt x="388" y="712" on="0"/>
        <pt x="388" y="705" on="1"/>
        <pt x="388" y="701" on="0"/>
        <pt x="373" y="633" on="0"/>
        <pt x="346" y="528" on="0"/>
        <pt x="313" y="396" on="0"/>
        <pt x="276" y="259" on="0"/>
        <pt x="240" y="129" on="0"/>
        <pt x="210" y="28" on="0"/>
        <pt x="189" y="-34" on="0"/>
        <pt x="185" y="-34" on="1"/>
        <pt x="181" y="-34" on="0"/>
        <pt x="147" y="37" on="0"/>
      </contour>
    </TTGlyph>
    <TTGlyph name="W" xMin="4" yMin="-32" xMax="451" yMax="754">
      <contour>
        <pt x="447" y="746" on="1"/>
        <pt x="451" y="742" on="0"/>
        <pt x="448" y="671" on="0"/>
        <pt x="436" y="561" on="0"/>
        <pt x="419" y="421" on="0"/>
        <pt x="399" y="277" on="0"/>
        <pt x="378" y="140" on="0"/>
        <pt x="359" y="33" on="0"/>
        <pt x="344" y="-32" on="0"/>
        <pt x="340" y="-32" on="1"/>
        <pt x="333" y="-32" on="0"/>
        <pt x="315" y="-16" on="0"/>
        <pt x="298" y="7" on="0"/>
        <pt x="285" y="30" on="0"/>
        <pt x="284" y="37" on="1"/>
        <pt x="281" y="50" on="0"/>
        <pt x="264" y="124" on="0"/>
        <pt x="256" y="179" on="1"/>
        <pt x="251" y="215" on="0"/>
        <pt x="246" y="255" on="1"/>
        <pt x="241" y="289" on="0"/>
        <pt x="230" y="370" on="0"/>
        <pt x="225" y="411" on="1"/>
        <pt x="221" y="385" on="0"/>
        <pt x="209" y="313" on="0"/>
        <pt x="203" y="280" on="1"/>
        <pt x="196" y="241" on="0"/>
        <pt x="188" y="201" on="1"/>
        <pt x="181" y="159" on="0"/>
        <pt x="165" y="78" on="0"/>
        <pt x="149" y="13" on="0"/>
        <pt x="136" y="-27" on="0"/>
        <pt x="132" y="-28" on="1"/>
        <pt x="125" y="-30" on="0"/>
        <pt x="105" y="-17" on="0"/>
        <pt x="85" y="5" on="0"/>
        <pt x="70" y="30" on="0"/>
        <pt x="68" y="39" on="1"/>
        <pt x="54" y="137" on="0"/>
        <pt x="35" y="293" on="0"/>
        <pt x="21" y="414" on="0"/>
        <pt x="13" y="502" on="0"/>
        <pt x="10" y="534" on="1"/>
        <pt x="4" y="608" on="0"/>
        <pt x="5" y="637" on="1"/>
        <pt x="8" y="658" on="0"/>
        <pt x="34" y="701" on="0"/>
        <pt x="66" y="735" on="0"/>
        <pt x="95" y="754" on="0"/>
        <pt x="100" y="751" on="1"/>
        <pt x="103" y="749" on="0"/>
        <pt x="109" y="700" on="0"/>
        <pt x="113" y="621" on="0"/>
        <pt x="117" y="519" on="0"/>
        <pt x="120" y="408" on="0"/>
        <pt x="123" y="296" on="0"/>
        <pt x="125" y="247" on="1"/>
        <pt x="129" y="272" on="0"/>
        <pt x="138" y="336" on="0"/>
        <pt x="149" y="406" on="0"/>
        <pt x="159" y="475" on="0"/>
        <pt x="168" y="533" on="0"/>
        <pt x="177" y="575" on="0"/>
        <pt x="180" y="583" on="1"/>
        <pt x="190" y="606" on="0"/>
        <pt x="217" y="640" on="0"/>
        <pt x="242" y="662" on="0"/>
        <pt x="263" y="673" on="0"/>
        <pt x="267" y="672" on="1"/>
        <pt x="268" y="672" on="0"/>
        <pt x="274" y="631" on="0"/>
        <pt x="281" y="565" on="0"/>
        <pt x="290" y="480" on="0"/>
        <pt x="300" y="389" on="0"/>
        <pt x="310" y="300" on="0"/>
        <pt x="316" y="264" on="1"/>
        <pt x="318" y="297" on="0"/>
        <pt x="322" y="378" on="0"/>
        <pt x="327" y="462" on="0"/>
        <pt x="332" y="542" on="0"/>
        <pt x="337" y="608" on="0"/>
        <pt x="342" y="655" on="0"/>
        <pt x="345" y="663" on="1"/>
        <pt x="351" y="683" on="0"/>
        <pt x="381" y="718" on="0"/>
        <pt x="414" y="741" on="0"/>
        <pt x="443" y="750" on="0"/>
      </contour>
    </TTGlyph>
    <TTGlyph name="X" xMin="-24" yMin="-35" xMax="395" yMax="754">
      <contour>
        <pt x="392" y="750" on="1"/>
        <pt x="395" y="746" on="0"/>
        <pt x="368" y="673" on="0"/>
        <pt x="320" y="559" on="0"/>
        <pt x="256" y="416" on="0"/>
        <pt x="222" y="343" on="1"/>
        <pt x="250" y="272" on="0"/>
        <pt x="300" y="137" on="0"/>
        <pt x="337" y="32" on="0"/>
        <pt x="356" y="-33" on="0"/>
        <pt x="352" y="-34" on="1"/>
        <pt x="345" y="-35" on="0"/>
        <pt x="318" y="-19" on="0"/>
        <pt x="288" y="5" on="0"/>
        <pt x="263" y="31" on="0"/>
        <pt x="257" y="41" on="1"/>
        <pt x="242" y="72" on="0"/>
        <pt x="210" y="137" on="0"/>
        <pt x="197" y="164" on="1"/>
        <pt x="182" y="196" on="0"/>
        <pt x="168" y="226" on="1"/>
        <pt x="142" y="173" on="0"/>
        <pt x="95" y="79" on="0"/>
        <pt x="59" y="9" on="0"/>
        <pt x="34" y="-32" on="0"/>
        <pt x="31" y="-32" on="1"/>
        <pt x="22" y="-32" on="0"/>
        <pt x="9" y="-12" on="0"/>
        <pt x="0" y="16" on="0"/>
        <pt x="-2" y="45" on="0"/>
        <pt x="0" y="55" on="1"/>
        <pt x="20" y="109" on="0"/>
        <pt x="58" y="215" on="0"/>
        <pt x="74" y="257" on="1"/>
        <pt x="92" y="306" on="0"/>
        <pt x="109" y="350" on="1"/>
        <pt x="86" y="399" on="0"/>
        <pt x="42" y="494" on="0"/>
        <pt x="7" y="574" on="0"/>
        <pt x="-16" y="632" on="0"/>
        <pt x="-19" y="645" on="1"/>
        <pt x="-24" y="666" on="0"/>
        <pt x="-8" y="705" on="0"/>
        <pt x="16" y="735" on="0"/>
        <pt x="42" y="751" on="0"/>
        <pt x="48" y="748" on="1"/>
        <pt x="52" y="745" on="0"/>
        <pt x="74" y="704" on="0"/>
        <pt x="105" y="636" on="0"/>
        <pt x="143" y="545" on="0"/>
        <pt x="164" y="494" on="1"/>
        <pt x="190" y="560" on="0"/>
        <pt x="232" y="661" on="0"/>
        <pt x="244" y="678" on="1"/>
        <pt x="257" y="699" on="0"/>
        <pt x="305" y="730" on="0"/>
        <pt x="352" y="749" on="0"/>
        <pt x="389" y="754" on="0"/>
      </contour>
    </TTGlyph>
    <TTGlyph name="Y" xMin="-36" yMin="-24" xMax="348" yMax="752">
      <contour>
        <pt x="348" y="718" on="1"/>
        <pt x="348" y="716" on="0"/>
        <pt x="335" y="673" on="0"/>
        <pt x="313" y="606" on="0"/>
        <pt x="284" y="522" on="0"/>
        <pt x="252" y="433" on="0"/>
        <pt x="219" y="347" on="0"/>
        <pt x="205" y="313" on="1"/>
        <pt x="203" y="244" on="0"/>
        <pt x="197" y="124" on="0"/>
        <pt x="191" y="34" on="0"/>
        <pt x="185" y="-19" on="0"/>
        <pt x="183" y="-20" on="1"/>
        <pt x="178" y="-24" on="0"/>
        <pt x="156" y="-11" on="0"/>
        <pt x="133" y="11" on="0"/>
        <pt x="114" y="37" on="0"/>
        <pt x="111" y="46" on="1"/>
        <pt x="110" y="50" on="0"/>
        <pt x="106" y="93" on="0"/>
        <pt x="100" y="166" on="0"/>
        <pt x="93" y="264" on="0"/>
        <pt x="90" y="323" on="1"/>
        <pt x="71" y="365" on="0"/>
        <pt x="50" y="422" on="1"/>
        <pt x="32" y="471" on="0"/>
        <pt x="-13" y="611" on="0"/>
        <pt x="-36" y="702" on="1"/>
        <pt x="-36" y="711" on="0"/>
        <pt x="-14" y="730" on="0"/>
        <pt x="18" y="744" on="0"/>
        <pt x="54" y="752" on="0"/>
        <pt x="68" y="749" on="1"/>
        <pt x="72" y="743" on="0"/>
        <pt x="83" y="703" on="1"/>
        <pt x="87" y="686" on="0"/>
        <pt x="100" y="635" on="0"/>
        <pt x="116" y="560" on="0"/>
        <pt x="137" y="460" on="0"/>
        <pt x="151" y="394" on="1"/>
        <pt x="166" y="458" on="0"/>
        <pt x="190" y="556" on="0"/>
        <pt x="209" y="629" on="0"/>
        <pt x="224" y="680" on="0"/>
        <pt x="229" y="697" on="1"/>
        <pt x="241" y="737" on="0"/>
        <pt x="248" y="744" on="1"/>
        <pt x="255" y="748" on="0"/>
        <pt x="288" y="747" on="0"/>
        <pt x="321" y="738" on="0"/>
        <pt x="347" y="725" on="0"/>
      </contour>
    </TTGlyph>
    <TTGlyph name="Yacute" xMin="-36" yMin="-24" xMax="348" yMax="937">
      <component glyphName="Y" x="0" y="0" flags="0x204"/>
      <component glyphName="acute" x="10" y="164" flags="0x4"/>
    </TTGlyph>
    <TTGlyph name="Ydieresis" xMin="-36" yMin="-24" xMax="348" yMax="936">
      <component glyphName="Y" x="0" y="0" flags="0x204"/>
      <component glyphName="dieresis" x="-36" y="181" flags="0x4"/>
    </TTGlyph>
    <TTGlyph name="Z" xMin="-6" yMin="8" xMax="346" yMax="726">
      <contour>
        <pt x="346" y="701" on="1"/>
        <pt x="346" y="698" on="0"/>
        <pt x="327" y="648" on="0"/>
        <pt x="295" y="570" on="0"/>
        <pt x="253" y="470" on="0"/>
        <pt x="209" y="366" on="0"/>
        <pt x="165" y="263" on="0"/>
        <pt x="128" y="179" on="0"/>
        <pt x="103" y="121" on="0"/>
        <pt x="99" y="112" on="1"/>
        <pt x="202" y="122" on="0"/>
        <pt x="289" y="127" on="0"/>
        <pt x="292" y="124" on="1"/>
        <pt x="296" y="120" on="0"/>
        <pt x="288" y="91" on="0"/>
        <pt x="272" y="56" on="0"/>
        <pt x="254" y="25" on="0"/>
        <pt x="248" y="18" on="1"/>
        <pt x="247" y="16" on="0"/>
        <pt x="218" y="13" on="0"/>
        <pt x="177" y="11" on="0"/>
        <pt x="128" y="9" on="0"/>
        <pt x="84" y="8" on="0"/>
        <pt x="51" y="8" on="0"/>
        <pt x="46" y="9" on="1"/>
        <pt x="39" y="10" on="0"/>
        <pt x="26" y="25" on="0"/>
        <pt x="15" y="45" on="0"/>
        <pt x="7" y="68" on="0"/>
        <pt x="6" y="77" on="1"/>
        <pt x="5" y="86" on="0"/>
        <pt x="26" y="159" on="0"/>
        <pt x="61" y="261" on="0"/>
        <pt x="103" y="379" on="0"/>
        <pt x="144" y="488" on="0"/>
        <pt x="176" y="575" on="0"/>
        <pt x="183" y="595" on="1"/>
        <pt x="133" y="592" on="0"/>
        <pt x="68" y="587" on="0"/>
        <pt x="30" y="585" on="0"/>
        <pt x="14" y="585" on="0"/>
        <pt x="12" y="588" on="1"/>
        <pt x="7" y="594" on="0"/>
        <pt x="-2" y="631" on="0"/>
        <pt x="-6" y="674" on="0"/>
        <pt x="-4" y="711" on="0"/>
        <pt x="1" y="716" on="1"/>
        <pt x="4" y="719" on="0"/>
        <pt x="57" y="724" on="0"/>
        <pt x="133" y="726" on="0"/>
        <pt x="220" y="725" on="0"/>
        <pt x="295" y="720" on="0"/>
        <pt x="345" y="709" on="0"/>
      </contour>
    </TTGlyph>
    <TTGlyph name="Zcaron" xMin="-6" yMin="8" xMax="346" yMax="946">
      <component glyphName="Z" x="0" y="0" flags="0x4"/>
      <component glyphName="caron" x="-9" y="184" flags="0x4"/>
    </TTGlyph>
    <TTGlyph name="a" xMin="24" yMin="44" xMax="324" yMax="601">
      <contour>
        <pt x="295" y="526" on="1"/>
        <pt x="301" y="519" on="0"/>
        <pt x="311" y="504" on="0"/>
        <pt x="319" y="479" on="0"/>
        <pt x="324" y="439" on="0"/>
        <pt x="324" y="407" on="1"/>
        <pt x="324" y="356" on="0"/>
        <pt x="319" y="253" on="0"/>
        <pt x="317" y="214" on="1"/>
        <pt x="316" y="179" on="0"/>
        <pt x="314" y="119" on="0"/>
        <pt x="312" y="74" on="0"/>
        <pt x="309" y="48" on="0"/>
        <pt x="308" y="47" on="1"/>
        <pt x="304" y="44" on="0"/>
        <pt x="287" y="55" on="0"/>
        <pt x="268" y="73" on="0"/>
        <pt x="252" y="93" on="0"/>
        <pt x="250" y="99" on="1"/>
        <pt x="250" y="104" on="0"/>
        <pt x="247" y="128" on="1"/>
        <pt x="223" y="114" on="0"/>
        <pt x="165" y="103" on="0"/>
        <pt x="108" y="106" on="0"/>
        <pt x="60" y="124" on="0"/>
        <pt x="48" y="139" on="1"/>
        <pt x="43" y="145" on="0"/>
        <pt x="36" y="169" on="0"/>
        <pt x="31" y="200" on="0"/>
        <pt x="27" y="235" on="0"/>
        <pt x="26" y="250" on="1"/>
        <pt x="24" y="289" on="0"/>
        <pt x="48" y="346" on="0"/>
        <pt x="80" y="360" on="1"/>
        <pt x="94" y="366" on="0"/>
        <pt x="141" y="367" on="0"/>
        <pt x="188" y="362" on="0"/>
        <pt x="226" y="355" on="0"/>
        <pt x="231" y="353" on="1"/>
        <pt x="227" y="404" on="0"/>
        <pt x="223" y="479" on="0"/>
        <pt x="217" y="490" on="1"/>
        <pt x="212" y="497" on="0"/>
        <pt x="205" y="504" on="1"/>
        <pt x="199" y="509" on="0"/>
        <pt x="179" y="521" on="0"/>
        <pt x="165" y="524" on="1"/>
        <pt x="154" y="526" on="0"/>
        <pt x="145" y="515" on="1"/>
        <pt x="137" y="505" on="0"/>
        <pt x="124" y="454" on="0"/>
        <pt x="123" y="402" on="1"/>
        <pt x="88" y="401" on="0"/>
        <pt x="51" y="404" on="0"/>
        <pt x="42" y="406" on="1"/>
        <pt x="31" y="408" on="0"/>
        <pt x="29" y="411" on="1"/>
        <pt x="27" y="415" on="0"/>
        <pt x="35" y="466" on="0"/>
        <pt x="50" y="526" on="0"/>
        <pt x="71" y="580" on="0"/>
        <pt x="83" y="587" on="1"/>
        <pt x="107" y="601" on="0"/>
        <pt x="174" y="593" on="0"/>
        <pt x="238" y="567" on="0"/>
        <pt x="288" y="535" on="0"/>
      </contour>
      <contour>
        <pt x="233" y="234" on="1"/>
        <pt x="233" y="239" on="0"/>
        <pt x="235" y="256" on="0"/>
        <pt x="235" y="274" on="0"/>
        <pt x="234" y="290" on="0"/>
        <pt x="232" y="294" on="1"/>
        <pt x="229" y="300" on="0"/>
        <pt x="200" y="308" on="0"/>
        <pt x="164" y="311" on="0"/>
        <pt x="132" y="310" on="0"/>
        <pt x="126" y="306" on="1"/>
        <pt x="118" y="301" on="0"/>
        <pt x="111" y="283" on="0"/>
        <pt x="110" y="264" on="1"/>
        <pt x="110" y="255" on="0"/>
        <pt x="112" y="235" on="0"/>
        <pt x="115" y="216" on="0"/>
        <pt x="120" y="202" on="0"/>
        <pt x="123" y="200" on="1"/>
        <pt x="130" y="195" on="0"/>
        <pt x="165" y="188" on="0"/>
        <pt x="201" y="191" on="0"/>
        <pt x="231" y="211" on="0"/>
      </contour>
    </TTGlyph>
    <TTGlyph name="aacute" xMin="24" yMin="44" xMax="324" yMax="804">
      <component glyphName="a" x="0" y="0" flags="0x204"/>
      <component glyphName="acute" x="20" y="31" flags="0x4"/>
    </TTGlyph>
    <TTGlyph name="acircumflex" xMin="24" yMin="44" xMax="342" yMax="781">
      <component glyphName="a" x="0" y="0" flags="0x204"/>
      <component glyphName="circumflex" x="-9" y="20" flags="0x4"/>
    </TTGlyph>
    <TTGlyph name="acute" xMin="113" yMin="608" xMax="284" yMax="773">
      <contour>
        <pt x="264" y="719" on="1"/>
        <pt x="252" y="704" on="0"/>
        <pt x="219" y="670" on="0"/>
        <pt x="187" y="639" on="0"/>
        <pt x="160" y="616" on="0"/>
        <pt x="153" y="613" on="1"/>
        <pt x="142" y="608" on="0"/>
        <pt x="114" y="624" on="0"/>
        <pt x="113" y="638" on="1"/>
        <pt x="113" y="642" on="0"/>
        <pt x="129" y="673" on="0"/>
        <pt x="151" y="709" on="0"/>
        <pt x="173" y="743" on="0"/>
        <pt x="179" y="750" on="1"/>
        <pt x="186" y="758" on="0"/>
        <pt x="190" y="764" on="0"/>
        <pt x="195" y="766" on="1"/>
        <pt x="204" y="772" on="0"/>
        <pt x="234" y="773" on="0"/>
        <pt x="264" y="766" on="0"/>
        <pt x="284" y="752" on="0"/>
        <pt x="282" y="745" on="1"/>
        <pt x="281" y="741" on="0"/>
        <pt x="269" y="725" on="0"/>
      </contour>
    </TTGlyph>
    <TTGlyph name="adieresis" xMin="24" yMin="44" xMax="328" yMax="775">
      <component glyphName="a" x="0" y="0" flags="0x204"/>
      <component glyphName="dieresis" x="-9" y="20" flags="0x4"/>
    </TTGlyph>
    <TTGlyph name="ae" xMin="24" yMin="21" xMax="544" yMax="601">
      <contour>
        <pt x="543" y="273" on="1"/>
        <pt x="542" y="271" on="0"/>
        <pt x="496" y="259" on="0"/>
        <pt x="432" y="246" on="0"/>
        <pt x="360" y="233" on="0"/>
        <pt x="334" y="229" on="1"/>
        <pt x="339" y="189" on="0"/>
        <pt x="353" y="126" on="0"/>
        <pt x="358" y="118" on="1"/>
        <pt x="363" y="111" on="0"/>
        <pt x="371" y="105" on="1"/>
        <pt x="378" y="100" on="0"/>
        <pt x="399" y="91" on="0"/>
        <pt x="414" y="89" on="1"/>
        <pt x="425" y="86" on="0"/>
        <pt x="435" y="97" on="1"/>
        <pt x="443" y="107" on="0"/>
        <pt x="456" y="157" on="0"/>
        <pt x="456" y="211" on="1"/>
        <pt x="487" y="216" on="0"/>
        <pt x="522" y="218" on="0"/>
        <pt x="530" y="217" on="1"/>
        <pt x="540" y="216" on="0"/>
        <pt x="542" y="214" on="1"/>
        <pt x="543" y="210" on="0"/>
        <pt x="537" y="161" on="0"/>
        <pt x="523" y="102" on="0"/>
        <pt x="503" y="48" on="0"/>
        <pt x="492" y="39" on="1"/>
        <pt x="476" y="27" on="0"/>
        <pt x="431" y="21" on="0"/>
        <pt x="383" y="25" on="0"/>
        <pt x="334" y="38" on="0"/>
        <pt x="293" y="55" on="0"/>
        <pt x="263" y="71" on="0"/>
        <pt x="258" y="77" on="1"/>
        <pt x="251" y="84" on="0"/>
        <pt x="246" y="127" on="1"/>
        <pt x="222" y="113" on="0"/>
        <pt x="163" y="103" on="0"/>
        <pt x="107" y="106" on="0"/>
        <pt x="60" y="124" on="0"/>
        <pt x="48" y="139" on="1"/>
        <pt x="43" y="145" on="0"/>
        <pt x="36" y="169" on="0"/>
        <pt x="31" y="201" on="0"/>
        <pt x="27" y="235" on="0"/>
        <pt x="26" y="251" on="1"/>
        <pt x="24" y="289" on="0"/>
        <pt x="48" y="346" on="0"/>
        <pt x="80" y="360" on="1"/>
        <pt x="94" y="366" on="0"/>
        <pt x="141" y="367" on="0"/>
        <pt x="188" y="362" on="0"/>
        <pt x="226" y="355" on="0"/>
        <pt x="231" y="353" on="1"/>
        <pt x="227" y="404" on="0"/>
        <pt x="223" y="479" on="0"/>
        <pt x="217" y="490" on="1"/>
        <pt x="212" y="497" on="0"/>
        <pt x="205" y="504" on="1"/>
        <pt x="199" y="509" on="0"/>
        <pt x="179" y="521" on="0"/>
        <pt x="165" y="524" on="1"/>
        <pt x="154" y="526" on="0"/>
        <pt x="145" y="515" on="1"/>
        <pt x="137" y="505" on="0"/>
        <pt x="124" y="454" on="0"/>
        <pt x="123" y="402" on="1"/>
        <pt x="88" y="401" on="0"/>
        <pt x="51" y="404" on="0"/>
        <pt x="42" y="406" on="1"/>
        <pt x="31" y="408" on="0"/>
        <pt x="29" y="411" on="1"/>
        <pt x="27" y="415" on="0"/>
        <pt x="35" y="466" on="0"/>
        <pt x="51" y="526" on="0"/>
        <pt x="72" y="580" on="0"/>
        <pt x="84" y="587" on="1"/>
        <pt x="108" y="601" on="0"/>
        <pt x="174" y="593" on="0"/>
        <pt x="238" y="567" on="0"/>
        <pt x="288" y="535" on="0"/>
        <pt x="295" y="526" on="1"/>
        <pt x="300" y="521" on="0"/>
        <pt x="307" y="510" on="0"/>
        <pt x="310" y="502" on="1"/>
        <pt x="335" y="517" on="0"/>
        <pt x="395" y="533" on="0"/>
        <pt x="452" y="535" on="0"/>
        <pt x="500" y="523" on="0"/>
        <pt x="513" y="510" on="1"/>
        <pt x="523" y="500" on="0"/>
        <pt x="539" y="441" on="0"/>
        <pt x="541" y="399" on="1"/>
        <pt x="541" y="395" on="0"/>
        <pt x="543" y="357" on="0"/>
        <pt x="544" y="314" on="0"/>
        <pt x="544" y="276" on="0"/>
      </contour>
      <contour>
        <pt x="458" y="336" on="1"/>
        <pt x="457" y="347" on="0"/>
        <pt x="455" y="376" on="0"/>
        <pt x="450" y="403" on="0"/>
        <pt x="445" y="423" on="0"/>
        <pt x="441" y="425" on="1"/>
        <pt x="433" y="428" on="0"/>
        <pt x="396" y="433" on="0"/>
        <pt x="357" y="425" on="0"/>
        <pt x="325" y="403" on="0"/>
        <pt x="324" y="379" on="1"/>
        <pt x="322" y="363" on="0"/>
        <pt x="324" y="315" on="0"/>
        <pt x="326" y="289" on="1"/>
        <pt x="342" y="295" on="0"/>
        <pt x="383" y="310" on="0"/>
        <pt x="421" y="323" on="0"/>
        <pt x="451" y="333" on="0"/>
      </contour>
      <contour>
        <pt x="233" y="234" on="1"/>
        <pt x="233" y="239" on="0"/>
        <pt x="235" y="256" on="0"/>
        <pt x="235" y="274" on="0"/>
        <pt x="234" y="290" on="0"/>
        <pt x="232" y="294" on="1"/>
        <pt x="229" y="300" on="0"/>
        <pt x="200" y="308" on="0"/>
        <pt x="164" y="311" on="0"/>
        <pt x="132" y="310" on="0"/>
        <pt x="126" y="306" on="1"/>
        <pt x="118" y="301" on="0"/>
        <pt x="111" y="283" on="0"/>
        <pt x="110" y="264" on="1"/>
        <pt x="110" y="255" on="0"/>
        <pt x="112" y="235" on="0"/>
        <pt x="115" y="216" on="0"/>
        <pt x="120" y="202" on="0"/>
        <pt x="123" y="200" on="1"/>
        <pt x="130" y="195" on="0"/>
        <pt x="165" y="188" on="0"/>
        <pt x="201" y="191" on="0"/>
        <pt x="231" y="211" on="0"/>
      </contour>
    </TTGlyph>
    <TTGlyph name="agrave" xMin="24" yMin="44" xMax="324" yMax="793">
      <component glyphName="a" x="0" y="0" flags="0x204"/>
      <component glyphName="grave" x="-19" y="20" flags="0x4"/>
    </TTGlyph>
    <TTGlyph name="ampersand" xMin="36" yMin="5" xMax="433" yMax="737">
      <contour>
        <pt x="428" y="256" on="1"/>
        <pt x="431" y="252" on="0"/>
        <pt x="433" y="239" on="0"/>
        <pt x="433" y="225" on="0"/>
        <pt x="430" y="213" on="0"/>
        <pt x="429" y="209" on="1"/>
        <pt x="427" y="205" on="0"/>
        <pt x="392" y="198" on="0"/>
        <pt x="369" y="195" on="1"/>
        <pt x="371" y="170" on="0"/>
        <pt x="374" y="114" on="0"/>
        <pt x="375" y="64" on="0"/>
        <pt x="374" y="27" on="0"/>
        <pt x="373" y="22" on="1"/>
        <pt x="371" y="13" on="0"/>
        <pt x="351" y="5" on="0"/>
        <pt x="329" y="5" on="0"/>
        <pt x="309" y="13" on="0"/>
        <pt x="306" y="20" on="1"/>
        <pt x="305" y="23" on="0"/>
        <pt x="304" y="44" on="0"/>
        <pt x="304" y="74" on="0"/>
        <pt x="306" y="110" on="0"/>
        <pt x="307" y="129" on="1"/>
        <pt x="301" y="111" on="0"/>
        <pt x="284" y="70" on="0"/>
        <pt x="265" y="34" on="0"/>
        <pt x="246" y="9" on="0"/>
        <pt x="239" y="8" on="1"/>
        <pt x="228" y="6" on="0"/>
        <pt x="181" y="9" on="0"/>
        <pt x="133" y="16" on="0"/>
        <pt x="95" y="25" on="0"/>
        <pt x="91" y="29" on="1"/>
        <pt x="87" y="33" on="0"/>
        <pt x="70" y="64" on="0"/>
        <pt x="52" y="110" on="0"/>
        <pt x="38" y="168" on="0"/>
        <pt x="37" y="198" on="1"/>
        <pt x="36" y="229" on="0"/>
        <pt x="37" y="291" on="0"/>
        <pt x="44" y="343" on="0"/>
        <pt x="60" y="378" on="0"/>
        <pt x="73" y="381" on="1"/>
        <pt x="79" y="383" on="0"/>
        <pt x="92" y="384" on="0"/>
        <pt x="98" y="386" on="1"/>
        <pt x="92" y="388" on="0"/>
        <pt x="91" y="390" on="1"/>
        <pt x="87" y="394" on="0"/>
        <pt x="69" y="422" on="0"/>
        <pt x="51" y="464" on="0"/>
        <pt x="37" y="519" on="0"/>
        <pt x="37" y="549" on="1"/>
        <pt x="37" y="579" on="0"/>
        <pt x="43" y="639" on="0"/>
        <pt x="55" y="689" on="0"/>
        <pt x="74" y="722" on="0"/>
        <pt x="87" y="725" on="1"/>
        <pt x="127" y="735" on="0"/>
        <pt x="215" y="737" on="0"/>
        <pt x="289" y="728" on="0"/>
        <pt x="338" y="711" on="0"/>
        <pt x="339" y="703" on="1"/>
        <pt x="340" y="695" on="0"/>
        <pt x="334" y="663" on="0"/>
        <pt x="322" y="625" on="0"/>
        <pt x="307" y="590" on="0"/>
        <pt x="300" y="579" on="1"/>
        <pt x="287" y="556" on="0"/>
        <pt x="260" y="518" on="0"/>
        <pt x="249" y="521" on="1"/>
        <pt x="245" y="522" on="0"/>
        <pt x="240" y="544" on="0"/>
        <pt x="237" y="576" on="0"/>
        <pt x="235" y="613" on="0"/>
        <pt x="234" y="645" on="0"/>
        <pt x="232" y="667" on="0"/>
        <pt x="231" y="668" on="1"/>
        <pt x="230" y="669" on="0"/>
        <pt x="217" y="671" on="0"/>
        <pt x="200" y="671" on="0"/>
        <pt x="186" y="669" on="0"/>
        <pt x="183" y="666" on="1"/>
        <pt x="180" y="663" on="0"/>
        <pt x="167" y="636" on="0"/>
        <pt x="152" y="595" on="0"/>
        <pt x="141" y="542" on="0"/>
        <pt x="141" y="512" on="1"/>
        <pt x="141" y="470" on="0"/>
        <pt x="160" y="412" on="0"/>
        <pt x="173" y="407" on="1"/>
        <pt x="255" y="396" on="1"/>
        <pt x="269" y="394" on="0"/>
        <pt x="271" y="373" on="0"/>
        <pt x="261" y="349" on="0"/>
        <pt x="245" y="330" on="0"/>
        <pt x="242" y="330" on="1"/>
        <pt x="236" y="330" on="0"/>
        <pt x="211" y="331" on="0"/>
        <pt x="186" y="331" on="0"/>
        <pt x="165" y="330" on="0"/>
        <pt x="162" y="327" on="1"/>
        <pt x="159" y="324" on="0"/>
        <pt x="152" y="293" on="0"/>
        <pt x="146" y="248" on="0"/>
        <pt x="141" y="191" on="0"/>
        <pt x="141" y="161" on="1"/>
        <pt x="141" y="140" on="0"/>
        <pt x="146" y="99" on="0"/>
        <pt x="155" y="68" on="0"/>
        <pt x="167" y="50" on="0"/>
        <pt x="173" y="51" on="1"/>
        <pt x="180" y="52" on="0"/>
        <pt x="205" y="82" on="0"/>
        <pt x="232" y="120" on="0"/>
        <pt x="253" y="154" on="0"/>
        <pt x="255" y="159" on="1"/>
        <pt x="257" y="164" on="0"/>
        <pt x="266" y="179" on="0"/>
        <pt x="271" y="187" on="1"/>
        <pt x="245" y="185" on="0"/>
        <pt x="238" y="189" on="1"/>
        <pt x="231" y="192" on="0"/>
        <pt x="224" y="217" on="0"/>
        <pt x="224" y="247" on="0"/>
        <pt x="231" y="272" on="0"/>
        <pt x="237" y="275" on="1"/>
        <pt x="240" y="277" on="0"/>
        <pt x="270" y="278" on="0"/>
        <pt x="311" y="275" on="0"/>
        <pt x="358" y="271" on="0"/>
        <pt x="398" y="265" on="0"/>
        <pt x="426" y="259" on="0"/>
      </contour>
    </TTGlyph>
    <TTGlyph name="aring" xMin="24" yMin="44" xMax="324" yMax="776">
      <contour>
        <pt x="233" y="234" on="1"/>
        <pt x="233" y="239" on="0"/>
        <pt x="235" y="256" on="0"/>
        <pt x="236" y="274" on="0"/>
        <pt x="235" y="290" on="0"/>
        <pt x="233" y="294" on="1"/>
        <pt x="230" y="300" on="0"/>
        <pt x="200" y="308" on="0"/>
        <pt x="164" y="311" on="0"/>
        <pt x="132" y="310" on="0"/>
        <pt x="126" y="306" on="1"/>
        <pt x="118" y="301" on="0"/>
        <pt x="111" y="283" on="0"/>
        <pt x="110" y="264" on="1"/>
        <pt x="110" y="255" on="0"/>
        <pt x="112" y="235" on="0"/>
        <pt x="115" y="216" on="0"/>
        <pt x="120" y="202" on="0"/>
        <pt x="123" y="200" on="1"/>
        <pt x="130" y="195" on="0"/>
        <pt x="165" y="188" on="0"/>
        <pt x="201" y="191" on="0"/>
        <pt x="231" y="211" on="0"/>
      </contour>
      <contour>
        <pt x="81" y="750" on="1"/>
        <pt x="86" y="753" on="0"/>
        <pt x="129" y="766" on="0"/>
        <pt x="183" y="775" on="0"/>
        <pt x="237" y="776" on="0"/>
        <pt x="255" y="767" on="1"/>
        <pt x="267" y="761" on="0"/>
        <pt x="288" y="708" on="0"/>
        <pt x="300" y="647" on="0"/>
        <pt x="297" y="594" on="0"/>
        <pt x="285" y="587" on="1"/>
        <pt x="274" y="582" on="0"/>
        <pt x="237" y="577" on="0"/>
        <pt x="214" y="577" on="1"/>
        <pt x="244" y="564" on="0"/>
        <pt x="289" y="535" on="0"/>
        <pt x="295" y="526" on="1"/>
        <pt x="301" y="519" on="0"/>
        <pt x="311" y="504" on="0"/>
        <pt x="319" y="479" on="0"/>
        <pt x="324" y="439" on="0"/>
        <pt x="324" y="407" on="1"/>
        <pt x="324" y="356" on="0"/>
        <pt x="319" y="253" on="0"/>
        <pt x="317" y="214" on="1"/>
        <pt x="316" y="179" on="0"/>
        <pt x="314" y="119" on="0"/>
        <pt x="312" y="74" on="0"/>
        <pt x="309" y="48" on="0"/>
        <pt x="308" y="47" on="1"/>
        <pt x="304" y="44" on="0"/>
        <pt x="287" y="55" on="0"/>
        <pt x="268" y="73" on="0"/>
        <pt x="252" y="93" on="0"/>
        <pt x="251" y="99" on="1"/>
        <pt x="250" y="101" on="0"/>
        <pt x="249" y="116" on="0"/>
        <pt x="247" y="128" on="1"/>
        <pt x="223" y="114" on="0"/>
        <pt x="165" y="103" on="0"/>
        <pt x="108" y="106" on="0"/>
        <pt x="60" y="124" on="0"/>
        <pt x="48" y="139" on="1"/>
        <pt x="43" y="145" on="0"/>
        <pt x="36" y="169" on="0"/>
        <pt x="31" y="201" on="0"/>
        <pt x="27" y="235" on="0"/>
        <pt x="26" y="251" on="1"/>
        <pt x="24" y="289" on="0"/>
        <pt x="48" y="346" on="0"/>
        <pt x="80" y="360" on="1"/>
        <pt x="94" y="366" on="0"/>
        <pt x="141" y="367" on="0"/>
        <pt x="188" y="362" on="0"/>
        <pt x="226" y="355" on="0"/>
        <pt x="231" y="353" on="1"/>
        <pt x="227" y="404" on="0"/>
        <pt x="223" y="479" on="0"/>
        <pt x="217" y="490" on="1"/>
        <pt x="212" y="497" on="0"/>
        <pt x="205" y="504" on="1"/>
        <pt x="199" y="509" on="0"/>
        <pt x="179" y="521" on="0"/>
        <pt x="165" y="524" on="1"/>
        <pt x="154" y="526" on="0"/>
        <pt x="145" y="515" on="1"/>
        <pt x="137" y="505" on="0"/>
        <pt x="124" y="454" on="0"/>
        <pt x="123" y="402" on="1"/>
        <pt x="88" y="401" on="0"/>
        <pt x="51" y="404" on="0"/>
        <pt x="42" y="406" on="1"/>
        <pt x="31" y="408" on="0"/>
        <pt x="29" y="411" on="1"/>
        <pt x="27" y="415" on="0"/>
        <pt x="35" y="466" on="0"/>
        <pt x="51" y="526" on="0"/>
        <pt x="72" y="580" on="0"/>
        <pt x="84" y="587" on="1"/>
        <pt x="89" y="591" on="0"/>
        <pt x="102" y="594" on="0"/>
        <pt x="110" y="596" on="1"/>
        <pt x="105" y="598" on="0"/>
        <pt x="98" y="603" on="0"/>
        <pt x="95" y="605" on="1"/>
        <pt x="83" y="617" on="0"/>
        <pt x="71" y="662" on="0"/>
        <pt x="70" y="709" on="0"/>
        <pt x="76" y="746" on="0"/>
      </contour>
      <contour>
        <pt x="220" y="629" on="1"/>
        <pt x="225" y="630" on="0"/>
        <pt x="229" y="642" on="0"/>
        <pt x="230" y="657" on="0"/>
        <pt x="229" y="674" on="0"/>
        <pt x="229" y="681" on="1"/>
        <pt x="229" y="700" on="0"/>
        <pt x="219" y="721" on="0"/>
        <pt x="213" y="726" on="1"/>
        <pt x="206" y="732" on="0"/>
        <pt x="198" y="733" on="1"/>
        <pt x="176" y="732" on="0"/>
        <pt x="165" y="728" on="1"/>
        <pt x="159" y="726" on="0"/>
        <pt x="156" y="724" on="1"/>
        <pt x="152" y="721" on="0"/>
        <pt x="144" y="701" on="0"/>
        <pt x="138" y="675" on="0"/>
        <pt x="135" y="649" on="0"/>
        <pt x="137" y="642" on="1"/>
        <pt x="138" y="635" on="0"/>
        <pt x="161" y="628" on="0"/>
        <pt x="189" y="626" on="0"/>
        <pt x="215" y="628" on="0"/>
      </contour>
    </TTGlyph>
    <TTGlyph name="asciicircum" xMin="25" yMin="386" xMax="282" yMax="745">
      <contour>
        <pt x="280" y="403" on="1"/>
        <pt x="277" y="400" on="0"/>
        <pt x="263" y="393" on="0"/>
        <pt x="246" y="387" on="0"/>
        <pt x="230" y="386" on="0"/>
        <pt x="226" y="389" on="1"/>
        <pt x="223" y="394" on="0"/>
        <pt x="214" y="421" on="1"/>
        <pt x="206" y="444" on="0"/>
        <pt x="179" y="541" on="0"/>
        <pt x="155" y="628" on="1"/>
        <pt x="129" y="541" on="0"/>
        <pt x="98" y="444" on="0"/>
        <pt x="91" y="422" on="1"/>
        <pt x="82" y="396" on="0"/>
        <pt x="79" y="391" on="1"/>
        <pt x="75" y="388" on="0"/>
        <pt x="59" y="389" on="0"/>
        <pt x="43" y="395" on="0"/>
        <pt x="29" y="404" on="0"/>
        <pt x="27" y="407" on="1"/>
        <pt x="25" y="410" on="0"/>
        <pt x="33" y="457" on="0"/>
        <pt x="48" y="526" on="0"/>
        <pt x="69" y="606" on="0"/>
        <pt x="90" y="676" on="0"/>
        <pt x="108" y="727" on="0"/>
        <pt x="113" y="733" on="1"/>
        <pt x="119" y="740" on="0"/>
        <pt x="144" y="745" on="0"/>
        <pt x="172" y="744" on="0"/>
        <pt x="195" y="739" on="0"/>
        <pt x="198" y="736" on="1"/>
        <pt x="203" y="730" on="0"/>
        <pt x="220" y="678" on="0"/>
        <pt x="239" y="606" on="0"/>
        <pt x="259" y="525" on="0"/>
        <pt x="274" y="454" on="0"/>
        <pt x="282" y="406" on="0"/>
      </contour>
    </TTGlyph>
    <TTGlyph name="asciitilde" xMin="8" yMin="219" xMax="388" yMax="397">
      <contour>
        <pt x="338" y="365" on="1"/>
        <pt x="343" y="370" on="0"/>
        <pt x="362" y="358" on="0"/>
        <pt x="379" y="337" on="0"/>
        <pt x="388" y="314" on="0"/>
        <pt x="384" y="308" on="1"/>
        <pt x="379" y="302" on="0"/>
        <pt x="351" y="274" on="0"/>
        <pt x="318" y="244" on="0"/>
        <pt x="286" y="221" on="0"/>
        <pt x="278" y="220" on="1"/>
        <pt x="269" y="219" on="0"/>
        <pt x="229" y="247" on="0"/>
        <pt x="185" y="281" on="0"/>
        <pt x="145" y="309" on="0"/>
        <pt x="136" y="308" on="1"/>
        <pt x="132" y="308" on="0"/>
        <pt x="112" y="290" on="0"/>
        <pt x="90" y="268" on="0"/>
        <pt x="69" y="246" on="0"/>
        <pt x="63" y="241" on="1"/>
        <pt x="58" y="235" on="0"/>
        <pt x="39" y="245" on="0"/>
        <pt x="20" y="264" on="0"/>
        <pt x="8" y="285" on="0"/>
        <pt x="11" y="290" on="1"/>
        <pt x="13" y="294" on="0"/>
        <pt x="42" y="328" on="0"/>
        <pt x="79" y="365" on="0"/>
        <pt x="117" y="395" on="0"/>
        <pt x="129" y="396" on="1"/>
        <pt x="143" y="397" on="0"/>
        <pt x="188" y="373" on="0"/>
        <pt x="233" y="341" on="0"/>
        <pt x="269" y="315" on="0"/>
        <pt x="275" y="315" on="1"/>
        <pt x="278" y="315" on="0"/>
        <pt x="294" y="326" on="0"/>
        <pt x="314" y="342" on="0"/>
        <pt x="332" y="359" on="0"/>
      </contour>
    </TTGlyph>
    <TTGlyph name="asterisk" xMin="20" yMin="383" xMax="331" yMax="744">
      <contour>
        <pt x="303" y="610" on="1"/>
        <pt x="313" y="608" on="0"/>
        <pt x="327" y="584" on="0"/>
        <pt x="331" y="556" on="0"/>
        <pt x="325" y="531" on="0"/>
        <pt x="316" y="527" on="1"/>
        <pt x="311" y="525" on="0"/>
        <pt x="268" y="523" on="0"/>
        <pt x="238" y="523" on="1"/>
        <pt x="251" y="497" on="0"/>
        <pt x="268" y="460" on="0"/>
        <pt x="270" y="453" on="1"/>
        <pt x="274" y="440" on="0"/>
        <pt x="263" y="413" on="0"/>
        <pt x="243" y="393" on="0"/>
        <pt x="222" y="386" on="0"/>
        <pt x="215" y="393" on="1"/>
        <pt x="211" y="398" on="0"/>
        <pt x="189" y="444" on="0"/>
        <pt x="173" y="476" on="1"/>
        <pt x="156" y="442" on="0"/>
        <pt x="131" y="395" on="0"/>
        <pt x="127" y="391" on="1"/>
        <pt x="116" y="383" on="0"/>
        <pt x="94" y="398" on="0"/>
        <pt x="89" y="404" on="1"/>
        <pt x="87" y="409" on="0"/>
        <pt x="109" y="478" on="0"/>
        <pt x="126" y="526" on="1"/>
        <pt x="90" y="528" on="0"/>
        <pt x="36" y="532" on="0"/>
        <pt x="31" y="537" on="1"/>
        <pt x="20" y="544" on="0"/>
        <pt x="21" y="573" on="0"/>
        <pt x="24" y="581" on="1"/>
        <pt x="26" y="586" on="0"/>
        <pt x="81" y="595" on="0"/>
        <pt x="120" y="600" on="1"/>
        <pt x="103" y="639" on="0"/>
        <pt x="80" y="699" on="0"/>
        <pt x="80" y="706" on="1"/>
        <pt x="80" y="722" on="0"/>
        <pt x="103" y="736" on="0"/>
        <pt x="110" y="738" on="1"/>
        <pt x="114" y="739" on="0"/>
        <pt x="147" y="684" on="0"/>
        <pt x="170" y="646" on="1"/>
        <pt x="183" y="678" on="0"/>
        <pt x="202" y="724" on="0"/>
        <pt x="207" y="730" on="1"/>
        <pt x="214" y="741" on="0"/>
        <pt x="239" y="744" on="0"/>
        <pt x="261" y="735" on="0"/>
        <pt x="277" y="717" on="0"/>
        <pt x="275" y="706" on="1"/>
        <pt x="274" y="698" on="0"/>
        <pt x="253" y="645" on="0"/>
        <pt x="237" y="610" on="1"/>
        <pt x="261" y="612" on="0"/>
        <pt x="297" y="612" on="0"/>
      </contour>
    </TTGlyph>
    <TTGlyph name="at" xMin="24" yMin="-35" xMax="559" yMax="753">
      <contour>
        <pt x="520" y="709" on="1"/>
        <pt x="535" y="696" on="0"/>
        <pt x="552" y="633" on="0"/>
        <pt x="559" y="547" on="0"/>
        <pt x="556" y="443" on="0"/>
        <pt x="546" y="333" on="0"/>
        <pt x="529" y="223" on="0"/>
        <pt x="518" y="175" on="1"/>
        <pt x="516" y="169" on="0"/>
        <pt x="507" y="138" on="0"/>
        <pt x="487" y="106" on="0"/>
        <pt x="455" y="81" on="0"/>
        <pt x="430" y="81" on="1"/>
        <pt x="408" y="81" on="0"/>
        <pt x="379" y="95" on="0"/>
        <pt x="361" y="116" on="0"/>
        <pt x="354" y="141" on="0"/>
        <pt x="353" y="152" on="1"/>
        <pt x="334" y="138" on="0"/>
        <pt x="286" y="128" on="0"/>
        <pt x="239" y="131" on="0"/>
        <pt x="200" y="148" on="0"/>
        <pt x="190" y="162" on="1"/>
        <pt x="186" y="167" on="0"/>
        <pt x="180" y="191" on="0"/>
        <pt x="176" y="221" on="0"/>
        <pt x="173" y="255" on="0"/>
        <pt x="172" y="270" on="1"/>
        <pt x="170" y="308" on="0"/>
        <pt x="190" y="363" on="0"/>
        <pt x="216" y="377" on="1"/>
        <pt x="227" y="383" on="0"/>
        <pt x="266" y="384" on="0"/>
        <pt x="305" y="379" on="0"/>
        <pt x="336" y="372" on="0"/>
        <pt x="340" y="370" on="1"/>
        <pt x="337" y="418" on="0"/>
        <pt x="334" y="493" on="0"/>
        <pt x="329" y="504" on="1"/>
        <pt x="325" y="511" on="0"/>
        <pt x="319" y="517" on="1"/>
        <pt x="314" y="522" on="0"/>
        <pt x="297" y="533" on="0"/>
        <pt x="286" y="537" on="1"/>
        <pt x="277" y="539" on="0"/>
        <pt x="270" y="528" on="1"/>
        <pt x="264" y="518" on="0"/>
        <pt x="253" y="469" on="0"/>
        <pt x="252" y="418" on="1"/>
        <pt x="223" y="417" on="0"/>
        <pt x="193" y="419" on="0"/>
        <pt x="185" y="421" on="1"/>
        <pt x="176" y="423" on="0"/>
        <pt x="174" y="426" on="1"/>
        <pt x="173" y="430" on="0"/>
        <pt x="180" y="479" on="0"/>
        <pt x="192" y="538" on="0"/>
        <pt x="210" y="590" on="0"/>
        <pt x="219" y="597" on="1"/>
        <pt x="238" y="611" on="0"/>
        <pt x="294" y="603" on="0"/>
        <pt x="346" y="578" on="0"/>
        <pt x="387" y="548" on="0"/>
        <pt x="393" y="539" on="1"/>
        <pt x="397" y="531" on="0"/>
        <pt x="405" y="516" on="0"/>
        <pt x="412" y="492" on="0"/>
        <pt x="416" y="453" on="0"/>
        <pt x="416" y="422" on="1"/>
        <pt x="416" y="373" on="0"/>
        <pt x="413" y="274" on="0"/>
        <pt x="412" y="236" on="1"/>
        <pt x="412" y="230" on="0"/>
        <pt x="410" y="200" on="0"/>
        <pt x="411" y="169" on="0"/>
        <pt x="419" y="145" on="0"/>
        <pt x="428" y="145" on="1"/>
        <pt x="438" y="145" on="0"/>
        <pt x="448" y="176" on="0"/>
        <pt x="450" y="187" on="1"/>
        <pt x="456" y="216" on="0"/>
        <pt x="463" y="288" on="0"/>
        <pt x="463" y="333" on="1"/>
        <pt x="463" y="378" on="0"/>
        <pt x="467" y="483" on="0"/>
        <pt x="463" y="578" on="0"/>
        <pt x="447" y="646" on="0"/>
        <pt x="426" y="653" on="1"/>
        <pt x="412" y="658" on="0"/>
        <pt x="358" y="666" on="0"/>
        <pt x="291" y="668" on="0"/>
        <pt x="221" y="661" on="0"/>
        <pt x="161" y="640" on="0"/>
        <pt x="118" y="602" on="0"/>
        <pt x="114" y="572" on="1"/>
        <pt x="109" y="542" on="0"/>
        <pt x="109" y="453" on="0"/>
        <pt x="115" y="351" on="0"/>
        <pt x="128" y="247" on="0"/>
        <pt x="144" y="157" on="0"/>
        <pt x="164" y="91" on="0"/>
        <pt x="174" y="80" on="1"/>
        <pt x="189" y="63" on="0"/>
        <pt x="236" y="43" on="0"/>
        <pt x="283" y="33" on="0"/>
        <pt x="321" y="31" on="0"/>
        <pt x="327" y="31" on="1"/>
        <pt x="336" y="31" on="0"/>
        <pt x="360" y="34" on="0"/>
        <pt x="385" y="38" on="0"/>
        <pt x="409" y="43" on="0"/>
        <pt x="417" y="46" on="1"/>
        <pt x="425" y="49" on="0"/>
        <pt x="429" y="30" on="0"/>
        <pt x="424" y="4" on="0"/>
        <pt x="415" y="-20" on="0"/>
        <pt x="411" y="-22" on="1"/>
        <pt x="400" y="-27" on="0"/>
        <pt x="374" y="-32" on="0"/>
        <pt x="346" y="-34" on="0"/>
        <pt x="319" y="-35" on="0"/>
        <pt x="309" y="-35" on="1"/>
        <pt x="227" y="-35" on="0"/>
        <pt x="106" y="28" on="0"/>
        <pt x="63" y="85" on="1"/>
        <pt x="56" y="95" on="0"/>
        <pt x="40" y="166" on="0"/>
        <pt x="29" y="267" on="0"/>
        <pt x="24" y="386" on="0"/>
        <pt x="31" y="502" on="0"/>
        <pt x="53" y="602" on="0"/>
        <pt x="74" y="634" on="1"/>
        <pt x="95" y="666" on="0"/>
        <pt x="166" y="712" on="0"/>
        <pt x="251" y="741" on="0"/>
        <pt x="344" y="753" on="0"/>
        <pt x="429" y="748" on="0"/>
        <pt x="499" y="727" on="0"/>
      </contour>
      <contour>
        <pt x="342" y="255" on="1"/>
        <pt x="342" y="259" on="0"/>
        <pt x="343" y="275" on="0"/>
        <pt x="344" y="293" on="0"/>
        <pt x="343" y="308" on="0"/>
        <pt x="342" y="312" on="1"/>
        <pt x="340" y="318" on="0"/>
        <pt x="315" y="327" on="0"/>
        <pt x="285" y="330" on="0"/>
        <pt x="258" y="328" on="0"/>
        <pt x="254" y="325" on="1"/>
        <pt x="242" y="316" on="0"/>
        <pt x="241" y="284" on="1"/>
        <pt x="241" y="275" on="0"/>
        <pt x="242" y="255" on="0"/>
        <pt x="245" y="237" on="0"/>
        <pt x="249" y="223" on="0"/>
        <pt x="252" y="221" on="1"/>
        <pt x="258" y="217" on="0"/>
        <pt x="286" y="210" on="0"/>
        <pt x="316" y="214" on="0"/>
        <pt x="340" y="233" on="0"/>
      </contour>
    </TTGlyph>
    <TTGlyph name="atilde" xMin="24" yMin="44" xMax="364" yMax="791">
      <component glyphName="a" x="0" y="0" flags="0x204"/>
      <component glyphName="tilde" x="0" y="20" flags="0x4"/>
    </TTGlyph>
    <TTGlyph name="b" xMin="20" yMin="3" xMax="333" yMax="768">
      <contour>
        <pt x="275" y="529" on="1"/>
        <pt x="285" y="523" on="0"/>
        <pt x="306" y="492" on="0"/>
        <pt x="323" y="450" on="0"/>
        <pt x="333" y="403" on="0"/>
        <pt x="333" y="382" on="1"/>
        <pt x="333" y="367" on="0"/>
        <pt x="326" y="314" on="0"/>
        <pt x="314" y="251" on="0"/>
        <pt x="300" y="184" on="0"/>
        <pt x="287" y="128" on="0"/>
        <pt x="277" y="89" on="0"/>
        <pt x="275" y="85" on="1"/>
        <pt x="270" y="73" on="0"/>
        <pt x="263" y="56" on="0"/>
        <pt x="258" y="52" on="1"/>
        <pt x="247" y="44" on="0"/>
        <pt x="213" y="37" on="0"/>
        <pt x="177" y="35" on="0"/>
        <pt x="144" y="38" on="0"/>
        <pt x="135" y="41" on="1"/>
        <pt x="131" y="42" on="0"/>
        <pt x="122" y="45" on="0"/>
        <pt x="117" y="47" on="1"/>
        <pt x="107" y="30" on="0"/>
        <pt x="81" y="3" on="0"/>
        <pt x="70" y="5" on="1"/>
        <pt x="66" y="6" on="0"/>
        <pt x="57" y="70" on="0"/>
        <pt x="47" y="175" on="0"/>
        <pt x="37" y="309" on="0"/>
        <pt x="29" y="450" on="0"/>
        <pt x="23" y="586" on="0"/>
        <pt x="20" y="693" on="0"/>
        <pt x="22" y="762" on="0"/>
        <pt x="26" y="765" on="1"/>
        <pt x="30" y="768" on="0"/>
        <pt x="59" y="753" on="0"/>
        <pt x="93" y="724" on="0"/>
        <pt x="122" y="684" on="0"/>
        <pt x="127" y="663" on="1"/>
        <pt x="130" y="647" on="0"/>
        <pt x="133" y="569" on="0"/>
        <pt x="133" y="516" on="1"/>
        <pt x="177" y="533" on="0"/>
        <pt x="252" y="543" on="0"/>
      </contour>
      <contour>
        <pt x="232" y="382" on="1"/>
        <pt x="232" y="398" on="0"/>
        <pt x="222" y="429" on="0"/>
        <pt x="208" y="452" on="0"/>
        <pt x="192" y="464" on="0"/>
        <pt x="186" y="462" on="1"/>
        <pt x="175" y="460" on="0"/>
        <pt x="155" y="453" on="0"/>
        <pt x="148" y="450" on="1"/>
        <pt x="139" y="446" on="0"/>
        <pt x="133" y="443" on="1"/>
        <pt x="132" y="384" on="0"/>
        <pt x="129" y="262" on="0"/>
        <pt x="129" y="209" on="1"/>
        <pt x="129" y="183" on="0"/>
        <pt x="131" y="144" on="0"/>
        <pt x="131" y="139" on="1"/>
        <pt x="134" y="115" on="0"/>
        <pt x="144" y="105" on="1"/>
        <pt x="147" y="103" on="0"/>
        <pt x="160" y="96" on="0"/>
        <pt x="175" y="91" on="0"/>
        <pt x="189" y="90" on="0"/>
        <pt x="194" y="94" on="1"/>
        <pt x="195" y="95" on="0"/>
        <pt x="202" y="138" on="0"/>
        <pt x="210" y="200" on="0"/>
        <pt x="219" y="273" on="0"/>
        <pt x="227" y="336" on="0"/>
        <pt x="232" y="380" on="0"/>
      </contour>
    </TTGlyph>
    <TTGlyph name="backslash" xMin="-10" yMin="-2" xMax="348" yMax="747">
      <contour>
        <pt x="-10" y="734" on="1"/>
        <pt x="-10" y="744" on="0"/>
        <pt x="19" y="747" on="0"/>
        <pt x="57" y="736" on="0"/>
        <pt x="94" y="714" on="0"/>
        <pt x="103" y="700" on="1"/>
        <pt x="108" y="693" on="0"/>
        <pt x="135" y="626" on="0"/>
        <pt x="173" y="526" on="0"/>
        <pt x="217" y="401" on="0"/>
        <pt x="262" y="274" on="0"/>
        <pt x="303" y="153" on="0"/>
        <pt x="333" y="58" on="0"/>
        <pt x="348" y="1" on="0"/>
        <pt x="345" y="0" on="1"/>
        <pt x="337" y="-2" on="0"/>
        <pt x="305" y="3" on="0"/>
        <pt x="289" y="18" on="1"/>
        <pt x="284" y="22" on="0"/>
        <pt x="254" y="87" on="0"/>
        <pt x="210" y="187" on="0"/>
        <pt x="157" y="311" on="0"/>
        <pt x="103" y="441" on="0"/>
        <pt x="53" y="566" on="0"/>
        <pt x="13" y="666" on="0"/>
        <pt x="-10" y="730" on="0"/>
      </contour>
    </TTGlyph>
    <TTGlyph name="bar" xMin="41" yMin="-2" xMax="148" yMax="747">
      <contour>
        <pt x="146" y="734" on="1"/>
        <pt x="148" y="730" on="0"/>
        <pt x="148" y="666" on="0"/>
        <pt x="146" y="566" on="0"/>
        <pt x="142" y="441" on="0"/>
        <pt x="136" y="311" on="0"/>
        <pt x="130" y="187" on="0"/>
        <pt x="123" y="87" on="0"/>
        <pt x="116" y="22" on="0"/>
        <pt x="113" y="18" on="1"/>
        <pt x="102" y="3" on="0"/>
        <pt x="73" y="-2" on="0"/>
        <pt x="63" y="0" on="1"/>
        <pt x="60" y="1" on="0"/>
        <pt x="54" y="58" on="0"/>
        <pt x="49" y="153" on="0"/>
        <pt x="45" y="274" on="0"/>
        <pt x="43" y="401" on="0"/>
        <pt x="41" y="526" on="0"/>
        <pt x="41" y="626" on="0"/>
        <pt x="43" y="693" on="0"/>
        <pt x="45" y="700" on="1"/>
        <pt x="49" y="714" on="0"/>
        <pt x="78" y="736" on="0"/>
        <pt x="112" y="747" on="0"/>
        <pt x="142" y="744" on="0"/>
      </contour>
    </TTGlyph>
    <TTGlyph name="braceleft" xMin="0" yMin="-45" xMax="288" yMax="838">
      <contour>
        <pt x="165" y="507" on="1"/>
        <pt x="139" y="474" on="0"/>
        <pt x="110" y="431" on="0"/>
        <pt x="102" y="418" on="1"/>
        <pt x="93" y="403" on="0"/>
        <pt x="91" y="395" on="1"/>
        <pt x="91" y="389" on="0"/>
        <pt x="99" y="374" on="1"/>
        <pt x="105" y="361" on="0"/>
        <pt x="134" y="313" on="0"/>
        <pt x="162" y="275" on="1"/>
        <pt x="161" y="240" on="0"/>
        <pt x="160" y="169" on="0"/>
        <pt x="158" y="109" on="0"/>
        <pt x="157" y="66" on="0"/>
        <pt x="157" y="60" on="1"/>
        <pt x="166" y="61" on="0"/>
        <pt x="195" y="63" on="0"/>
        <pt x="222" y="65" on="0"/>
        <pt x="243" y="64" on="0"/>
        <pt x="245" y="62" on="1"/>
        <pt x="249" y="58" on="0"/>
        <pt x="251" y="32" on="0"/>
        <pt x="248" y="1" on="0"/>
        <pt x="242" y="-29" on="0"/>
        <pt x="238" y="-38" on="1"/>
        <pt x="236" y="-42" on="0"/>
        <pt x="211" y="-45" on="0"/>
        <pt x="179" y="-45" on="0"/>
        <pt x="150" y="-42" on="0"/>
        <pt x="144" y="-40" on="1"/>
        <pt x="130" y="-35" on="0"/>
        <pt x="107" y="-19" on="0"/>
        <pt x="98" y="-1" on="1"/>
        <pt x="96" y="2" on="0"/>
        <pt x="93" y="44" on="0"/>
        <pt x="89" y="111" on="0"/>
        <pt x="85" y="198" on="0"/>
        <pt x="84" y="247" on="1"/>
        <pt x="52" y="290" on="0"/>
        <pt x="18" y="342" on="0"/>
        <pt x="10" y="357" on="1"/>
        <pt x="1" y="374" on="0"/>
        <pt x="0" y="382" on="1"/>
        <pt x="1" y="391" on="0"/>
        <pt x="10" y="409" on="1"/>
        <pt x="18" y="425" on="0"/>
        <pt x="49" y="479" on="0"/>
        <pt x="78" y="524" on="1"/>
        <pt x="77" y="577" on="0"/>
        <pt x="77" y="674" on="0"/>
        <pt x="78" y="750" on="0"/>
        <pt x="81" y="798" on="0"/>
        <pt x="83" y="803" on="1"/>
        <pt x="87" y="812" on="0"/>
        <pt x="118" y="824" on="0"/>
        <pt x="161" y="833" on="0"/>
        <pt x="209" y="837" on="0"/>
        <pt x="251" y="838" on="0"/>
        <pt x="281" y="836" on="0"/>
        <pt x="284" y="833" on="1"/>
        <pt x="288" y="828" on="0"/>
        <pt x="288" y="796" on="0"/>
        <pt x="281" y="758" on="0"/>
        <pt x="270" y="723" on="0"/>
        <pt x="264" y="717" on="1"/>
        <pt x="262" y="714" on="0"/>
        <pt x="244" y="714" on="0"/>
        <pt x="219" y="716" on="0"/>
        <pt x="187" y="718" on="0"/>
        <pt x="171" y="718" on="1"/>
        <pt x="171" y="712" on="0"/>
        <pt x="169" y="672" on="0"/>
        <pt x="168" y="613" on="0"/>
        <pt x="166" y="543" on="0"/>
      </contour>
    </TTGlyph>
    <TTGlyph name="braceright" xMin="-27" yMin="-45" xMax="262" yMax="838">
      <contour>
        <pt x="97" y="507" on="1"/>
        <pt x="96" y="543" on="0"/>
        <pt x="94" y="613" on="0"/>
        <pt x="93" y="672" on="0"/>
        <pt x="91" y="712" on="0"/>
        <pt x="91" y="718" on="1"/>
        <pt x="74" y="718" on="0"/>
        <pt x="43" y="716" on="0"/>
        <pt x="17" y="714" on="0"/>
        <pt x="0" y="714" on="0"/>
        <pt x="-2" y="717" on="1"/>
        <pt x="-8" y="723" on="0"/>
        <pt x="-19" y="758" on="0"/>
        <pt x="-26" y="796" on="0"/>
        <pt x="-27" y="828" on="0"/>
        <pt x="-22" y="833" on="1"/>
        <pt x="-19" y="836" on="0"/>
        <pt x="11" y="838" on="0"/>
        <pt x="53" y="837" on="0"/>
        <pt x="101" y="833" on="0"/>
        <pt x="144" y="824" on="0"/>
        <pt x="175" y="812" on="0"/>
        <pt x="179" y="803" on="1"/>
        <pt x="181" y="798" on="0"/>
        <pt x="184" y="750" on="0"/>
        <pt x="185" y="674" on="0"/>
        <pt x="185" y="577" on="0"/>
        <pt x="184" y="524" on="1"/>
        <pt x="213" y="479" on="0"/>
        <pt x="244" y="425" on="0"/>
        <pt x="252" y="409" on="1"/>
        <pt x="261" y="391" on="0"/>
        <pt x="262" y="382" on="1"/>
        <pt x="261" y="374" on="0"/>
        <pt x="252" y="357" on="1"/>
        <pt x="244" y="342" on="0"/>
        <pt x="210" y="290" on="0"/>
        <pt x="178" y="247" on="1"/>
        <pt x="176" y="198" on="0"/>
        <pt x="173" y="111" on="0"/>
        <pt x="169" y="44" on="0"/>
        <pt x="165" y="2" on="0"/>
        <pt x="164" y="-1" on="1"/>
        <pt x="156" y="-19" on="0"/>
        <pt x="132" y="-35" on="0"/>
        <pt x="118" y="-40" on="1"/>
        <pt x="112" y="-42" on="0"/>
        <pt x="83" y="-45" on="0"/>
        <pt x="51" y="-45" on="0"/>
        <pt x="26" y="-42" on="0"/>
        <pt x="25" y="-38" on="1"/>
        <pt x="20" y="-29" on="0"/>
        <pt x="14" y="1" on="0"/>
        <pt x="11" y="32" on="0"/>
        <pt x="13" y="58" on="0"/>
        <pt x="17" y="62" on="1"/>
        <pt x="19" y="64" on="0"/>
        <pt x="40" y="65" on="0"/>
        <pt x="68" y="63" on="0"/>
        <pt x="96" y="61" on="0"/>
        <pt x="105" y="60" on="1"/>
        <pt x="105" y="66" on="0"/>
        <pt x="104" y="109" on="0"/>
        <pt x="102" y="169" on="0"/>
        <pt x="101" y="240" on="0"/>
        <pt x="100" y="275" on="1"/>
        <pt x="128" y="313" on="0"/>
        <pt x="156" y="361" on="0"/>
        <pt x="163" y="374" on="1"/>
        <pt x="170" y="389" on="0"/>
        <pt x="171" y="395" on="1"/>
        <pt x="169" y="403" on="0"/>
        <pt x="160" y="418" on="1"/>
        <pt x="152" y="431" on="0"/>
        <pt x="123" y="474" on="0"/>
      </contour>
    </TTGlyph>
    <TTGlyph name="bracketleft" xMin="41" yMin="-45" xMax="249" yMax="838">
      <contour>
        <pt x="132" y="718" on="1"/>
        <pt x="132" y="710" on="0"/>
        <pt x="130" y="648" on="0"/>
        <pt x="129" y="558" on="0"/>
        <pt x="126" y="448" on="0"/>
        <pt x="124" y="333" on="0"/>
        <pt x="122" y="222" on="0"/>
        <pt x="120" y="131" on="0"/>
        <pt x="119" y="69" on="0"/>
        <pt x="118" y="60" on="1"/>
        <pt x="127" y="61" on="0"/>
        <pt x="156" y="63" on="0"/>
        <pt x="183" y="65" on="0"/>
        <pt x="204" y="64" on="0"/>
        <pt x="206" y="62" on="1"/>
        <pt x="210" y="58" on="0"/>
        <pt x="213" y="32" on="0"/>
        <pt x="210" y="1" on="0"/>
        <pt x="204" y="-29" on="0"/>
        <pt x="200" y="-38" on="1"/>
        <pt x="198" y="-42" on="0"/>
        <pt x="172" y="-45" on="0"/>
        <pt x="141" y="-45" on="0"/>
        <pt x="111" y="-42" on="0"/>
        <pt x="105" y="-40" on="1"/>
        <pt x="91" y="-35" on="0"/>
        <pt x="71" y="-19" on="0"/>
        <pt x="62" y="-1" on="1"/>
        <pt x="60" y="3" on="0"/>
        <pt x="55" y="74" on="0"/>
        <pt x="50" y="185" on="0"/>
        <pt x="46" y="324" on="0"/>
        <pt x="42" y="470" on="0"/>
        <pt x="41" y="610" on="0"/>
        <pt x="41" y="723" on="0"/>
        <pt x="44" y="797" on="0"/>
        <pt x="47" y="803" on="1"/>
        <pt x="53" y="816" on="0"/>
        <pt x="113" y="831" on="0"/>
        <pt x="182" y="838" on="0"/>
        <pt x="240" y="837" on="0"/>
        <pt x="245" y="833" on="1"/>
        <pt x="249" y="828" on="0"/>
        <pt x="249" y="796" on="0"/>
        <pt x="242" y="758" on="0"/>
        <pt x="231" y="723" on="0"/>
        <pt x="225" y="717" on="1"/>
        <pt x="223" y="714" on="0"/>
        <pt x="205" y="714" on="0"/>
        <pt x="180" y="716" on="0"/>
        <pt x="148" y="718" on="0"/>
      </contour>
    </TTGlyph>
    <TTGlyph name="bracketright" xMin="-32" yMin="-45" xMax="177" yMax="838">
      <contour>
        <pt x="86" y="718" on="1"/>
        <pt x="69" y="718" on="0"/>
        <pt x="38" y="716" on="0"/>
        <pt x="12" y="714" on="0"/>
        <pt x="-5" y="714" on="0"/>
        <pt x="-7" y="717" on="1"/>
        <pt x="-13" y="723" on="0"/>
        <pt x="-24" y="758" on="0"/>
        <pt x="-31" y="796" on="0"/>
        <pt x="-32" y="828" on="0"/>
        <pt x="-27" y="833" on="1"/>
        <pt x="-24" y="836" on="0"/>
        <pt x="5" y="838" on="0"/>
        <pt x="47" y="837" on="0"/>
        <pt x="94" y="833" on="0"/>
        <pt x="136" y="824" on="0"/>
        <pt x="167" y="812" on="0"/>
        <pt x="171" y="803" on="1"/>
        <pt x="174" y="797" on="0"/>
        <pt x="177" y="723" on="0"/>
        <pt x="177" y="610" on="0"/>
        <pt x="176" y="470" on="0"/>
        <pt x="172" y="324" on="0"/>
        <pt x="168" y="185" on="0"/>
        <pt x="163" y="74" on="0"/>
        <pt x="158" y="3" on="0"/>
        <pt x="156" y="-1" on="1"/>
        <pt x="147" y="-19" on="0"/>
        <pt x="127" y="-35" on="0"/>
        <pt x="113" y="-40" on="1"/>
        <pt x="107" y="-42" on="0"/>
        <pt x="78" y="-45" on="0"/>
        <pt x="46" y="-45" on="0"/>
        <pt x="21" y="-42" on="0"/>
        <pt x="19" y="-38" on="1"/>
        <pt x="15" y="-29" on="0"/>
        <pt x="9" y="1" on="0"/>
        <pt x="6" y="32" on="0"/>
        <pt x="8" y="58" on="0"/>
        <pt x="12" y="62" on="1"/>
        <pt x="13" y="64" on="0"/>
        <pt x="35" y="65" on="0"/>
        <pt x="62" y="63" on="0"/>
        <pt x="91" y="61" on="0"/>
        <pt x="100" y="60" on="1"/>
        <pt x="99" y="69" on="0"/>
        <pt x="98" y="131" on="0"/>
        <pt x="96" y="222" on="0"/>
        <pt x="94" y="333" on="0"/>
        <pt x="92" y="448" on="0"/>
        <pt x="89" y="558" on="0"/>
        <pt x="88" y="648" on="0"/>
        <pt x="86" y="710" on="0"/>
      </contour>
    </TTGlyph>
    <TTGlyph name="breve" xMin="73" yMin="626" xMax="322" yMax="760">
      <contour>
        <pt x="257" y="748" on="1"/>
        <pt x="258" y="754" on="0"/>
        <pt x="279" y="758" on="0"/>
        <pt x="302" y="755" on="0"/>
        <pt x="322" y="743" on="0"/>
        <pt x="322" y="733" on="1"/>
        <pt x="322" y="724" on="0"/>
        <pt x="314" y="697" on="0"/>
        <pt x="302" y="671" on="0"/>
        <pt x="287" y="649" on="0"/>
        <pt x="280" y="644" on="1"/>
        <pt x="268" y="635" on="0"/>
        <pt x="226" y="626" on="0"/>
        <pt x="180" y="626" on="0"/>
        <pt x="136" y="636" on="0"/>
        <pt x="122" y="647" on="1"/>
        <pt x="114" y="653" on="0"/>
        <pt x="98" y="674" on="0"/>
        <pt x="84" y="698" on="0"/>
        <pt x="75" y="721" on="0"/>
        <pt x="74" y="729" on="1"/>
        <pt x="73" y="739" on="0"/>
        <pt x="91" y="754" on="0"/>
        <pt x="114" y="760" on="0"/>
        <pt x="136" y="757" on="0"/>
        <pt x="139" y="748" on="1"/>
        <pt x="143" y="736" on="0"/>
        <pt x="154" y="712" on="0"/>
        <pt x="158" y="705" on="1"/>
        <pt x="161" y="698" on="0"/>
        <pt x="181" y="690" on="0"/>
        <pt x="204" y="687" on="0"/>
        <pt x="227" y="690" on="0"/>
        <pt x="233" y="695" on="1"/>
        <pt x="242" y="701" on="0"/>
        <pt x="255" y="738" on="0"/>
      </contour>
    </TTGlyph>
    <TTGlyph name="brokenbar" xMin="40" yMin="-3" xMax="143" yMax="744">
      <contour>
        <pt x="132" y="324" on="1"/>
        <pt x="134" y="319" on="0"/>
        <pt x="134" y="272" on="0"/>
        <pt x="130" y="207" on="0"/>
        <pt x="125" y="132" on="0"/>
        <pt x="118" y="67" on="0"/>
        <pt x="111" y="20" on="0"/>
        <pt x="108" y="15" on="1"/>
        <pt x="100" y="3" on="0"/>
        <pt x="69" y="-3" on="0"/>
        <pt x="61" y="-1" on="1"/>
        <pt x="58" y="0" on="0"/>
        <pt x="52" y="40" on="0"/>
        <pt x="48" y="100" on="0"/>
        <pt x="45" y="173" on="0"/>
        <pt x="44" y="238" on="0"/>
        <pt x="45" y="287" on="0"/>
        <pt x="47" y="295" on="1"/>
        <pt x="50" y="306" on="0"/>
        <pt x="75" y="323" on="0"/>
        <pt x="104" y="332" on="0"/>
        <pt x="129" y="331" on="0"/>
      </contour>
      <contour>
        <pt x="140" y="735" on="1"/>
        <pt x="142" y="730" on="0"/>
        <pt x="143" y="684" on="0"/>
        <pt x="142" y="619" on="0"/>
        <pt x="138" y="545" on="0"/>
        <pt x="133" y="480" on="0"/>
        <pt x="127" y="433" on="0"/>
        <pt x="124" y="429" on="1"/>
        <pt x="117" y="419" on="0"/>
        <pt x="97" y="407" on="0"/>
        <pt x="76" y="404" on="0"/>
        <pt x="57" y="408" on="0"/>
        <pt x="51" y="413" on="1"/>
        <pt x="48" y="415" on="0"/>
        <pt x="44" y="456" on="0"/>
        <pt x="42" y="517" on="0"/>
        <pt x="40" y="588" on="0"/>
        <pt x="41" y="651" on="0"/>
        <pt x="44" y="699" on="0"/>
        <pt x="46" y="707" on="1"/>
        <pt x="49" y="717" on="0"/>
        <pt x="77" y="735" on="0"/>
        <pt x="109" y="744" on="0"/>
        <pt x="137" y="743" on="0"/>
      </contour>
    </TTGlyph>
    <TTGlyph name="bullet" xMin="25" yMin="240" xMax="187" yMax="432">
      <contour>
        <pt x="33" y="407" on="1"/>
        <pt x="37" y="410" on="0"/>
        <pt x="67" y="423" on="0"/>
        <pt x="105" y="432" on="0"/>
        <pt x="144" y="432" on="0"/>
        <pt x="157" y="424" on="1"/>
        <pt x="165" y="418" on="0"/>
        <pt x="180" y="368" on="0"/>
        <pt x="187" y="309" on="0"/>
        <pt x="186" y="257" on="0"/>
        <pt x="177" y="251" on="1"/>
        <pt x="168" y="244" on="0"/>
        <pt x="131" y="240" on="0"/>
        <pt x="90" y="244" on="0"/>
        <pt x="52" y="257" on="0"/>
        <pt x="43" y="268" on="1"/>
        <pt x="34" y="279" on="0"/>
        <pt x="26" y="322" on="0"/>
        <pt x="25" y="367" on="0"/>
        <pt x="29" y="404" on="0"/>
      </contour>
    </TTGlyph>
    <TTGlyph name="c" xMin="20" yMin="26" xMax="293" yMax="655">
      <contour>
        <pt x="194" y="547" on="1"/>
        <pt x="190" y="551" on="0"/>
        <pt x="164" y="559" on="0"/>
        <pt x="159" y="552" on="1"/>
        <pt x="156" y="548" on="0"/>
        <pt x="142" y="504" on="0"/>
        <pt x="127" y="436" on="0"/>
        <pt x="116" y="348" on="0"/>
        <pt x="116" y="301" on="1"/>
        <pt x="116" y="267" on="0"/>
        <pt x="122" y="206" on="0"/>
        <pt x="131" y="160" on="0"/>
        <pt x="144" y="132" on="0"/>
        <pt x="151" y="131" on="1"/>
        <pt x="157" y="131" on="0"/>
        <pt x="174" y="159" on="0"/>
        <pt x="191" y="196" on="0"/>
        <pt x="204" y="229" on="0"/>
        <pt x="207" y="234" on="1"/>
        <pt x="215" y="247" on="0"/>
        <pt x="241" y="266" on="0"/>
        <pt x="250" y="266" on="1"/>
        <pt x="255" y="266" on="0"/>
        <pt x="260" y="252" on="0"/>
        <pt x="263" y="233" on="0"/>
        <pt x="263" y="213" on="0"/>
        <pt x="263" y="207" on="1"/>
        <pt x="263" y="196" on="0"/>
        <pt x="255" y="136" on="0"/>
        <pt x="240" y="74" on="0"/>
        <pt x="221" y="26" on="0"/>
        <pt x="210" y="27" on="1"/>
        <pt x="199" y="28" on="0"/>
        <pt x="155" y="46" on="0"/>
        <pt x="110" y="70" on="0"/>
        <pt x="73" y="95" on="0"/>
        <pt x="69" y="102" on="1"/>
        <pt x="65" y="109" on="0"/>
        <pt x="49" y="164" on="0"/>
        <pt x="32" y="244" on="0"/>
        <pt x="20" y="340" on="0"/>
        <pt x="20" y="388" on="1"/>
        <pt x="20" y="436" on="0"/>
        <pt x="25" y="530" on="0"/>
        <pt x="37" y="604" on="0"/>
        <pt x="56" y="650" on="0"/>
        <pt x="70" y="651" on="1"/>
        <pt x="109" y="655" on="0"/>
        <pt x="188" y="634" on="0"/>
        <pt x="251" y="599" on="0"/>
        <pt x="291" y="560" on="0"/>
        <pt x="292" y="547" on="1"/>
        <pt x="293" y="533" on="0"/>
        <pt x="288" y="483" on="0"/>
        <pt x="279" y="432" on="0"/>
        <pt x="268" y="391" on="0"/>
        <pt x="264" y="388" on="1"/>
        <pt x="255" y="379" on="0"/>
        <pt x="231" y="359" on="0"/>
        <pt x="220" y="365" on="1"/>
        <pt x="216" y="367" on="0"/>
        <pt x="210" y="394" on="0"/>
        <pt x="205" y="434" on="0"/>
        <pt x="201" y="480" on="0"/>
        <pt x="198" y="519" on="0"/>
        <pt x="195" y="546" on="0"/>
      </contour>
    </TTGlyph>
    <TTGlyph name="caron" xMin="44" yMin="626" xMax="351" yMax="762">
      <contour>
        <pt x="45" y="757" on="1"/>
        <pt x="46" y="759" on="0"/>
        <pt x="66" y="762" on="0"/>
        <pt x="92" y="762" on="0"/>
        <pt x="117" y="758" on="0"/>
        <pt x="123" y="753" on="1"/>
        <pt x="125" y="751" on="0"/>
        <pt x="141" y="738" on="0"/>
        <pt x="162" y="719" on="0"/>
        <pt x="186" y="698" on="0"/>
        <pt x="197" y="688" on="1"/>
        <pt x="208" y="697" on="0"/>
        <pt x="232" y="719" on="0"/>
        <pt x="254" y="739" on="0"/>
        <pt x="270" y="753" on="0"/>
        <pt x="273" y="754" on="1"/>
        <pt x="282" y="759" on="0"/>
        <pt x="308" y="762" on="0"/>
        <pt x="332" y="761" on="0"/>
        <pt x="349" y="757" on="0"/>
        <pt x="350" y="754" on="1"/>
        <pt x="351" y="750" on="0"/>
        <pt x="323" y="714" on="0"/>
        <pt x="284" y="672" on="0"/>
        <pt x="246" y="636" on="0"/>
        <pt x="239" y="632" on="1"/>
        <pt x="233" y="629" on="0"/>
        <pt x="207" y="626" on="0"/>
        <pt x="179" y="626" on="0"/>
        <pt x="156" y="628" on="0"/>
        <pt x="153" y="630" on="1"/>
        <pt x="148" y="633" on="0"/>
        <pt x="127" y="652" on="0"/>
        <pt x="103" y="679" on="0"/>
        <pt x="77" y="708" on="0"/>
        <pt x="56" y="735" on="0"/>
        <pt x="44" y="754" on="0"/>
      </contour>
    </TTGlyph>
    <TTGlyph name="ccedilla" xMin="19" yMin="-214" xMax="294" yMax="655">
      <contour>
        <pt x="244" y="-52" on="1"/>
        <pt x="251" y="-66" on="0"/>
        <pt x="254" y="-114" on="0"/>
        <pt x="247" y="-163" on="0"/>
        <pt x="232" y="-203" on="0"/>
        <pt x="221" y="-209" on="1"/>
        <pt x="210" y="-214" on="0"/>
        <pt x="156" y="-206" on="0"/>
        <pt x="99" y="-189" on="0"/>
        <pt x="51" y="-169" on="0"/>
        <pt x="45" y="-163" on="1"/>
        <pt x="39" y="-156" on="0"/>
        <pt x="28" y="-130" on="0"/>
        <pt x="20" y="-104" on="0"/>
        <pt x="19" y="-83" on="0"/>
        <pt x="23" y="-81" on="1"/>
        <pt x="27" y="-79" on="0"/>
        <pt x="70" y="-98" on="0"/>
        <pt x="121" y="-122" on="0"/>
        <pt x="167" y="-140" on="0"/>
        <pt x="173" y="-137" on="1"/>
        <pt x="176" y="-136" on="0"/>
        <pt x="180" y="-124" on="0"/>
        <pt x="181" y="-111" on="0"/>
        <pt x="179" y="-97" on="0"/>
        <pt x="177" y="-93" on="1"/>
        <pt x="175" y="-89" on="0"/>
        <pt x="158" y="-80" on="0"/>
        <pt x="132" y="-70" on="0"/>
        <pt x="102" y="-60" on="0"/>
        <pt x="88" y="-55" on="1"/>
        <pt x="85" y="-54" on="0"/>
        <pt x="77" y="-43" on="0"/>
        <pt x="71" y="-29" on="0"/>
        <pt x="68" y="-13" on="0"/>
        <pt x="70" y="-7" on="1"/>
        <pt x="71" y="-3" on="0"/>
        <pt x="83" y="15" on="0"/>
        <pt x="98" y="36" on="0"/>
        <pt x="114" y="57" on="0"/>
        <pt x="121" y="65" on="1"/>
        <pt x="101" y="76" on="0"/>
        <pt x="73" y="96" on="0"/>
        <pt x="69" y="102" on="1"/>
        <pt x="65" y="109" on="0"/>
        <pt x="49" y="164" on="0"/>
        <pt x="32" y="244" on="0"/>
        <pt x="20" y="340" on="0"/>
        <pt x="20" y="388" on="1"/>
        <pt x="20" y="436" on="0"/>
        <pt x="25" y="530" on="0"/>
        <pt x="37" y="604" on="0"/>
        <pt x="56" y="650" on="0"/>
        <pt x="70" y="651" on="1"/>
        <pt x="109" y="655" on="0"/>
        <pt x="188" y="634" on="0"/>
        <pt x="251" y="599" on="0"/>
        <pt x="291" y="560" on="0"/>
        <pt x="293" y="547" on="1"/>
        <pt x="294" y="533" on="0"/>
        <pt x="288" y="483" on="0"/>
        <pt x="279" y="432" on="0"/>
        <pt x="268" y="391" on="0"/>
        <pt x="264" y="388" on="1"/>
        <pt x="255" y="379" on="0"/>
        <pt x="231" y="359" on="0"/>
        <pt x="220" y="365" on="1"/>
        <pt x="216" y="367" on="0"/>
        <pt x="210" y="394" on="0"/>
        <pt x="205" y="434" on="0"/>
        <pt x="201" y="480" on="0"/>
        <pt x="198" y="519" on="0"/>
        <pt x="195" y="546" on="0"/>
        <pt x="194" y="547" on="1"/>
        <pt x="190" y="551" on="0"/>
        <pt x="164" y="559" on="0"/>
        <pt x="159" y="552" on="1"/>
        <pt x="156" y="548" on="0"/>
        <pt x="142" y="504" on="0"/>
        <pt x="127" y="436" on="0"/>
        <pt x="116" y="348" on="0"/>
        <pt x="116" y="301" on="1"/>
        <pt x="116" y="267" on="0"/>
        <pt x="122" y="206" on="0"/>
        <pt x="131" y="160" on="0"/>
        <pt x="144" y="132" on="0"/>
        <pt x="151" y="132" on="1"/>
        <pt x="157" y="131" on="0"/>
        <pt x="174" y="160" on="0"/>
        <pt x="191" y="196" on="0"/>
        <pt x="204" y="229" on="0"/>
        <pt x="207" y="234" on="1"/>
        <pt x="215" y="247" on="0"/>
        <pt x="241" y="267" on="0"/>
        <pt x="250" y="267" on="1"/>
        <pt x="255" y="267" on="0"/>
        <pt x="260" y="253" on="0"/>
        <pt x="263" y="234" on="0"/>
        <pt x="263" y="213" on="0"/>
        <pt x="263" y="207" on="1"/>
        <pt x="263" y="196" on="0"/>
        <pt x="255" y="136" on="0"/>
        <pt x="240" y="74" on="0"/>
        <pt x="221" y="26" on="0"/>
        <pt x="210" y="27" on="1"/>
        <pt x="198" y="27" on="0"/>
        <pt x="174" y="38" on="1"/>
        <pt x="172" y="33" on="0"/>
        <pt x="164" y="16" on="0"/>
        <pt x="156" y="5" on="1"/>
        <pt x="187" y="-9" on="0"/>
        <pt x="236" y="-38" on="0"/>
      </contour>
    </TTGlyph>
    <TTGlyph name="cedilla" xMin="80" yMin="-250" xMax="315" yMax="48">
      <contour>
        <pt x="305" y="-88" on="1"/>
        <pt x="312" y="-102" on="0"/>
        <pt x="315" y="-150" on="0"/>
        <pt x="309" y="-199" on="0"/>
        <pt x="293" y="-239" on="0"/>
        <pt x="283" y="-245" on="1"/>
        <pt x="272" y="-250" on="0"/>
        <pt x="218" y="-242" on="0"/>
        <pt x="160" y="-225" on="0"/>
        <pt x="112" y="-205" on="0"/>
        <pt x="106" y="-199" on="1"/>
        <pt x="100" y="-192" on="0"/>
        <pt x="89" y="-166" on="0"/>
        <pt x="82" y="-140" on="0"/>
        <pt x="80" y="-119" on="0"/>
        <pt x="84" y="-117" on="1"/>
        <pt x="88" y="-115" on="0"/>
        <pt x="131" y="-134" on="0"/>
        <pt x="182" y="-158" on="0"/>
        <pt x="228" y="-176" on="0"/>
        <pt x="234" y="-173" on="1"/>
        <pt x="242" y="-170" on="0"/>
        <pt x="244" y="-137" on="0"/>
        <pt x="239" y="-128" on="1"/>
        <pt x="237" y="-125" on="0"/>
        <pt x="219" y="-116" on="0"/>
        <pt x="193" y="-106" on="0"/>
        <pt x="164" y="-96" on="0"/>
        <pt x="150" y="-91" on="1"/>
        <pt x="146" y="-90" on="0"/>
        <pt x="138" y="-79" on="0"/>
        <pt x="132" y="-64" on="0"/>
        <pt x="129" y="-49" on="0"/>
        <pt x="131" y="-43" on="1"/>
        <pt x="133" y="-37" on="0"/>
        <pt x="152" y="-9" on="0"/>
        <pt x="174" y="19" on="0"/>
        <pt x="193" y="41" on="0"/>
        <pt x="195" y="43" on="1"/>
        <pt x="201" y="48" on="0"/>
        <pt x="216" y="48" on="0"/>
        <pt x="229" y="42" on="0"/>
        <pt x="239" y="31" on="0"/>
        <pt x="239" y="24" on="1"/>
        <pt x="239" y="20" on="0"/>
        <pt x="241" y="15" on="0"/>
        <pt x="238" y="4" on="0"/>
        <pt x="228" y="-14" on="0"/>
        <pt x="217" y="-31" on="1"/>
        <pt x="248" y="-45" on="0"/>
        <pt x="297" y="-74" on="0"/>
      </contour>
    </TTGlyph>
    <TTGlyph name="cent" xMin="20" yMin="42" xMax="282" yMax="742">
      <contour>
        <pt x="281" y="562" on="1"/>
        <pt x="282" y="551" on="0"/>
        <pt x="276" y="512" on="0"/>
        <pt x="267" y="472" on="0"/>
        <pt x="256" y="440" on="0"/>
        <pt x="253" y="437" on="1"/>
        <pt x="245" y="430" on="0"/>
        <pt x="222" y="415" on="0"/>
        <pt x="212" y="420" on="1"/>
        <pt x="207" y="422" on="0"/>
        <pt x="198" y="466" on="0"/>
        <pt x="191" y="517" on="0"/>
        <pt x="186" y="560" on="0"/>
        <pt x="185" y="562" on="1"/>
        <pt x="184" y="563" on="0"/>
        <pt x="175" y="567" on="0"/>
        <pt x="165" y="570" on="0"/>
        <pt x="155" y="569" on="0"/>
        <pt x="153" y="566" on="1"/>
        <pt x="150" y="563" on="0"/>
        <pt x="136" y="529" on="0"/>
        <pt x="123" y="475" on="0"/>
        <pt x="112" y="407" on="0"/>
        <pt x="112" y="370" on="1"/>
        <pt x="112" y="343" on="0"/>
        <pt x="117" y="295" on="0"/>
        <pt x="126" y="259" on="0"/>
        <pt x="138" y="238" on="0"/>
        <pt x="144" y="238" on="1"/>
        <pt x="151" y="238" on="0"/>
        <pt x="167" y="260" on="0"/>
        <pt x="183" y="288" on="0"/>
        <pt x="195" y="314" on="0"/>
        <pt x="198" y="317" on="1"/>
        <pt x="206" y="328" on="0"/>
        <pt x="230" y="343" on="0"/>
        <pt x="240" y="343" on="1"/>
        <pt x="244" y="343" on="0"/>
        <pt x="250" y="332" on="0"/>
        <pt x="252" y="317" on="0"/>
        <pt x="253" y="301" on="0"/>
        <pt x="253" y="296" on="1"/>
        <pt x="253" y="287" on="0"/>
        <pt x="244" y="240" on="0"/>
        <pt x="230" y="192" on="0"/>
        <pt x="211" y="155" on="0"/>
        <pt x="201" y="155" on="1"/>
        <pt x="197" y="156" on="0"/>
        <pt x="186" y="158" on="0"/>
        <pt x="179" y="160" on="1"/>
        <pt x="177" y="115" on="0"/>
        <pt x="172" y="57" on="0"/>
        <pt x="170" y="54" on="1"/>
        <pt x="166" y="47" on="0"/>
        <pt x="151" y="42" on="0"/>
        <pt x="135" y="42" on="0"/>
        <pt x="121" y="44" on="0"/>
        <pt x="118" y="46" on="1"/>
        <pt x="115" y="48" on="0"/>
        <pt x="111" y="126" on="0"/>
        <pt x="109" y="188" on="1"/>
        <pt x="93" y="196" on="0"/>
        <pt x="70" y="209" on="0"/>
        <pt x="67" y="214" on="1"/>
        <pt x="63" y="220" on="0"/>
        <pt x="47" y="263" on="0"/>
        <pt x="32" y="325" on="0"/>
        <pt x="20" y="400" on="0"/>
        <pt x="20" y="438" on="1"/>
        <pt x="20" y="476" on="0"/>
        <pt x="25" y="549" on="0"/>
        <pt x="37" y="607" on="0"/>
        <pt x="55" y="643" on="0"/>
        <pt x="68" y="644" on="1"/>
        <pt x="89" y="646" on="0"/>
        <pt x="108" y="643" on="1"/>
        <pt x="109" y="671" on="0"/>
        <pt x="110" y="706" on="0"/>
        <pt x="112" y="711" on="1"/>
        <pt x="114" y="722" on="0"/>
        <pt x="137" y="737" on="0"/>
        <pt x="164" y="742" on="0"/>
        <pt x="188" y="736" on="0"/>
        <pt x="191" y="727" on="1"/>
        <pt x="193" y="723" on="0"/>
        <pt x="194" y="667" on="0"/>
        <pt x="194" y="624" on="1"/>
        <pt x="231" y="609" on="0"/>
        <pt x="279" y="574" on="0"/>
      </contour>
    </TTGlyph>
    <TTGlyph name="circumflex" xMin="43" yMin="624" xMax="351" yMax="761">
      <contour>
        <pt x="350" y="630" on="1"/>
        <pt x="348" y="628" on="0"/>
        <pt x="329" y="625" on="0"/>
        <pt x="303" y="625" on="0"/>
        <pt x="278" y="628" on="0"/>
        <pt x="272" y="633" on="1"/>
        <pt x="270" y="635" on="0"/>
        <pt x="254" y="649" on="0"/>
        <pt x="233" y="668" on="0"/>
        <pt x="209" y="689" on="0"/>
        <pt x="199" y="698" on="1"/>
        <pt x="188" y="689" on="0"/>
        <pt x="163" y="667" on="0"/>
        <pt x="141" y="648" on="0"/>
        <pt x="125" y="633" on="0"/>
        <pt x="122" y="632" on="1"/>
        <pt x="113" y="627" on="0"/>
        <pt x="87" y="624" on="0"/>
        <pt x="63" y="625" on="0"/>
        <pt x="46" y="630" on="0"/>
        <pt x="45" y="633" on="1"/>
        <pt x="43" y="637" on="0"/>
        <pt x="72" y="673" on="0"/>
        <pt x="111" y="715" on="0"/>
        <pt x="149" y="751" on="0"/>
        <pt x="157" y="755" on="1"/>
        <pt x="163" y="758" on="0"/>
        <pt x="189" y="761" on="0"/>
        <pt x="217" y="760" on="0"/>
        <pt x="240" y="758" on="0"/>
        <pt x="243" y="757" on="1"/>
        <pt x="248" y="754" on="0"/>
        <pt x="268" y="734" on="0"/>
        <pt x="293" y="708" on="0"/>
        <pt x="318" y="678" on="0"/>
        <pt x="339" y="652" on="0"/>
        <pt x="351" y="632" on="0"/>
      </contour>
    </TTGlyph>
    <TTGlyph name="colon" xMin="20" yMin="63" xMax="123" yMax="410">
      <contour>
        <pt x="120" y="173" on="1"/>
        <pt x="123" y="166" on="0"/>
        <pt x="123" y="141" on="0"/>
        <pt x="117" y="114" on="0"/>
        <pt x="108" y="88" on="0"/>
        <pt x="103" y="81" on="1"/>
        <pt x="99" y="74" on="0"/>
        <pt x="85" y="67" on="0"/>
        <pt x="69" y="63" on="0"/>
        <pt x="55" y="63" on="0"/>
        <pt x="51" y="63" on="1"/>
        <pt x="45" y="64" on="0"/>
        <pt x="32" y="81" on="0"/>
        <pt x="23" y="104" on="0"/>
        <pt x="20" y="130" on="0"/>
        <pt x="23" y="141" on="1"/>
        <pt x="26" y="153" on="0"/>
        <pt x="54" y="172" on="0"/>
        <pt x="87" y="183" on="0"/>
        <pt x="116" y="182" on="0"/>
      </contour>
      <contour>
        <pt x="120" y="400" on="1"/>
        <pt x="123" y="393" on="0"/>
        <pt x="123" y="368" on="0"/>
        <pt x="117" y="341" on="0"/>
        <pt x="108" y="316" on="0"/>
        <pt x="103" y="308" on="1"/>
        <pt x="99" y="302" on="0"/>
        <pt x="85" y="294" on="0"/>
        <pt x="69" y="291" on="0"/>
        <pt x="55" y="291" on="0"/>
        <pt x="51" y="291" on="1"/>
        <pt x="45" y="292" on="0"/>
        <pt x="32" y="308" on="0"/>
        <pt x="23" y="330" on="0"/>
        <pt x="20" y="357" on="0"/>
        <pt x="23" y="369" on="1"/>
        <pt x="26" y="381" on="0"/>
        <pt x="54" y="400" on="0"/>
        <pt x="87" y="410" on="0"/>
        <pt x="116" y="409" on="0"/>
      </contour>
    </TTGlyph>
    <TTGlyph name="comma" xMin="15" yMin="-30" xMax="130" yMax="203">
      <contour>
        <pt x="126" y="156" on="1"/>
        <pt x="123" y="133" on="0"/>
        <pt x="110" y="78" on="0"/>
        <pt x="95" y="28" on="0"/>
        <pt x="80" y="-11" on="0"/>
        <pt x="75" y="-18" on="1"/>
        <pt x="71" y="-24" on="0"/>
        <pt x="56" y="-30" on="0"/>
        <pt x="39" y="-30" on="0"/>
        <pt x="23" y="-24" on="0"/>
        <pt x="19" y="-16" on="1"/>
        <pt x="16" y="-12" on="0"/>
        <pt x="15" y="30" on="0"/>
        <pt x="16" y="79" on="0"/>
        <pt x="18" y="126" on="0"/>
        <pt x="20" y="136" on="1"/>
        <pt x="23" y="149" on="0"/>
        <pt x="25" y="158" on="0"/>
        <pt x="27" y="163" on="1"/>
        <pt x="32" y="175" on="0"/>
        <pt x="63" y="193" on="0"/>
        <pt x="97" y="203" on="0"/>
        <pt x="125" y="202" on="0"/>
        <pt x="128" y="194" on="1"/>
        <pt x="130" y="189" on="0"/>
        <pt x="128" y="165" on="0"/>
      </contour>
    </TTGlyph>
    <TTGlyph name="copyright" xMin="20" yMin="213" xMax="398" yMax="740">
      <contour>
        <pt x="328" y="247" on="1"/>
        <pt x="302" y="226" on="0"/>
        <pt x="224" y="213" on="0"/>
        <pt x="142" y="227" on="0"/>
        <pt x="67" y="265" on="0"/>
        <pt x="45" y="295" on="1"/>
        <pt x="40" y="302" on="0"/>
        <pt x="30" y="350" on="0"/>
        <pt x="23" y="418" on="0"/>
        <pt x="20" y="497" on="0"/>
        <pt x="25" y="574" on="0"/>
        <pt x="39" y="641" on="0"/>
        <pt x="53" y="662" on="1"/>
        <pt x="67" y="683" on="0"/>
        <pt x="118" y="713" on="0"/>
        <pt x="179" y="732" on="0"/>
        <pt x="247" y="740" on="0"/>
        <pt x="308" y="737" on="0"/>
        <pt x="359" y="724" on="0"/>
        <pt x="373" y="712" on="1"/>
        <pt x="387" y="700" on="0"/>
        <pt x="398" y="627" on="0"/>
        <pt x="397" y="531" on="0"/>
        <pt x="385" y="423" on="0"/>
        <pt x="366" y="328" on="0"/>
        <pt x="341" y="257" on="0"/>
      </contour>
      <contour>
        <pt x="330" y="459" on="1"/>
        <pt x="330" y="488" on="0"/>
        <pt x="333" y="558" on="0"/>
        <pt x="330" y="619" on="0"/>
        <pt x="319" y="665" on="0"/>
        <pt x="305" y="670" on="1"/>
        <pt x="296" y="673" on="0"/>
        <pt x="257" y="678" on="0"/>
        <pt x="210" y="679" on="0"/>
        <pt x="160" y="674" on="0"/>
        <pt x="117" y="660" on="0"/>
        <pt x="87" y="635" on="0"/>
        <pt x="84" y="616" on="1"/>
        <pt x="81" y="596" on="0"/>
        <pt x="82" y="537" on="0"/>
        <pt x="88" y="468" on="0"/>
        <pt x="99" y="398" on="0"/>
        <pt x="112" y="338" on="0"/>
        <pt x="126" y="294" on="0"/>
        <pt x="133" y="287" on="1"/>
        <pt x="142" y="279" on="0"/>
        <pt x="157" y="271" on="1"/>
        <pt x="170" y="264" on="0"/>
        <pt x="212" y="251" on="0"/>
        <pt x="244" y="249" on="1"/>
        <pt x="244" y="249" on="0"/>
        <pt x="271" y="259" on="0"/>
        <pt x="303" y="299" on="0"/>
        <pt x="330" y="384" on="0"/>
      </contour>
      <contour>
        <pt x="234" y="584" on="1"/>
        <pt x="232" y="586" on="0"/>
        <pt x="218" y="592" on="0"/>
        <pt x="215" y="587" on="1"/>
        <pt x="213" y="585" on="0"/>
        <pt x="205" y="560" on="0"/>
        <pt x="197" y="521" on="0"/>
        <pt x="190" y="471" on="0"/>
        <pt x="190" y="444" on="1"/>
        <pt x="190" y="425" on="0"/>
        <pt x="193" y="390" on="0"/>
        <pt x="199" y="364" on="0"/>
        <pt x="206" y="348" on="0"/>
        <pt x="210" y="348" on="1"/>
        <pt x="214" y="348" on="0"/>
        <pt x="224" y="364" on="0"/>
        <pt x="233" y="384" on="0"/>
        <pt x="240" y="403" on="0"/>
        <pt x="242" y="406" on="1"/>
        <pt x="247" y="414" on="0"/>
        <pt x="261" y="425" on="0"/>
        <pt x="266" y="425" on="1"/>
        <pt x="272" y="425" on="0"/>
        <pt x="274" y="398" on="0"/>
        <pt x="274" y="390" on="1"/>
        <pt x="274" y="384" on="0"/>
        <pt x="269" y="350" on="0"/>
        <pt x="261" y="315" on="0"/>
        <pt x="250" y="288" on="0"/>
        <pt x="244" y="288" on="1"/>
        <pt x="238" y="289" on="0"/>
        <pt x="213" y="300" on="0"/>
        <pt x="187" y="314" on="0"/>
        <pt x="166" y="328" on="0"/>
        <pt x="164" y="332" on="1"/>
        <pt x="162" y="336" on="0"/>
        <pt x="152" y="367" on="0"/>
        <pt x="143" y="412" on="0"/>
        <pt x="136" y="466" on="0"/>
        <pt x="136" y="494" on="1"/>
        <pt x="136" y="521" on="0"/>
        <pt x="139" y="574" on="0"/>
        <pt x="146" y="616" on="0"/>
        <pt x="156" y="642" on="0"/>
        <pt x="164" y="643" on="1"/>
        <pt x="186" y="645" on="0"/>
        <pt x="231" y="633" on="0"/>
        <pt x="267" y="613" on="0"/>
        <pt x="290" y="591" on="0"/>
        <pt x="291" y="584" on="1"/>
        <pt x="292" y="576" on="0"/>
        <pt x="289" y="547" on="0"/>
        <pt x="283" y="519" on="0"/>
        <pt x="277" y="496" on="0"/>
        <pt x="274" y="494" on="1"/>
        <pt x="269" y="488" on="0"/>
        <pt x="256" y="477" on="0"/>
        <pt x="250" y="480" on="1"/>
        <pt x="247" y="481" on="0"/>
        <pt x="242" y="514" on="0"/>
        <pt x="238" y="551" on="0"/>
        <pt x="235" y="583" on="0"/>
      </contour>
    </TTGlyph>
    <TTGlyph name="currency" xMin="8" yMin="115" xMax="358" yMax="611">
      <contour>
        <pt x="278" y="227" on="1"/>
        <pt x="301" y="179" on="0"/>
        <pt x="327" y="117" on="0"/>
        <pt x="323" y="116" on="1"/>
        <pt x="317" y="115" on="0"/>
        <pt x="294" y="125" on="0"/>
        <pt x="270" y="140" on="0"/>
        <pt x="248" y="157" on="0"/>
        <pt x="244" y="163" on="1"/>
        <pt x="239" y="169" on="0"/>
        <pt x="229" y="185" on="0"/>
        <pt x="224" y="192" on="1"/>
        <pt x="219" y="200" on="0"/>
        <pt x="214" y="208" on="1"/>
        <pt x="195" y="208" on="0"/>
        <pt x="145" y="211" on="0"/>
        <pt x="125" y="213" on="1"/>
        <pt x="96" y="171" on="0"/>
        <pt x="57" y="117" on="0"/>
        <pt x="53" y="117" on="1"/>
        <pt x="46" y="117" on="0"/>
        <pt x="35" y="130" on="0"/>
        <pt x="28" y="147" on="0"/>
        <pt x="26" y="166" on="0"/>
        <pt x="28" y="172" on="1"/>
        <pt x="33" y="183" on="0"/>
        <pt x="44" y="207" on="0"/>
        <pt x="49" y="218" on="1"/>
        <pt x="61" y="242" on="1"/>
        <pt x="61" y="243" on="0"/>
        <pt x="60" y="243" on="0"/>
        <pt x="60" y="244" on="1"/>
        <pt x="57" y="248" on="0"/>
        <pt x="53" y="294" on="0"/>
        <pt x="53" y="357" on="0"/>
        <pt x="56" y="427" on="0"/>
        <pt x="59" y="454" on="1"/>
        <pt x="40" y="486" on="0"/>
        <pt x="14" y="533" on="0"/>
        <pt x="11" y="543" on="1"/>
        <pt x="8" y="556" on="0"/>
        <pt x="20" y="581" on="0"/>
        <pt x="41" y="600" on="0"/>
        <pt x="62" y="609" on="0"/>
        <pt x="68" y="607" on="1"/>
        <pt x="73" y="605" on="0"/>
        <pt x="99" y="563" on="0"/>
        <pt x="119" y="529" on="1"/>
        <pt x="125" y="531" on="0"/>
        <pt x="137" y="536" on="0"/>
        <pt x="142" y="538" on="1"/>
        <pt x="155" y="541" on="0"/>
        <pt x="194" y="542" on="0"/>
        <pt x="213" y="537" on="1"/>
        <pt x="231" y="564" on="1"/>
        <pt x="243" y="577" on="0"/>
        <pt x="283" y="596" on="0"/>
        <pt x="322" y="608" on="0"/>
        <pt x="353" y="611" on="0"/>
        <pt x="356" y="608" on="1"/>
        <pt x="358" y="606" on="0"/>
        <pt x="346" y="579" on="0"/>
        <pt x="322" y="534" on="0"/>
        <pt x="288" y="475" on="0"/>
        <pt x="268" y="442" on="1"/>
        <pt x="274" y="410" on="0"/>
        <pt x="281" y="345" on="0"/>
        <pt x="283" y="327" on="1"/>
        <pt x="285" y="299" on="0"/>
        <pt x="284" y="241" on="0"/>
        <pt x="279" y="229" on="1"/>
        <pt x="279" y="228" on="0"/>
        <pt x="278" y="228" on="0"/>
      </contour>
      <contour>
        <pt x="201" y="483" on="1"/>
        <pt x="196" y="487" on="0"/>
        <pt x="181" y="486" on="0"/>
        <pt x="165" y="482" on="0"/>
        <pt x="151" y="476" on="0"/>
        <pt x="148" y="474" on="1"/>
        <pt x="136" y="466" on="0"/>
        <pt x="135" y="445" on="1"/>
        <pt x="135" y="440" on="0"/>
        <pt x="132" y="389" on="0"/>
        <pt x="132" y="329" on="0"/>
        <pt x="135" y="278" on="0"/>
        <pt x="140" y="272" on="1"/>
        <pt x="145" y="267" on="0"/>
        <pt x="161" y="262" on="0"/>
        <pt x="178" y="262" on="0"/>
        <pt x="193" y="266" on="0"/>
        <pt x="197" y="271" on="1"/>
        <pt x="199" y="274" on="0"/>
        <pt x="204" y="308" on="0"/>
        <pt x="207" y="353" on="0"/>
        <pt x="208" y="405" on="0"/>
        <pt x="207" y="450" on="0"/>
        <pt x="204" y="481" on="0"/>
      </contour>
    </TTGlyph>
    <TTGlyph name="d" xMin="20" yMin="-6" xMax="316" yMax="770">
      <contour>
        <pt x="313" y="662" on="1"/>
        <pt x="316" y="638" on="0"/>
        <pt x="315" y="566" on="1"/>
        <pt x="315" y="535" on="0"/>
        <pt x="312" y="447" on="0"/>
        <pt x="306" y="324" on="0"/>
        <pt x="297" y="163" on="0"/>
        <pt x="290" y="61" on="1"/>
        <pt x="288" y="51" on="0"/>
        <pt x="275" y="27" on="0"/>
        <pt x="259" y="7" on="0"/>
        <pt x="241" y="-6" on="0"/>
        <pt x="234" y="-4" on="1"/>
        <pt x="232" y="-3" on="0"/>
        <pt x="227" y="27" on="0"/>
        <pt x="225" y="54" on="1"/>
        <pt x="180" y="34" on="0"/>
        <pt x="100" y="20" on="0"/>
        <pt x="75" y="36" on="1"/>
        <pt x="65" y="42" on="0"/>
        <pt x="46" y="73" on="0"/>
        <pt x="30" y="115" on="0"/>
        <pt x="20" y="162" on="0"/>
        <pt x="20" y="183" on="1"/>
        <pt x="20" y="198" on="0"/>
        <pt x="24" y="248" on="0"/>
        <pt x="30" y="307" on="0"/>
        <pt x="38" y="368" on="0"/>
        <pt x="46" y="420" on="0"/>
        <pt x="52" y="456" on="0"/>
        <pt x="54" y="460" on="1"/>
        <pt x="56" y="472" on="0"/>
        <pt x="67" y="488" on="0"/>
        <pt x="71" y="492" on="1"/>
        <pt x="81" y="500" on="0"/>
        <pt x="120" y="508" on="0"/>
        <pt x="163" y="510" on="0"/>
        <pt x="201" y="507" on="0"/>
        <pt x="210" y="504" on="1"/>
        <pt x="212" y="504" on="1"/>
        <pt x="210" y="628" on="0"/>
        <pt x="214" y="762" on="0"/>
        <pt x="220" y="767" on="1"/>
        <pt x="224" y="770" on="0"/>
        <pt x="252" y="754" on="0"/>
        <pt x="283" y="724" on="0"/>
        <pt x="310" y="683" on="0"/>
      </contour>
      <contour>
        <pt x="161" y="102" on="1"/>
        <pt x="175" y="105" on="0"/>
        <pt x="198" y="114" on="0"/>
        <pt x="206" y="118" on="1"/>
        <pt x="215" y="122" on="0"/>
        <pt x="221" y="128" on="1"/>
        <pt x="220" y="154" on="0"/>
        <pt x="218" y="219" on="0"/>
        <pt x="216" y="289" on="0"/>
        <pt x="214" y="362" on="0"/>
        <pt x="213" y="396" on="1"/>
        <pt x="213" y="407" on="0"/>
        <pt x="206" y="423" on="0"/>
        <pt x="201" y="428" on="1"/>
        <pt x="198" y="430" on="0"/>
        <pt x="180" y="437" on="0"/>
        <pt x="157" y="442" on="0"/>
        <pt x="136" y="442" on="0"/>
        <pt x="132" y="438" on="1"/>
        <pt x="130" y="437" on="0"/>
        <pt x="127" y="400" on="0"/>
        <pt x="124" y="345" on="0"/>
        <pt x="121" y="281" on="0"/>
        <pt x="119" y="225" on="0"/>
        <pt x="117" y="185" on="0"/>
        <pt x="117" y="183" on="1"/>
        <pt x="117" y="166" on="0"/>
        <pt x="126" y="136" on="0"/>
        <pt x="140" y="113" on="0"/>
        <pt x="156" y="100" on="0"/>
      </contour>
    </TTGlyph>
    <TTGlyph name="degree" xMin="9" yMin="566" xMax="239" yMax="766">
      <contour>
        <pt x="20" y="739" on="1"/>
        <pt x="26" y="743" on="0"/>
        <pt x="69" y="756" on="0"/>
        <pt x="123" y="765" on="0"/>
        <pt x="178" y="766" on="0"/>
        <pt x="196" y="757" on="1"/>
        <pt x="204" y="753" on="0"/>
        <pt x="219" y="726" on="0"/>
        <pt x="230" y="689" on="0"/>
        <pt x="238" y="647" on="0"/>
        <pt x="239" y="610" on="0"/>
        <pt x="232" y="582" on="0"/>
        <pt x="224" y="578" on="1"/>
        <pt x="212" y="571" on="0"/>
        <pt x="159" y="566" on="0"/>
        <pt x="101" y="570" on="0"/>
        <pt x="48" y="583" on="0"/>
        <pt x="36" y="595" on="1"/>
        <pt x="24" y="607" on="0"/>
        <pt x="12" y="652" on="0"/>
        <pt x="9" y="698" on="0"/>
        <pt x="15" y="736" on="0"/>
      </contour>
      <contour>
        <pt x="161" y="620" on="1"/>
        <pt x="166" y="621" on="0"/>
        <pt x="170" y="632" on="0"/>
        <pt x="171" y="647" on="0"/>
        <pt x="170" y="664" on="0"/>
        <pt x="170" y="672" on="1"/>
        <pt x="170" y="690" on="0"/>
        <pt x="159" y="711" on="0"/>
        <pt x="153" y="716" on="1"/>
        <pt x="146" y="722" on="0"/>
        <pt x="137" y="723" on="1"/>
        <pt x="125" y="722" on="0"/>
        <pt x="110" y="720" on="0"/>
        <pt x="105" y="718" on="1"/>
        <pt x="100" y="716" on="0"/>
        <pt x="96" y="714" on="1"/>
        <pt x="92" y="711" on="0"/>
        <pt x="84" y="690" on="0"/>
        <pt x="78" y="665" on="0"/>
        <pt x="76" y="639" on="0"/>
        <pt x="78" y="632" on="1"/>
        <pt x="79" y="624" on="0"/>
        <pt x="102" y="618" on="0"/>
        <pt x="129" y="616" on="0"/>
        <pt x="155" y="618" on="0"/>
      </contour>
    </TTGlyph>
    <TTGlyph name="dieresis" xMin="57" yMin="630" xMax="337" yMax="755">
      <contour>
        <pt x="163" y="744" on="1"/>
        <pt x="166" y="736" on="0"/>
        <pt x="166" y="711" on="0"/>
        <pt x="160" y="683" on="0"/>
        <pt x="150" y="657" on="0"/>
        <pt x="145" y="649" on="1"/>
        <pt x="140" y="642" on="0"/>
        <pt x="125" y="634" on="0"/>
        <pt x="109" y="631" on="0"/>
        <pt x="94" y="630" on="0"/>
        <pt x="90" y="631" on="1"/>
        <pt x="84" y="632" on="0"/>
        <pt x="71" y="648" on="0"/>
        <pt x="61" y="672" on="0"/>
        <pt x="57" y="700" on="0"/>
        <pt x="60" y="713" on="1"/>
        <pt x="64" y="725" on="0"/>
        <pt x="94" y="744" on="0"/>
        <pt x="128" y="755" on="0"/>
        <pt x="159" y="753" on="0"/>
      </contour>
      <contour>
        <pt x="334" y="744" on="1"/>
        <pt x="337" y="736" on="0"/>
        <pt x="337" y="711" on="0"/>
        <pt x="331" y="683" on="0"/>
        <pt x="321" y="657" on="0"/>
        <pt x="316" y="649" on="1"/>
        <pt x="311" y="642" on="0"/>
        <pt x="297" y="634" on="0"/>
        <pt x="280" y="631" on="0"/>
        <pt x="265" y="630" on="0"/>
        <pt x="261" y="631" on="1"/>
        <pt x="255" y="632" on="0"/>
        <pt x="242" y="648" on="0"/>
        <pt x="232" y="672" on="0"/>
        <pt x="228" y="700" on="0"/>
        <pt x="231" y="713" on="1"/>
        <pt x="235" y="725" on="0"/>
        <pt x="265" y="744" on="0"/>
        <pt x="299" y="755" on="0"/>
        <pt x="330" y="753" on="0"/>
      </contour>
    </TTGlyph>
    <TTGlyph name="divide" xMin="10" yMin="112" xMax="337" yMax="517">
      <contour>
        <pt x="222" y="507" on="1"/>
        <pt x="225" y="499" on="0"/>
        <pt x="225" y="474" on="0"/>
        <pt x="220" y="446" on="0"/>
        <pt x="211" y="420" on="0"/>
        <pt x="206" y="413" on="1"/>
        <pt x="201" y="406" on="0"/>
        <pt x="187" y="398" on="0"/>
        <pt x="171" y="395" on="0"/>
        <pt x="156" y="394" on="0"/>
        <pt x="152" y="395" on="1"/>
        <pt x="146" y="396" on="0"/>
        <pt x="132" y="412" on="0"/>
        <pt x="123" y="435" on="0"/>
        <pt x="119" y="463" on="0"/>
        <pt x="122" y="475" on="1"/>
        <pt x="125" y="487" on="0"/>
        <pt x="154" y="507" on="0"/>
        <pt x="188" y="517" on="0"/>
        <pt x="218" y="516" on="0"/>
      </contour>
      <contour>
        <pt x="220" y="219" on="1"/>
        <pt x="223" y="212" on="0"/>
        <pt x="223" y="187" on="0"/>
        <pt x="218" y="161" on="0"/>
        <pt x="209" y="136" on="0"/>
        <pt x="204" y="129" on="1"/>
        <pt x="200" y="123" on="0"/>
        <pt x="186" y="115" on="0"/>
        <pt x="171" y="112" on="0"/>
        <pt x="157" y="112" on="0"/>
        <pt x="153" y="112" on="1"/>
        <pt x="147" y="113" on="0"/>
        <pt x="134" y="128" on="0"/>
        <pt x="125" y="151" on="0"/>
        <pt x="121" y="177" on="0"/>
        <pt x="124" y="188" on="1"/>
        <pt x="127" y="200" on="0"/>
        <pt x="155" y="219" on="0"/>
        <pt x="188" y="229" on="0"/>
        <pt x="216" y="228" on="0"/>
      </contour>
      <contour>
        <pt x="322" y="273" on="1"/>
        <pt x="317" y="271" on="0"/>
        <pt x="271" y="269" on="0"/>
        <pt x="207" y="269" on="0"/>
        <pt x="134" y="272" on="0"/>
        <pt x="71" y="275" on="0"/>
        <pt x="26" y="280" on="0"/>
        <pt x="22" y="283" on="1"/>
        <pt x="10" y="291" on="0"/>
        <pt x="11" y="320" on="0"/>
        <pt x="13" y="328" on="1"/>
        <pt x="14" y="331" on="0"/>
        <pt x="55" y="340" on="0"/>
        <pt x="116" y="347" on="0"/>
        <pt x="187" y="354" on="0"/>
        <pt x="252" y="358" on="0"/>
        <pt x="301" y="359" on="0"/>
        <pt x="308" y="357" on="1"/>
        <pt x="319" y="355" on="0"/>
        <pt x="332" y="331" on="0"/>
        <pt x="337" y="302" on="0"/>
        <pt x="331" y="277" on="0"/>
      </contour>
    </TTGlyph>
    <TTGlyph name="dollar" xMin="14" yMin="42" xMax="308" yMax="742">
      <contour>
        <pt x="125" y="487" on="1"/>
        <pt x="125" y="481" on="0"/>
        <pt x="150" y="453" on="0"/>
        <pt x="186" y="413" on="0"/>
        <pt x="228" y="367" on="0"/>
        <pt x="265" y="322" on="0"/>
        <pt x="290" y="281" on="0"/>
        <pt x="291" y="267" on="1"/>
        <pt x="292" y="250" on="0"/>
        <pt x="274" y="197" on="0"/>
        <pt x="245" y="147" on="0"/>
        <pt x="212" y="109" on="0"/>
        <pt x="199" y="106" on="1"/>
        <pt x="197" y="84" on="0"/>
        <pt x="194" y="56" on="0"/>
        <pt x="193" y="54" on="1"/>
        <pt x="188" y="47" on="0"/>
        <pt x="174" y="42" on="0"/>
        <pt x="158" y="42" on="0"/>
        <pt x="144" y="44" on="0"/>
        <pt x="140" y="46" on="1"/>
        <pt x="137" y="48" on="0"/>
        <pt x="134" y="98" on="0"/>
        <pt x="132" y="140" on="1"/>
        <pt x="117" y="152" on="0"/>
        <pt x="86" y="181" on="0"/>
        <pt x="61" y="207" on="0"/>
        <pt x="44" y="228" on="0"/>
        <pt x="42" y="234" on="1"/>
        <pt x="39" y="243" on="0"/>
        <pt x="38" y="273" on="0"/>
        <pt x="41" y="301" on="0"/>
        <pt x="49" y="322" on="0"/>
        <pt x="54" y="322" on="1"/>
        <pt x="60" y="322" on="0"/>
        <pt x="94" y="282" on="0"/>
        <pt x="134" y="233" on="0"/>
        <pt x="170" y="192" on="0"/>
        <pt x="179" y="193" on="1"/>
        <pt x="183" y="193" on="0"/>
        <pt x="195" y="207" on="0"/>
        <pt x="205" y="226" on="0"/>
        <pt x="211" y="246" on="0"/>
        <pt x="211" y="252" on="1"/>
        <pt x="210" y="261" on="0"/>
        <pt x="181" y="294" on="0"/>
        <pt x="138" y="335" on="0"/>
        <pt x="88" y="380" on="0"/>
        <pt x="45" y="421" on="0"/>
        <pt x="16" y="454" on="0"/>
        <pt x="15" y="463" on="1"/>
        <pt x="14" y="475" on="0"/>
        <pt x="38" y="537" on="0"/>
        <pt x="74" y="603" on="0"/>
        <pt x="114" y="660" on="0"/>
        <pt x="131" y="668" on="1"/>
        <pt x="132" y="685" on="0"/>
        <pt x="132" y="708" on="0"/>
        <pt x="133" y="711" on="1"/>
        <pt x="136" y="722" on="0"/>
        <pt x="159" y="737" on="0"/>
        <pt x="187" y="742" on="0"/>
        <pt x="211" y="736" on="0"/>
        <pt x="214" y="727" on="1"/>
        <pt x="215" y="723" on="0"/>
        <pt x="216" y="680" on="0"/>
        <pt x="216" y="645" on="1"/>
        <pt x="233" y="636" on="0"/>
        <pt x="265" y="614" on="0"/>
        <pt x="290" y="591" on="0"/>
        <pt x="306" y="569" on="0"/>
        <pt x="307" y="560" on="1"/>
        <pt x="308" y="549" on="0"/>
        <pt x="301" y="505" on="0"/>
        <pt x="285" y="461" on="0"/>
        <pt x="260" y="428" on="0"/>
        <pt x="244" y="428" on="1"/>
        <pt x="232" y="428" on="0"/>
        <pt x="219" y="466" on="0"/>
        <pt x="211" y="515" on="0"/>
        <pt x="208" y="562" on="0"/>
        <pt x="206" y="572" on="1"/>
        <pt x="203" y="577" on="0"/>
        <pt x="187" y="587" on="0"/>
        <pt x="180" y="587" on="1"/>
        <pt x="173" y="587" on="0"/>
        <pt x="154" y="562" on="0"/>
        <pt x="136" y="529" on="0"/>
        <pt x="125" y="496" on="0"/>
      </contour>
    </TTGlyph>
    <TTGlyph name="dotaccent" xMin="143" yMin="630" xMax="251" yMax="755">
      <contour>
        <pt x="248" y="744" on="1"/>
        <pt x="251" y="736" on="0"/>
        <pt x="251" y="711" on="0"/>
        <pt x="245" y="683" on="0"/>
        <pt x="236" y="657" on="0"/>
        <pt x="230" y="649" on="1"/>
        <pt x="225" y="642" on="0"/>
        <pt x="211" y="634" on="0"/>
        <pt x="195" y="631" on="0"/>
        <pt x="180" y="630" on="0"/>
        <pt x="176" y="631" on="1"/>
        <pt x="170" y="632" on="0"/>
        <pt x="157" y="648" on="0"/>
        <pt x="147" y="672" on="0"/>
        <pt x="143" y="700" on="0"/>
        <pt x="146" y="713" on="1"/>
        <pt x="149" y="725" on="0"/>
        <pt x="179" y="744" on="0"/>
        <pt x="213" y="755" on="0"/>
        <pt x="244" y="753" on="0"/>
      </contour>
    </TTGlyph>
    <TTGlyph name="dotlessi" xMin="36" yMin="58" xMax="139" yMax="440">
      <contour>
        <pt x="136" y="430" on="1"/>
        <pt x="138" y="425" on="0"/>
        <pt x="139" y="372" on="0"/>
        <pt x="138" y="297" on="0"/>
        <pt x="134" y="212" on="0"/>
        <pt x="129" y="137" on="0"/>
        <pt x="123" y="84" on="0"/>
        <pt x="120" y="79" on="1"/>
        <pt x="111" y="65" on="0"/>
        <pt x="75" y="58" on="0"/>
        <pt x="67" y="60" on="1"/>
        <pt x="63" y="60" on="0"/>
        <pt x="54" y="106" on="0"/>
        <pt x="46" y="176" on="0"/>
        <pt x="40" y="258" on="0"/>
        <pt x="36" y="333" on="0"/>
        <pt x="36" y="389" on="0"/>
        <pt x="38" y="397" on="1"/>
        <pt x="41" y="410" on="0"/>
        <pt x="70" y="430" on="0"/>
        <pt x="103" y="440" on="0"/>
        <pt x="132" y="439" on="0"/>
      </contour>
    </TTGlyph>
    <TTGlyph name="e" xMin="25" yMin="21" xMax="327" yMax="537">
      <contour>
        <pt x="109" y="289" on="1"/>
        <pt x="125" y="295" on="0"/>
        <pt x="166" y="310" on="0"/>
        <pt x="204" y="323" on="0"/>
        <pt x="234" y="333" on="0"/>
        <pt x="241" y="336" on="1"/>
        <pt x="240" y="347" on="0"/>
        <pt x="237" y="376" on="0"/>
        <pt x="233" y="403" on="0"/>
        <pt x="227" y="423" on="0"/>
        <pt x="224" y="425" on="1"/>
        <pt x="216" y="428" on="0"/>
        <pt x="179" y="433" on="0"/>
        <pt x="140" y="425" on="0"/>
        <pt x="108" y="403" on="0"/>
        <pt x="106" y="379" on="1"/>
        <pt x="104" y="363" on="0"/>
        <pt x="106" y="315" on="0"/>
      </contour>
      <contour>
        <pt x="326" y="273" on="1"/>
        <pt x="325" y="271" on="0"/>
        <pt x="279" y="259" on="0"/>
        <pt x="215" y="246" on="0"/>
        <pt x="143" y="233" on="0"/>
        <pt x="117" y="229" on="1"/>
        <pt x="122" y="189" on="0"/>
        <pt x="136" y="126" on="0"/>
        <pt x="141" y="118" on="1"/>
        <pt x="146" y="111" on="0"/>
        <pt x="154" y="105" on="1"/>
        <pt x="161" y="100" on="0"/>
        <pt x="182" y="91" on="0"/>
        <pt x="197" y="89" on="1"/>
        <pt x="208" y="86" on="0"/>
        <pt x="218" y="97" on="1"/>
        <pt x="226" y="107" on="0"/>
        <pt x="239" y="157" on="0"/>
        <pt x="239" y="211" on="1"/>
        <pt x="270" y="216" on="0"/>
        <pt x="305" y="218" on="0"/>
        <pt x="313" y="217" on="1"/>
        <pt x="323" y="216" on="0"/>
        <pt x="325" y="214" on="1"/>
        <pt x="326" y="211" on="0"/>
        <pt x="324" y="187" on="0"/>
        <pt x="317" y="152" on="0"/>
        <pt x="308" y="111" on="0"/>
        <pt x="296" y="74" on="0"/>
        <pt x="282" y="45" on="0"/>
        <pt x="274" y="39" on="1"/>
        <pt x="250" y="21" on="0"/>
        <pt x="178" y="22" on="0"/>
        <pt x="108" y="41" on="0"/>
        <pt x="52" y="68" on="0"/>
        <pt x="45" y="77" on="1"/>
        <pt x="40" y="83" on="0"/>
        <pt x="32" y="132" on="0"/>
        <pt x="27" y="202" on="0"/>
        <pt x="25" y="286" on="0"/>
        <pt x="30" y="366" on="0"/>
        <pt x="41" y="434" on="0"/>
        <pt x="51" y="455" on="1"/>
        <pt x="66" y="485" on="0"/>
        <pt x="134" y="523" on="0"/>
        <pt x="210" y="537" on="0"/>
        <pt x="279" y="527" on="0"/>
        <pt x="296" y="510" on="1"/>
        <pt x="306" y="500" on="0"/>
        <pt x="322" y="441" on="0"/>
        <pt x="324" y="399" on="1"/>
        <pt x="324" y="395" on="0"/>
        <pt x="326" y="357" on="0"/>
        <pt x="327" y="314" on="0"/>
        <pt x="327" y="276" on="0"/>
      </contour>
    </TTGlyph>
    <TTGlyph name="eacute" xMin="25" yMin="21" xMax="327" yMax="743">
      <component glyphName="e" x="0" y="0" flags="0x204"/>
      <component glyphName="acute" x="0" y="-30" flags="0x4"/>
    </TTGlyph>
    <TTGlyph name="ecircumflex" xMin="25" yMin="21" xMax="351" yMax="731">
      <component glyphName="e" x="0" y="0" flags="0x204"/>
      <component glyphName="circumflex" x="0" y="-30" flags="0x4"/>
    </TTGlyph>
    <TTGlyph name="edieresis" xMin="25" yMin="21" xMax="337" yMax="725">
      <component glyphName="e" x="0" y="0" flags="0x204"/>
      <component glyphName="dieresis" x="0" y="-30" flags="0x4"/>
    </TTGlyph>
    <TTGlyph name="egrave" xMin="25" yMin="21" xMax="327" yMax="743">
      <component glyphName="e" x="0" y="0" flags="0x204"/>
      <component glyphName="grave" x="-30" y="-30" flags="0x4"/>
    </TTGlyph>
</ttFont>
